<svg id="Слой_1" data-name="Слой 1" xmlns="http://www.w3.org/2000/svg" viewBox="0 0 30 30">
  <title>Icons</title>
  <g id="Accessorize_icon">
    <path d="M29.56,6.9a.61.61,0,1,0,0-1.21H27.64V4.37h1.92a.6.6,0,1,0,0-1.2H4.25A4.42,4.42,0,0,0-.17,7.57V23.84a3,3,0,0,0,3,3H22.11a.6.6,0,0,0,.6-.6V22.05h6.84a.61.61,0,0,0,0-1.21H27.64V19.52h1.92a.6.6,0,1,0,0-1.2H27.64V17h1.92a.61.61,0,1,0,0-1.21H27.64V14.47h1.92a.6.6,0,1,0,0-1.2H27.64V11.95h1.92a.61.61,0,1,0,0-1.21H27.64V9.42h1.92a.6.6,0,1,0,0-1.2H27.64V6.9Zm-8,18.74H2.84a1.79,1.79,0,0,1-1.68-1.19H21.51Zm0-2.4H1.15a1.79,1.79,0,0,1,1.68-1.18H21.51Zm4.91-2.39H2.84a3,3,0,0,0-1.79.6V7.57a3.21,3.21,0,0,1,3.2-3.2H26.42Z"/>
  </g>
</svg>
