<svg id="Слой_1" data-name="Слой 1" xmlns="http://www.w3.org/2000/svg" viewBox="0 0 30 30">
  <title>Icons</title>
  <g id="Bedroom_set_icon" data-name="Bedroom set_icon">
    <path d="M25.33,0H4.67A2.81,2.81,0,0,0,1.73,2.66V28H2.84v2H5.39L6.5,28H24.61l1.11,2h2.55V2.66A2.81,2.81,0,0,0,25.33,0ZM4.71,29H3.94V28H5.26Zm22.46,0H26.4l-.55-1h1.32Zm-3.11-2H2.84V2.66A1.75,1.75,0,0,1,4.67,1H25.33a1.75,1.75,0,0,1,1.83,1.66V27Z"/>
    <path d="M12.24,16a.53.53,0,0,0,.55-.5V13a.56.56,0,0,0-1.11,0v2.5A.53.53,0,0,0,12.24,16Z"/>
    <path d="M24.7,1.5H5.3A1.83,1.83,0,0,0,3.39,3.23V26.5H26.61V3.23A1.83,1.83,0,0,0,24.7,1.5Zm-10.25,24H4.5V3.23a.77.77,0,0,1,.8-.73h9.15Zm11.06,0h-10V2.5H24.7a.77.77,0,0,1,.8.73Z"/>
    <path d="M17.76,12.5a.53.53,0,0,0-.55.5v2.5a.56.56,0,0,0,1.11,0V13A.53.53,0,0,0,17.76,12.5Z"/>
  </g>
</svg>
