<svg id="Слой_1" data-name="Слой 1" xmlns="http://www.w3.org/2000/svg" viewBox="0 0 30 30">
  <title>Icons</title>
  <g id="Carpet_icon">
    <path d="M5.41,26.36c-.32,0-.58-.18-.58-.4V4c0-.22.26-.4.58-.4H24.59c.32,0,.58.18.58.4V26c0,.22-.26.4-.58.4Zm13.71-4.79a.73.73,0,0,1,.43.13l2.74,2a.31.31,0,0,1,0,.54l-1.82,1.32H24V16l-1.73,1.26a.77.77,0,0,1-.85,0l-2.74-2a.31.31,0,0,1,0-.54l2.74-2a.78.78,0,0,1,.85,0L24,14V4.43H20.46l1.82,1.32a.31.31,0,0,1,0,.54l-2.74,2a.74.74,0,0,1-.43.13.73.73,0,0,1-.43-.13l-2.74-2a.31.31,0,0,1,0-.54l1.82-1.32H12.24l1.82,1.32a.31.31,0,0,1,0,.54l-2.74,2a.73.73,0,0,1-.43.13.74.74,0,0,1-.43-.13l-2.74-2a.31.31,0,0,1,0-.54L9.54,4.43H6V14l1.73-1.26a.78.78,0,0,1,.85,0l2.74,2a.31.31,0,0,1,0,.54l-2.74,2a.74.74,0,0,1-.43.13.73.73,0,0,1-.43-.13L6,16v9.56H9.54L7.72,24.24a.31.31,0,0,1,0-.54l2.74-2a.77.77,0,0,1,.85,0l2.74,2a.31.31,0,0,1,0,.54l-1.82,1.32h5.53l-1.82-1.32a.31.31,0,0,1,0-.54l2.74-2A.73.73,0,0,1,19.11,21.58ZM17.17,24l1.94,1.41L21.05,24l-1.94-1.41ZM8.95,24l1.94,1.41L12.83,24l-1.94-1.41Zm11-9,1.94,1.41L23.79,15l-1.94-1.41ZM6.21,15l1.94,1.41L10.09,15,8.15,13.59Zm11-9,1.94,1.41L21.05,6,19.11,4.62ZM8.95,6l1.94,1.41L12.83,6,10.89,4.62Z"/>
    <path d="M27.34,29.85c-.32,0-.59-.18-.59-.4v-1.1H25.18v1.1c0,.22-.27.4-.58.4s-.59-.18-.59-.4v-1.1H22.44v1.1c0,.22-.27.4-.58.4s-.59-.18-.59-.4v-1.1H19.7v1.1c0,.22-.27.4-.58.4s-.59-.18-.59-.4v-1.1H17v1.1c0,.22-.27.4-.58.4s-.59-.18-.59-.4v-1.1H14.21v1.1c0,.22-.27.4-.58.4s-.59-.18-.59-.4v-1.1H11.47v1.1c0,.22-.27.4-.59.4s-.58-.18-.58-.4v-1.1H8.73v1.1c0,.22-.27.4-.59.4s-.58-.18-.58-.4v-1.1H6v1.1c0,.22-.27.4-.59.4s-.58-.18-.58-.4v-1.1H3.25v1.1c0,.22-.27.4-.59.4s-.58-.18-.58-.4V.55c0-.22.26-.4.58-.4s.59.18.59.4v1.1H4.82V.55c0-.22.26-.4.58-.4S6,.33,6,.55v1.1H7.56V.55c0-.22.26-.4.58-.4s.59.18.59.4v1.1H10.3V.55c0-.22.26-.4.58-.4s.59.18.59.4v1.1H13V.55c0-.22.26-.4.59-.4s.58.18.58.4v1.1h1.57V.55c0-.22.26-.4.59-.4s.58.18.58.4v1.1h1.57V.55c0-.22.26-.4.59-.4s.58.18.58.4v1.1h1.57V.55c0-.22.26-.4.59-.4s.58.18.58.4v1.1H24V.55c0-.22.26-.4.59-.4s.58.18.58.4v1.1h1.57V.55c0-.22.26-.4.59-.4s.58.18.58.4V29.45C27.92,29.67,27.65,29.85,27.34,29.85ZM3.25,27.56h23.5V2.44H3.25Z"/>
    <path d="M15,12.41a.74.74,0,0,1-.43-.13l-2.74-2a.31.31,0,0,1,0-.54l2.74-2a.78.78,0,0,1,.85,0l2.74,2a.31.31,0,0,1,0,.54l-2.74,2A.73.73,0,0,1,15,12.41ZM13.06,10,15,11.43,16.94,10,15,8.6Z"/>
    <path d="M15,22.38a.73.73,0,0,1-.43-.13l-2.74-2a.31.31,0,0,1,0-.54l2.74-2a.78.78,0,0,1,.85,0l2.74,2a.31.31,0,0,1,0,.54l-2.74,2A.73.73,0,0,1,15,22.38ZM13.06,20,15,21.4,16.94,20,15,18.57Z"/>
  </g>
</svg>
