<svg id="Слой_1" data-name="Слой 1" xmlns="http://www.w3.org/2000/svg" viewBox="0 0 24 24">
  <title>Icons_2</title>
  <path d="M24,11.56h0L20.5,3h1.57a.51.51,0,0,0,0-1h-9.6V.51a.51.51,0,1,0-1,0V2H1.85a.51.51,0,0,0,0,1H3.49L0,11.56a.51.51,0,0,0,0,.19,4.24,4.24,0,0,0,8.48,0,.51.51,0,0,0,0-.19L5,3h6.45V18.77C9,19,7.11,20.43,7.11,22.22a.51.51,0,0,0,.51.51h8.67a.51.51,0,0,0,.51-.51c0-1.79-1.9-3.27-4.34-3.45V3H19l-3.42,8.57a.51.51,0,0,0,0,.19,4.24,4.24,0,0,0,8.48,0A.51.51,0,0,0,24,11.56ZM4.24,15a3.22,3.22,0,0,1-3.18-2.71H7.4A3.22,3.22,0,0,1,4.24,15Zm3-3.73H1.28l3-7.4Zm8.48,10.46H8.22c.38-1.1,1.93-1.94,3.73-1.94S15.31,20.61,15.69,21.71Zm4-17.85,3,7.4H16.76Zm0,11.13h0a3.22,3.22,0,0,1-3.16-2.71h6.34A3.22,3.22,0,0,1,19.74,15Z"/>
</svg>
