<?xml version="1.0" encoding="utf-8"?>
<!-- Generator: Adobe Illustrator 21.1.0, SVG Export Plug-In . SVG Version: 6.00 Build 0)  -->
<svg version="1.1" id="Capa_1" xmlns="http://www.w3.org/2000/svg" xmlns:xlink="http://www.w3.org/1999/xlink" x="0px" y="0px"
	 viewBox="0 0 487.2 487.2" style="enable-background:new 0 0 487.2 487.2;" xml:space="preserve">
<path d="M398.3,319.1c-11.9,0-23.2,4.7-31.7,13.1c-8.5,8.5-13.3,19.6-13.3,31.5s4.7,23,13.3,31.5c8.6,8.4,19.8,13.1,31.7,13.1
	c24.4,0,44.2-20,44.2-44.6S422.7,319.1,398.3,319.1z M398.3,388.5c-13.7,0-25.2-11.3-25.2-24.8s11.5-24.8,25.2-24.8
	c13.5,0,24.4,11.1,24.4,24.8S411.8,388.5,398.3,388.5z M409.8,170.4c-1.8-1.7-4.2-2.6-6.6-2.6h-50.9c-5.5,0-9.9,4.5-9.9,9.9v81.4
	c0,5.5,4.5,9.9,9.9,9.9h80.8c5.5,0,9.9-4.5,9.9-9.9v-54.5c0-2.8-1.2-5.5-3.3-7.3L409.8,170.4z M423.1,249.1h-60.9v-61.6h37.1
	l23.8,21.4V249.1z M156.1,319.1c-11.9,0-23.2,4.7-31.7,13.1c-8.5,8.5-13.3,19.6-13.3,31.5s4.7,23,13.3,31.5
	c8.6,8.4,19.8,13.1,31.7,13.1c24.4,0,44.2-20,44.2-44.6S180.5,319.1,156.1,319.1z M156.1,388.5c-13.7,0-25.2-11.3-25.2-24.8
	s11.5-24.8,25.2-24.8c13.5,0,24.4,11.1,24.4,24.8S169.6,388.5,156.1,388.5z M89.9,331.3H69.9v-26.4c0-5.5-4.5-9.9-9.9-9.9
	s-9.9,4.5-9.9,9.9v36.3c0,5.5,4.5,9.9,9.9,9.9h29.9c5.5,0,9.9-4.5,9.9-9.9S95.3,331.3,89.9,331.3z M140.2,277.2
	c0-5.5-4.5-9.9-9.9-9.9H9.9c-5.5,0-9.9,4.5-9.9,9.9c0,5.5,4.5,9.9,9.9,9.9h120.3C135.7,287.1,140.2,282.8,140.2,277.2z M30.1,241.4
	l120.3,0.7c5.5,0,9.9-4.4,10-9.8c0.1-5.6-4.4-10-9.8-10l-120.3-0.7c-0.1,0-0.1,0-0.1,0c-5.5,0-9.9,4.4-9.9,9.8
	C20.1,236.9,24.6,241.4,30.1,241.4z M50.3,196.4h120.3c5.5,0,9.9-4.5,9.9-9.9s-4.5-9.9-9.9-9.9H50.3c-5.5,0-9.9,4.5-9.9,9.9
	S44.8,196.4,50.3,196.4z M483.6,183L483.6,183l-71-58.8c-1.8-1.5-4-2.3-6.3-2.3h-83.5V86.1c0-5.5-4.5-9.9-9.9-9.9H60
	c-5.5,0-9.9,4.5-9.9,9.9v72.6c0,5.5,4.5,9.9,9.9,9.9s9.9-4.5,9.9-9.9V96.1h232.9v235.2h-81.4c-5.5,0-9.9,4.5-9.9,9.9
	s4.5,9.9,9.9,9.9h121.1c5.5,0,9.9-4.5,9.9-9.9s-4.5-9.9-9.9-9.9h-19.9V141.7h80l64.7,53.6l-0.7,135.8h-10.3c-5.5,0-9.9,4.5-9.9,9.9
	c0,5.5,4.5,9.9,9.9,9.9h20.1c5.5,0,9.9-4.4,9.9-9.8l0.8-150.4C487.1,187.7,485.8,184.8,483.6,183z"/>
</svg>
