<svg id="Слой_1" data-name="Слой 1" xmlns="http://www.w3.org/2000/svg" viewBox="0 0 30 30">
  <title>Icons</title>
  <g id="Mattress_icon">
    <g>
      <path d="M7.55,21.75a.57.57,0,0,1-.39.16.54.54,0,0,1-.38-.16l-.22-.23-.23.23a.53.53,0,0,1-.75,0,.53.53,0,0,1,0-.75l.22-.23-.22-.22a.54.54,0,0,1,0-.76.55.55,0,0,1,.75,0l.23.23.22-.23a.53.53,0,0,1,.38-.15.56.56,0,0,1,.39.15.55.55,0,0,1,.15.38.56.56,0,0,1-.15.39l-.23.22.23.23A.53.53,0,0,1,7.55,21.75Z"/>
      <path d="M16.14,14.13a.54.54,0,0,1-.54.54.53.53,0,0,1-.38-.16L15,14.27l-.23.23a.53.53,0,0,1-.38.16A.54.54,0,0,1,14,14.5a.53.53,0,0,1,0-.75l.23-.23L14,13.3a.55.55,0,0,1,0-.76.53.53,0,0,1,.38-.15.52.52,0,0,1,.38.15l.23.23.23-.23a.52.52,0,0,1,.38-.15.53.53,0,0,1,.38.15.55.55,0,0,1,0,.76l-.23.22.23.23A.53.53,0,0,1,16.14,14.13Z"/>
      <path d="M28.33,0H20.87a1.91,1.91,0,0,0-1.09.38A1.67,1.67,0,0,0,18.73,0H11.27a1.92,1.92,0,0,0-1.1.38,1.66,1.66,0,0,0-1-.38H1.67A1.67,1.67,0,0,0,0,1.67V28.33A1.67,1.67,0,0,0,1.67,30H9.13a1.91,1.91,0,0,0,1.09-.38,1.67,1.67,0,0,0,1.05.38h7.45a1.92,1.92,0,0,0,1.1-.38,1.66,1.66,0,0,0,1,.38h7.46A1.67,1.67,0,0,0,30,28.33V1.67A1.67,1.67,0,0,0,28.33,0Zm.6,28.33a.6.6,0,0,1-.6.6H20.87a.59.59,0,0,1-.38-.14,1.08,1.08,0,0,0-.69-.25,1.13,1.13,0,0,0-.72.26.55.55,0,0,1-.37.13H11.27a.55.55,0,0,1-.38-.14,1.13,1.13,0,0,0-.71-.25,1.08,1.08,0,0,0-.69.25.59.59,0,0,1-.38.14H1.67a.6.6,0,0,1-.6-.6V27.22a.59.59,0,0,1,.6-.59H9.13a.58.58,0,0,1,.38.13,1,1,0,0,0,.69.26,1.13,1.13,0,0,0,.72-.26.5.5,0,0,1,.37-.13h7.45a.55.55,0,0,1,.38.13,1.08,1.08,0,0,0,.71.26,1,1,0,0,0,.69-.26.58.58,0,0,1,.38-.13h7.46a.59.59,0,0,1,.6.59Zm0-2.66a1.52,1.52,0,0,0-.6-.12H20.87a1.91,1.91,0,0,0-1.09.38,1.73,1.73,0,0,0-1.05-.38H11.27a1.93,1.93,0,0,0-1.1.39,1.61,1.61,0,0,0-1-.39H1.67a1.52,1.52,0,0,0-.6.12v-24a.6.6,0,0,1,.6-.6H9.13a.59.59,0,0,1,.38.14,1.08,1.08,0,0,0,.69.25,1.13,1.13,0,0,0,.72-.26.55.55,0,0,1,.37-.13h7.45a.55.55,0,0,1,.38.14,1.13,1.13,0,0,0,.71.25,1.08,1.08,0,0,0,.69-.25.59.59,0,0,1,.38-.14h7.46a.6.6,0,0,1,.6.6Z"/>
      <path d="M7.55,6.53a.53.53,0,0,1,0,.75.57.57,0,0,1-.39.16.54.54,0,0,1-.38-.16l-.22-.23-.23.23a.53.53,0,0,1-.75,0,.53.53,0,0,1,0-.75L5.8,6.3l-.22-.22a.55.55,0,0,1,0-.76.55.55,0,0,1,.75,0l.23.23.22-.23a.53.53,0,0,1,.38-.15.56.56,0,0,1,.39.15.55.55,0,0,1,0,.76l-.23.22Z"/>
      <path d="M7.55,13.75a.53.53,0,0,1,0,.75.57.57,0,0,1-.39.16.54.54,0,0,1-.38-.16l-.22-.23-.23.23a.53.53,0,0,1-.75,0,.53.53,0,0,1,0-.75l.22-.23-.22-.22a.55.55,0,0,1,0-.76.55.55,0,0,1,.75,0l.23.23.22-.23a.53.53,0,0,1,.38-.15.56.56,0,0,1,.39.15.55.55,0,0,1,0,.76l-.23.22Z"/>
      <path d="M16,6.53a.53.53,0,0,1,.16.38.54.54,0,0,1-.54.54.53.53,0,0,1-.38-.16L15,7.05l-.23.23a.53.53,0,0,1-.38.16A.54.54,0,0,1,14,7.28a.53.53,0,0,1,0-.75l.23-.23L14,6.08a.55.55,0,0,1,0-.76.53.53,0,0,1,.38-.15.52.52,0,0,1,.38.15l.23.23.23-.23a.52.52,0,0,1,.38-.15.53.53,0,0,1,.38.15.54.54,0,0,1,.16.38.57.57,0,0,1-.16.39l-.23.22Z"/>
      <path d="M24.42,13.75a.53.53,0,0,1,0,.75.53.53,0,0,1-.75,0l-.23-.23-.22.23a.54.54,0,0,1-.38.16.53.53,0,0,1-.38-.16.5.5,0,0,1-.16-.38.49.49,0,0,1,.16-.38l.22-.23-.22-.22a.52.52,0,0,1-.16-.38.51.51,0,0,1,.16-.39.52.52,0,0,1,.38-.15.53.53,0,0,1,.38.15l.22.23.23-.23a.55.55,0,0,1,.75,0,.55.55,0,0,1,0,.76l-.22.22Z"/>
      <path d="M24.42,21a.53.53,0,0,1,0,.75.53.53,0,0,1-.75,0l-.23-.23-.22.23a.54.54,0,0,1-.38.16.57.57,0,0,1-.39-.16.52.52,0,0,1,0-.75l.22-.23-.22-.22a.52.52,0,0,1-.16-.38.52.52,0,0,1,.16-.39.52.52,0,0,1,.38-.15.53.53,0,0,1,.38.15l.22.23.23-.23a.55.55,0,0,1,.75,0,.54.54,0,0,1,0,.76l-.22.22Z"/>
      <path d="M16,21a.53.53,0,0,1,.16.38.54.54,0,0,1-.54.54.53.53,0,0,1-.38-.16L15,21.52l-.23.23a.53.53,0,0,1-.38.16.54.54,0,0,1-.38-.16A.53.53,0,0,1,14,21l.23-.23L14,20.54a.54.54,0,0,1,0-.76.53.53,0,0,1,.38-.15.52.52,0,0,1,.38.15L15,20l.23-.23a.52.52,0,0,1,.38-.15.53.53,0,0,1,.38.15.54.54,0,0,1,0,.76l-.23.22Z"/>
      <path d="M24.42,6.53a.53.53,0,0,1,0,.75.53.53,0,0,1-.75,0l-.23-.23-.22.23a.54.54,0,0,1-.38.16.57.57,0,0,1-.39-.16.53.53,0,0,1-.15-.38.49.49,0,0,1,.16-.38l.22-.23-.22-.22a.52.52,0,0,1-.16-.39.5.5,0,0,1,.16-.38.52.52,0,0,1,.38-.15.53.53,0,0,1,.38.15l.22.23.23-.23a.55.55,0,0,1,.75,0,.55.55,0,0,1,0,.76l-.22.22Z"/>
    </g>
  </g>
</svg>
