<svg id="Слой_1" data-name="Слой 1" xmlns="http://www.w3.org/2000/svg" viewBox="0 0 30 30">
  <title>Icons</title>
  <g id="Pillows_icon">
    <path d="M29,24.28a23.56,23.56,0,0,0,0-13.15,1.51,1.51,0,0,1,.39-1.49,2,2,0,0,0,0-2.86,2,2,0,0,0-2.86,0,1.54,1.54,0,0,1-1.49.38,24.75,24.75,0,0,0-2.8-.62c-.06-.28-.14-.54-.21-.82a1.49,1.49,0,0,1,.39-1.48,2,2,0,0,0,0-2.86,2,2,0,0,0-2.86,0,1.54,1.54,0,0,1-1.49.38,23.79,23.79,0,0,0-13.15,0,1.54,1.54,0,0,1-1.49-.38,2,2,0,0,0-2.86,0,2,2,0,0,0,0,2.86A1.49,1.49,0,0,1,1,5.72,23.56,23.56,0,0,0,1,18.87a1.51,1.51,0,0,1-.39,1.49,2,2,0,0,0,0,2.86,2,2,0,0,0,2.86,0,1.54,1.54,0,0,1,1.49-.38,24.73,24.73,0,0,0,2.8.62c.06.28.14.54.21.82a1.49,1.49,0,0,1-.39,1.48,2,2,0,0,0,0,2.86,2,2,0,0,0,2.86,0,1.54,1.54,0,0,1,1.49-.38,23.79,23.79,0,0,0,13.15,0,1.54,1.54,0,0,1,1.49.38,2,2,0,0,0,2.86-2.86A1.49,1.49,0,0,1,29,24.28ZM8,11.13A23.52,23.52,0,0,0,7.42,22a21.4,21.4,0,0,1-2.12-.49,2.81,2.81,0,0,0-2.8.73.69.69,0,0,1-1,0,.68.68,0,0,1,0-1,2.89,2.89,0,0,0,.73-2.81,22.32,22.32,0,0,1,0-12.41,2.89,2.89,0,0,0-.73-2.81.68.68,0,0,1,1-1,2.84,2.84,0,0,0,2.8.73,22.36,22.36,0,0,1,12.42,0,2.84,2.84,0,0,0,2.8-.73.69.69,0,0,1,1,0,.68.68,0,0,1,0,1,2.89,2.89,0,0,0-.73,2.81l.08.25a23.79,23.79,0,0,0-8.91.81,1.54,1.54,0,0,1-1.49-.38,2,2,0,0,0-2.86,0,2,2,0,0,0,0,2.86A1.51,1.51,0,0,1,8,11.13Zm19.77.37a22.32,22.32,0,0,1,0,12.41,2.89,2.89,0,0,0,.73,2.81.68.68,0,0,1,0,1,.69.69,0,0,1-1,0,2.87,2.87,0,0,0-2-.84,2.73,2.73,0,0,0-.78.11,22.36,22.36,0,0,1-12.42,0,2.84,2.84,0,0,0-2.8.73.69.69,0,0,1-1,0,.68.68,0,0,1,0-1,2.89,2.89,0,0,0,.73-2.81l-.08-.25c-.13-.47-.24-.93-.33-1.4a22.22,22.22,0,0,1,.4-10.76,2.89,2.89,0,0,0-.73-2.81.68.68,0,0,1,0-1,.7.7,0,0,1,1,0,2.81,2.81,0,0,0,2.8.73,22.36,22.36,0,0,1,8.88-.71c.48.05,1,.13,1.42.21a21.38,21.38,0,0,1,2.12.49,2.81,2.81,0,0,0,2.8-.73.69.69,0,0,1,1,0,.68.68,0,0,1,0,1A2.89,2.89,0,0,0,27.72,11.49Z"/>
  </g>
</svg>
