<svg id="Слой_1" data-name="Слой 1" xmlns="http://www.w3.org/2000/svg" viewBox="0 0 30 30">
  <title>Icons</title>
  <g id="Sale_icon">
    <g>
      <path d="M29.47,11.85a.63.63,0,0,0,.63-.62v-5a2.52,2.52,0,0,0-2.52-2.51H2.42A2.52,2.52,0,0,0-.1,6.19v5a.63.63,0,0,0,.63.62,3.15,3.15,0,0,1,0,6.3.63.63,0,0,0-.63.62v5a2.52,2.52,0,0,0,2.52,2.51H27.58a2.52,2.52,0,0,0,2.52-2.51v-5a.63.63,0,0,0-.63-.62,3.15,3.15,0,0,1,0-6.3Zm-.63,7.51v4.46a1.26,1.26,0,0,1-1.26,1.25H2.42a1.26,1.26,0,0,1-1.26-1.25V19.36a4.4,4.4,0,0,0,0-8.71V6.19A1.26,1.26,0,0,1,2.42,4.94H27.58a1.26,1.26,0,0,1,1.26,1.25v4.46a4.4,4.4,0,0,0,0,8.71Z"/>
      <path d="M8.08,6a.63.63,0,0,0-.63.63V8.08a.63.63,0,1,0,1.26,0V6.66A.63.63,0,0,0,8.08,6Z"/>
      <path d="M8.08,11.23a.63.63,0,0,0-.63.63v1.26a.63.63,0,0,0,1.26,0V11.85A.63.63,0,0,0,8.08,11.23Z"/>
      <path d="M8.08,16.26a.63.63,0,0,0-.63.63v1.26a.63.63,0,0,0,1.26,0V16.89A.63.63,0,0,0,8.08,16.26Z"/>
      <path d="M8.08,21.29a.63.63,0,0,0-.63.63v1.26a.63.63,0,0,0,1.26,0V21.92A.63.63,0,0,0,8.08,21.29Z"/>
      <path d="M21,8.81a.63.63,0,0,0-.87.17L12.59,20.31a.63.63,0,1,0,1,.7L21.19,9.69A.63.63,0,0,0,21,8.81Z"/>
      <path d="M13.74,8.71c-1.38,0-2.51,1.41-2.51,3.14S12.36,15,13.74,15s2.52-1.41,2.52-3.15S15.14,8.71,13.74,8.71Zm0,5c-.68,0-1.26-.87-1.26-1.89S13.06,10,13.74,10,15,10.84,15,11.85,14.43,13.74,13.74,13.74Z"/>
      <path d="M20,15c-1.38,0-2.51,1.41-2.51,3.15s1.13,3.14,2.51,3.14,2.52-1.41,2.52-3.14S21.43,15,20,15Zm0,5c-.68,0-1.26-.87-1.26-1.88s.59-1.89,1.26-1.89,1.26.87,1.26,1.89S20.72,20,20,20Z"/>
    </g>
  </g>
</svg>
