<?xml version="1.0" encoding="utf-8"?>
<!-- Generator: Adobe Illustrator 19.2.1, SVG Export Plug-In . SVG Version: 6.00 Build 0)  -->
<svg version="1.1" id="Слой_1" xmlns="http://www.w3.org/2000/svg" xmlns:xlink="http://www.w3.org/1999/xlink" x="0px" y="0px"
	 viewBox="0 0 24 24" style="enable-background:new 0 0 24 24;" xml:space="preserve">
<style type="text/css">
	.st0{fill:#4DA2C1;}
</style>
<title>Icons_2</title>
<path d="M21.6,20.7L20.2,5.3c0-0.3-0.3-0.6-0.6-0.6h-2.8C16.7,2.1,14.6,0,12,0S7.3,2.1,7.3,4.7H4.5C4.1,4.7,3.9,5,3.8,5.3L2.4,20.7
	c0,0,0,0,0,0.1C2.6,22.6,4.1,24,6,24h12C19.9,24.1,21.5,22.6,21.6,20.7L21.6,20.7z M12,1.4c1.9,0,3.4,1.5,3.4,3.3H8.6
	C8.6,2.8,10.1,1.4,12,1.4z M18,22.6H6c-1.1,0.1-2.1-0.7-2.2-1.8L5.1,6h2.2v2c0,0.4,0.3,0.7,0.7,0.7S8.7,8.4,8.7,8V6h6.8v2
	c0,0.4,0.3,0.7,0.7,0.7c0.4,0,0.7-0.3,0.7-0.7l0,0V6h2.2l1.3,14.8C20.1,21.9,19.1,22.7,18,22.6z M18.1,9.8 M16.7,7.8v2 M9.9,9.8"/>
<path class="st0" d="M18,22.6H6c-1.1,0.1-2.1-0.7-2.2-1.8L5.1,6h2.2v2c0,0.4,0.3,0.7,0.7,0.7S8.7,8.4,8.7,8V6h6.8v2
	c0,0.4,0.3,0.7,0.7,0.7c0.4,0,0.7-0.3,0.7-0.7l0,0V6h2.2l1.3,14.8C20.1,21.9,19.1,22.7,18,22.6z"/>
</svg>
