<svg id="Слой_1" data-name="Слой 1" xmlns="http://www.w3.org/2000/svg" viewBox="0 0 24 24">
  <title>Icons_2</title>
  <path d="M21.56,20.71,20.19,5.3a.66.66,0,0,0-.65-.6H16.72a4.72,4.72,0,0,0-9.44,0H4.47a.66.66,0,0,0-.65.6L2.44,20.71s0,0,0,.06A3.4,3.4,0,0,0,6,23.95H18a3.4,3.4,0,0,0,3.59-3.18A.24.24,0,0,0,21.56,20.71ZM12,1.37A3.4,3.4,0,0,1,15.4,4.7H8.6A3.4,3.4,0,0,1,12,1.37Zm6,21.26H6A2.11,2.11,0,0,1,3.76,20.8L5.07,6H7.27V8A.66.66,0,1,0,8.59,8V6H15.4V8a.66.66,0,1,0,1.32,0V6h2.21L20.24,20.8A2.11,2.11,0,0,1,18,22.63Z"/>
</svg>
