<?xml version="1.0" encoding="utf-8"?>
<!-- Generator: Adobe Illustrator 19.2.1, SVG Export Plug-In . SVG Version: 6.00 Build 0)  -->
<svg version="1.1" xmlns="http://www.w3.org/2000/svg" xmlns:xlink="http://www.w3.org/1999/xlink" x="0px" y="0px"
	 viewBox="0 0 24 24" style="enable-background:new 0 0 24 24;" xml:space="preserve">
<style type="text/css">
	.st0{fill:none;stroke:#000000;stroke-miterlimit:10;}
</style>
<g id="Слой_1">
	<title>Icons_2</title>
</g>
<g id="Слой_2">
	<g>
		<path d="M21.6,20.7L20.2,5.3c0-0.3-0.3-0.6-0.6-0.6h-2.8C16.7,2.1,14.6,0,12,0C9.4,0,7.3,2.1,7.3,4.7H4.5C4.1,4.7,3.9,5,3.8,5.3
			L2.4,20.7c0,0,0,0,0,0.1C2.6,22.6,4.2,24,6,24h12C19.9,24.1,21.5,22.6,21.6,20.7C21.6,20.7,21.6,20.7,21.6,20.7z M12,1.4
			c1.9,0,3.4,1.5,3.4,3.3H8.6C8.6,2.8,10.2,1.4,12,1.4z M18,22.6H6c-1.1,0.1-2.1-0.7-2.2-1.8L5.1,6h2.2v2c0,0.4,0.3,0.7,0.7,0.7
			c0.4,0,0.7-0.3,0.7-0.7V6h6.8v2c0,0.4,0.3,0.7,0.7,0.7s0.7-0.3,0.7-0.7c0,0,0,0,0,0V6h2.2l1.3,14.8C20.1,21.9,19.1,22.7,18,22.6z"
			/>
		<path class="st0" d="M4.9,5.4h14.2c0,0,0.2,0,0.3,0.1c0.1,0.1,0.1,0.3,0.1,0.3c0,0.2,0.9,10,1.4,15l0,0.3l0,0.2l-0.1,0.2l-0.1,0.2
			l-0.1,0.3l-0.1,0.2l-0.2,0.2L20,22.6l-0.2,0.2l-0.2,0.1L19.4,23l-0.3,0.1l-0.3,0.1l-0.3,0.1h-13l-0.2-0.1L5,23.2l-0.2-0.1L4.6,23
			l-0.2-0.1l-0.1-0.1l-0.2-0.2l-0.2-0.2l-0.1-0.1l-0.1-0.1l-0.1-0.1l-0.1-0.1L3.5,22l-0.1-0.2l-0.1-0.2l-0.1-0.1l0-0.1l0-0.1l0-0.2
			l0-0.2l0-0.4L4.4,5.9l0-0.1c0,0,0-0.3,0.1-0.4C4.6,5.4,4.9,5.4,4.9,5.4z"/>
	</g>
</g>
</svg>
