<svg id="Layer_1" data-name="Layer 1" xmlns="http://www.w3.org/2000/svg" viewBox="0 0 512 488.86">
  <title>star</title>
  <path d="M511.3,196.31a14.28,14.28,0,0,0-11.45-9.67l-159.73-22.7L268.23,19.45a14.24,14.24,0,0,0-12.72-7.88h0a14.15,14.15,0,0,0-12.72,8L171.87,164.47,12.14,188.22A14.28,14.28,0,0,0,.69,197.89a14,14,0,0,0,3.68,14.5L120.27,324.73l-26.8,159.1a14.26,14.26,0,0,0,14,16.6,13.49,13.49,0,0,0,6.62-1.68l142.6-75.56,143,74.72a14.51,14.51,0,0,0,6.52,1.58h0A14.26,14.26,0,0,0,420.4,485.3,11.09,11.09,0,0,0,420,482L392.34,323.89l115.17-113A13.89,13.89,0,0,0,511.3,196.31Zm-144,112.55a14,14,0,0,0-4,12.61l24.06,138L263.19,394.61a14.37,14.37,0,0,0-13.24,0L126.16,460.18,149.38,322a14.17,14.17,0,0,0-4.1-12.51L44.82,212l138.61-20.6A14.08,14.08,0,0,0,194,183.6L255.62,57.81,318,183.28a14.44,14.44,0,0,0,10.72,7.78l138.71,19.76Z" transform="translate(0 -11.57)"/>
</svg>
