<svg id="Слой_1" data-name="Слой 1" xmlns="http://www.w3.org/2000/svg" viewBox="0 0 30 30">
  <title>Icons</title>
  <g id="Tumba_icon">
    <path d="M28.41,2.09H1.59a1.49,1.49,0,1,0,0,3V24.44a.5.5,0,0,0,.5.49H3.58v2.48a.49.49,0,0,0,.49.49H5.56A.48.48,0,0,0,6,27.63l1.35-2.7H22.64L24,27.63a.48.48,0,0,0,.45.27h1.49a.49.49,0,0,0,.49-.49V24.93h1.49a.5.5,0,0,0,.5-.49V5.07a1.49,1.49,0,1,0,0-3ZM5.25,26.92H4.57v-2H6.25Zm20.18,0h-.69l-1-2h1.68Zm2-3H2.59V15H27.41Zm0-9.93H2.59V5.07H27.41Zm1-9.93H1.59a.49.49,0,0,1-.49-.49.5.5,0,0,1,.49-.5H28.41a.5.5,0,0,1,.49.5A.49.49,0,0,1,28.41,4.08Z"/>
    <path d="M12,7.06h6a.5.5,0,0,0,0-1H12a.5.5,0,0,0,0,1Z"/>
    <path d="M12,17h6a.5.5,0,0,0,0-1H12a.5.5,0,0,0,0,1Z"/>
  </g>
</svg>
