<svg id="Слой_1" data-name="Слой 1" xmlns="http://www.w3.org/2000/svg" viewBox="0 0 24 24">
  <title>Icons_2</title>
  <path d="M22.18,19v-.14c0-1-.1-3.28-2.25-4l0,0a17.59,17.59,0,0,1-5-2.81,4.05,4.05,0,0,0,.73-.65c1.91-2.15,1.59-5.84,1.56-6.2A5.07,5.07,0,0,0,14.72.73,5.44,5.44,0,0,0,12,0H12A5.54,5.54,0,0,0,9.3.71,5.07,5.07,0,0,0,6.86,5.22c0,.36-.35,4,1.56,6.2a4,4,0,0,0,.72.65,16.78,16.78,0,0,1-5,2.81h0c-2.15.74-2.22,3-2.25,4V19a7.51,7.51,0,0,0,.25,2.25.61.61,0,0,0,.26.31A18.74,18.74,0,0,0,12,24a18.78,18.78,0,0,0,9.68-2.37.66.66,0,0,0,.26-.31A8,8,0,0,0,22.18,19Zm-14-13.7v0C8.36,1.75,10.88,1.37,12,1.37H12c1.34,0,3.62.58,3.77,3.94a.06.06,0,0,0,0,0s.35,3.4-1.23,5.18A3.26,3.26,0,0,1,12,11.59H12a3.26,3.26,0,0,1-2.55-1.06C7.85,8.76,8.18,5.38,8.19,5.35ZM20.75,20.61a18.41,18.41,0,0,1-8.75,2,18.32,18.32,0,0,1-8.75-2,9.44,9.44,0,0,1-.1-1.53s0-.08,0-.12c0-1.14.16-2.37,1.31-2.78A19.2,19.2,0,0,0,10,13.1a.65.65,0,0,0,.28-.45,5,5,0,0,0,1.63.28h.16a5.09,5.09,0,0,0,1.65-.28.69.69,0,0,0,.28.46,19,19,0,0,0,5.53,3.06c1.15.41,1.28,1.65,1.31,2.78a.49.49,0,0,0,0,.12A10.87,10.87,0,0,1,20.75,20.61Z"/>
</svg>
