<?xml version="1.0" encoding="utf-8"?>
<!-- Generator: Adobe Illustrator 16.0.0, SVG Export Plug-In . SVG Version: 6.00 Build 0)  -->
<svg version="1.2" baseProfile="tiny" id="Layer_1" xmlns="http://www.w3.org/2000/svg" xmlns:xlink="http://www.w3.org/1999/xlink"
	 x="0px" y="0px" width="842.003px" height="842.003px" viewBox="0.006 -47.996 842.003 842.003" overflow="scroll"
	 xml:space="preserve">
<g>
	<path fill="#23346A" d="M221.528,408.31l3.089,108.801l66.479,1.545l0.102-20.543c20.447,20.645,44.596,26.814,80.865,25.787
		c77.367-0.836,128.329-39.264,127.411-96.082c1.319-25.372-11.829-54.451-39.575-66.682
		c-26.501-17.053-50.648-23.223-84.449-31.848c-30.216-2.572-57.956-14.795-60.315-25.685c1.225-4.83,9.761-18.08,39.962-15.516
		c31.44-2.259,66.376,22.086,65.043,47.465l67.718-3.292l-3.097-108.809l-61.642-0.306l1.122,15.72
		c-16.842-14.591-45.819-21.984-77.259-19.727c-102.755-0.51-128.332,39.256-126.174,91.253c-1.333,25.379,9.36,64.104,32.263,75.11
		c27.739,12.224,61.554,20.854,90.524,28.248c35.031,3.804,64.009,11.205,61.546,20.855c1.137,15.721-9.761,18.08-35.14,16.738
		c-30.202-2.563-76.035-24.547-91.653-43.961L221.528,408.31L221.528,408.31z M677.114,437.164
		c-51.989,2.164-57.847-35.345-57.635-76.443c-1.043-36.276,8.82-74.906,55.98-78.301c45.929,1.442,53.018,34.113,51.589,80.042
		C726.846,403.561,729.104,435,677.114,437.164L677.114,437.164z M677.938,514.531c91.856,2.879,167.163-70.49,163.979-158.757
		c0.401-82.198-75.416-147.846-167.273-150.716c-93.096,1.952-168.401,75.314-168.816,157.512
		C509.025,450.843,584.856,516.484,677.938,514.531L677.938,514.531z M160.397,305.256l41.099,0.204l-0.83-77.368L0,228.303
		l0.823,77.361l45.929,1.442L48.508,441.3l-47.16,3.387l2.055,72.539l200.673-0.219l-0.831-77.359l-41.099-0.205L160.397,305.256
		L160.397,305.256z"/>
	<polygon fill="#23346A" points="411.872,51.982 411.872,51.982 408.39,51.887 404.82,51.807 401.426,51.632 398.024,51.305 
		394.71,51.028 391.396,50.605 388.161,50.125 385.007,49.563 381.794,48.966 378.698,48.34 375.596,47.611 372.463,46.788 
		369.462,45.943 366.519,45.003 363.525,44.057 360.575,42.986 357.676,41.915 354.842,40.771 351.994,39.497 349.204,38.272 
		346.399,36.91 343.565,35.439 340.834,34.033 338.08,32.481 335.313,30.901 332.603,29.24 329.885,27.557 327.205,25.758 
		324.517,23.915 321.836,22.05 319.185,20.127 316.489,18.08 299.574,40.247 302.547,42.49 305.555,44.712 308.607,46.912 
		311.682,48.974 314.784,50.999 317.946,53.002 321.086,54.896 324.232,56.768 327.474,58.567 330.767,60.366 334.008,61.94 
		337.323,63.557 340.71,65.13 344.097,66.544 347.536,67.964 351.025,69.305 354.5,70.514 358.003,71.708 361.587,72.809 
		365.244,73.821 368.792,74.746 372.492,75.635 376.244,76.429 379.98,77.157 383.813,77.776 387.688,78.301 391.57,78.738 
		395.525,79.182 399.503,79.452 403.582,79.678 407.56,79.867 411.748,79.903 411.748,79.903 	"/>
	<polygon fill="#23346A" points="505.951,10.817 503.518,13.294 501.092,15.669 498.572,17.985 496.044,20.214 493.451,22.422 
		490.872,24.52 488.25,26.53 485.555,28.446 482.859,30.376 480.193,32.168 477.396,33.924 474.643,35.57 471.83,37.158 
		468.946,38.629 466.09,40.043 463.111,41.397 460.212,42.68 457.211,43.816 454.231,44.938 451.187,46.001 448.047,46.927 
		444.951,47.815 441.804,48.631 438.606,49.353 435.444,49.986 432.182,50.467 428.918,50.97 425.589,51.297 422.209,51.61 
		418.777,51.807 415.376,51.967 411.872,51.982 411.748,79.903 415.915,79.853 420.104,79.765 424.205,79.496 428.276,79.16 
		432.334,78.658 436.377,78.148 440.391,77.412 444.397,76.633 448.287,75.766 452.155,74.804 455.986,73.741 459.76,72.531 
		463.49,71.322 467.227,69.945 470.898,68.409 474.555,66.872 478.052,65.211 481.628,63.499 485.074,61.598 488.526,59.726 
		491.943,57.686 495.265,55.617 498.602,53.432 501.864,51.203 504.997,48.82 508.173,46.395 511.305,43.875 514.307,41.317 
		517.322,38.644 520.258,35.913 523.179,33.093 526.027,30.238 512.187,33.931 	"/>
	<polygon fill="#23346A" points="509.462,726.189 522.305,729.074 537.252,724.58 551.896,719.583 566.229,713.9 580.282,707.746 
		593.991,701.007 607.344,693.738 620.34,685.914 632.992,677.625 645.281,668.839 657.133,659.58 668.577,649.914 679.679,639.746 
		690.292,629.16 700.498,618.162 710.223,606.796 719.554,595.041 728.332,582.861 736.701,570.396 744.583,557.539 751.11,545.767 
		718.861,546.044 713.165,555.353 705.459,566.98 697.264,578.162 688.697,589.103 679.62,599.628 670.209,609.828 660.367,619.582 
		650.154,628.957 639.526,637.96 628.527,646.535 617.222,654.642 605.516,662.283 593.488,669.464 581.171,676.189 
		568.479,682.417 555.544,688.171 542.235,693.343 528.679,698.042 514.882,702.144 527.703,705.042 509.462,726.189 
		515.086,731.07 522.305,729.074 	"/>
	<polygon fill="#23346A" points="419.579,694.029 420.031,694.037 423.018,693.986 426.092,694.066 429.107,694.146 
		432.174,694.328 435.263,694.603 438.329,694.968 441.345,695.39 444.383,695.923 447.442,696.484 450.531,697.103 453.51,697.802 
		456.599,698.619 459.586,699.455 462.535,700.396 465.515,701.335 468.451,702.414 471.343,703.47 474.19,704.628 477.024,705.894 
		479.793,707.111 482.561,708.466 485.314,709.865 487.973,711.25 490.529,712.771 493.108,714.33 495.658,715.896 498.099,717.513 
		500.531,719.189 502.848,720.894 505.077,722.576 507.335,724.396 509.462,726.189 527.703,705.042 525.051,702.755 
		522.326,700.607 519.515,698.414 516.594,696.359 513.694,694.312 510.686,692.353 507.678,690.429 504.604,688.609 
		501.405,686.845 498.172,685.068 494.951,683.437 491.674,681.833 488.301,680.269 484.936,678.847 481.476,677.427 
		478.016,676.093 474.533,674.884 471.051,673.697 467.453,672.583 463.832,671.585 460.321,670.675 456.605,669.787 453,669.013 
		449.3,668.292 445.57,667.703 441.818,667.228 438.074,666.814 434.352,666.494 430.601,666.216 426.805,666.056 423.047,666.056 
		419.259,666.099 419.695,666.107 	"/>
	<polygon fill="#23346A" points="318.893,730.451 333.323,726.183 335.094,724.244 336.951,722.285 338.859,720.443 
		340.775,718.687 342.801,716.902 344.797,715.248 347.004,713.675 349.167,712.093 351.426,710.718 353.786,709.275 
		356.131,707.919 358.528,706.638 361.07,705.421 363.547,704.25 366.162,703.126 368.879,702.078 371.618,701.125 374.379,700.207 
		377.22,699.332 380.177,698.523 383.171,697.816 386.202,697.146 389.319,696.527 392.4,695.988 395.635,695.521 398.898,695.107 
		402.213,694.779 405.563,694.496 409.002,694.261 412.462,694.152 415.966,694.037 419.579,694.029 419.695,666.107 
		415.646,666.123 411.573,666.179 407.538,666.384 403.567,666.603 399.634,666.937 395.729,667.353 391.876,667.833 
		388.066,668.402 384.249,669.072 380.549,669.779 376.834,670.609 373.221,671.519 369.651,672.488 366.082,673.501 
		362.571,674.681 359.104,675.927 355.752,677.267 352.387,678.636 349.036,680.16 345.838,681.761 342.655,683.429 
		339.508,685.214 336.485,687.058 333.506,689.06 330.577,691.093 327.787,693.212 324.939,695.464 322.244,697.707 319.57,700.162 
		317.043,702.662 314.588,705.24 312.177,707.943 326.614,703.658 318.893,730.451 327.489,732.935 333.323,726.183 	"/>
	<polygon fill="#23346A" points="93.395,551.457 99.535,562.062 107.476,574.658 115.962,586.976 124.878,598.843 134.246,610.396 
		144.029,621.556 154.308,632.322 164.928,642.644 175.957,652.587 187.372,662.072 199.129,671.148 211.243,679.701 
		223.714,687.873 236.462,695.457 249.56,702.654 262.89,709.275 276.534,715.416 290.425,720.958 304.528,725.994 318.893,730.451 
		326.614,703.658 313.328,699.484 300.259,694.83 287.395,689.666 274.778,683.99 262.409,677.857 250.302,671.25 238.443,664.132 
		226.934,656.652 215.687,648.638 204.767,640.261 194.197,631.441 183.984,622.277 174.1,612.675 164.637,602.681 155.531,592.367 
		146.833,581.687 138.602,570.636 130.793,559.31 125.65,551.166 	"/>
	<polygon fill="#23346A" points="189.535,93.853 171.586,94.174 164.521,100.511 157.666,106.98 150.898,113.66 144.357,120.493 
		137.939,127.522 131.682,134.756 125.621,142.142 119.75,149.674 114.017,157.389 108.518,165.256 103.163,173.327 98.101,181.515 
		93.176,189.833 88.456,198.327 87.975,199.238 120.216,198.845 121.913,195.931 126.699,188.369 131.58,180.939 136.679,173.662 
		141.938,166.516 147.431,159.537 153.018,152.719 158.81,146.054 164.725,139.542 170.829,133.16 177.006,127.027 183.431,121.01 
		189.87,115.204 171.929,115.524 189.535,93.853 180.422,86.467 171.586,94.174 	"/>
	<polygon fill="#23346A" points="413.555,165.642 413.387,165.642 405.01,165.707 396.655,165.598 388.401,165.336 380.155,164.848 
		372.033,164.236 363.926,163.398 355.92,162.393 347.958,161.213 340.12,159.938 332.311,158.474 324.604,156.791 316.992,155.028 
		309.423,153.098 302.037,151.029 294.672,148.844 287.453,146.491 280.395,144.007 273.38,141.421 266.518,138.718 
		259.758,135.841 253.144,132.935 246.624,129.853 240.228,126.663 234.043,123.385 227.896,119.99 221.98,116.493 216.152,112.938 
		210.521,109.274 205.051,105.486 199.675,101.706 194.518,97.801 189.535,93.853 171.929,115.524 177.486,119.939 183.227,124.244 
		189.055,128.462 195.115,132.519 201.336,136.54 207.645,140.459 214.179,144.232 220.764,147.94 227.567,151.495 234.466,154.941 
		241.495,158.277 248.7,161.533 255.999,164.549 263.429,167.514 270.954,170.348 278.668,173.006 286.411,175.49 294.279,177.923 
		302.27,180.152 310.297,182.199 318.514,184.115 326.789,185.82 335.123,187.422 343.616,188.857 352.14,190.06 360.779,191.115 
		369.447,191.968 378.239,192.675 387.039,193.177 395.978,193.498 404.894,193.621 413.926,193.52 413.766,193.52 	"/>
	<polygon fill="#23346A" points="641.646,85.753 636.831,89.949 631.813,94.115 626.641,98.231 621.309,102.23 615.771,106.12 
		610.047,109.944 604.139,113.689 598.078,117.36 591.923,120.85 585.512,124.28 578.979,127.617 572.327,130.88 565.479,133.947 
		558.566,136.941 551.442,139.76 544.246,142.521 536.91,145.107 529.393,147.562 521.81,149.893 514.073,152.093 506.206,154.118 
		498.266,155.953 490.224,157.709 482.072,159.261 473.819,160.652 465.464,161.883 457.028,162.968 448.498,163.85 439.91,164.571 
		431.205,165.125 422.412,165.452 413.555,165.642 413.766,193.52 423.178,193.389 432.561,192.973 441.826,192.441 
		451.077,191.684 460.197,190.708 469.216,189.571 478.153,188.253 486.997,186.76 495.768,185.048 504.378,183.241 
		512.944,181.187 521.314,178.973 529.626,176.685 537.828,174.179 545.834,171.521 553.788,168.737 561.604,165.81 
		569.261,162.684 576.8,159.479 584.157,156.092 591.412,152.661 598.479,149.011 605.413,145.274 612.239,141.392 618.824,137.4 
		625.249,133.306 631.528,129.103 637.647,124.791 643.613,120.376 649.39,115.859 654.963,111.263 660.367,106.528 
		642.396,107.067 	"/>
	<polygon fill="#23346A" points="421.647,586.429 421.647,586.429 430.068,586.357 438.445,586.421 446.83,586.664 455.098,587.048 
		463.301,587.595 471.452,588.302 479.494,589.125 487.484,590.173 495.403,591.382 503.241,592.701 510.955,594.166 
		518.619,595.833 526.15,597.619 533.668,599.556 540.997,601.654 548.208,603.81 555.311,606.193 562.289,608.669 569.137,611.357 
		575.867,614.132 582.496,617.025 588.965,620.091 595.259,623.275 601.385,626.552 607.388,630.013 613.288,633.603 
		618.955,637.326 624.506,641.136 629.846,645.128 635.047,649.148 640.029,653.351 644.873,657.658 663.762,637.123 
		658.271,632.22 652.537,627.449 646.709,622.816 640.656,618.445 634.471,614.119 628.09,610.009 621.621,606.025 614.941,602.201 
		608.102,598.486 601.123,595.003 594.042,591.66 586.838,588.425 579.495,585.373 572.007,582.503 564.402,579.765 
		556.695,577.222 548.864,574.775 540.902,572.517 532.962,570.476 524.825,568.531 516.594,566.841 508.231,565.216 
		499.861,563.767 491.382,562.537 482.83,561.466 474.146,560.482 465.464,559.74 456.701,559.142 447.872,558.742 439.043,558.515 
		430.119,558.414 421.109,558.552 421.109,558.552 	"/>
	<polygon fill="#23346A" points="182.222,658.08 200.258,658.232 204.905,654.474 209.808,650.751 214.871,647.181 220.05,643.605 
		225.506,640.095 231.115,636.714 236.819,633.378 242.771,630.144 248.86,626.99 255.044,623.953 261.447,620.988 267.975,618.095 
		274.654,615.349 281.465,612.712 288.356,610.156 295.422,607.751 302.634,605.398 309.933,603.228 317.276,601.181 
		324.822,599.214 332.457,597.408 340.178,595.695 347.958,594.115 355.854,592.687 363.86,591.406 371.866,590.261 
		380.039,589.255 388.212,588.361 396.502,587.683 404.806,587.136 413.227,586.72 421.647,586.429 421.109,558.552 412.134,558.8 
		403.254,559.244 394.375,559.849 385.604,560.642 376.877,561.517 368.23,562.617 359.635,563.833 351.163,565.232 342.757,566.74 
		334.395,568.416 326.199,570.201 318.092,572.144 310.071,574.185 302.103,576.451 294.308,578.81 286.637,581.287 
		279.062,583.894 271.559,586.611 264.245,589.482 257.077,592.431 250.011,595.513 243.098,598.71 236.272,602.033 
		229.658,605.494 223.182,609.041 216.837,612.667 210.682,616.464 204.701,620.273 198.852,624.257 193.207,628.359 
		187.743,632.519 182.411,636.781 200.447,636.933 182.222,658.08 191.123,665.779 200.258,658.232 	"/>
	<polygon fill="#23346A" points="94.976,551.443 95.223,551.894 100.242,560.562 105.399,569.062 110.834,577.382 116.465,585.541 
		122.256,593.546 128.258,601.392 134.414,609.083 140.758,616.609 147.249,623.937 153.95,631.15 160.776,638.128 167.755,644.974 
		174.952,651.611 182.222,658.08 200.447,636.933 193.644,630.908 187.022,624.738 180.488,618.365 174.114,611.837 
		167.907,605.201 161.861,598.347 155.946,591.361 150.214,584.228 144.648,576.931 139.272,569.486 134.064,561.888 129.06,554.13 
		127.224,551.166 	"/>
	<polygon fill="#23346A" points="347.594,36.182 334.475,34.419 323.249,38.943 312.221,44.027 301.469,49.607 290.906,55.697 
		280.591,62.253 270.517,69.348 260.661,76.837 251.133,84.828 241.845,93.19 232.871,102.019 224.166,111.219 215.817,120.835 
		207.769,130.771 200.01,141.086 192.624,151.772 185.602,162.721 178.893,174.07 172.584,185.703 166.647,197.613 166.363,198.247 
		197.752,197.861 203.215,187.809 209.363,177.37 215.869,167.186 222.672,157.359 229.76,147.89 237.176,138.682 244.868,129.911 
		252.801,121.527 260.996,113.514 269.417,105.865 278.1,98.661 286.973,91.813 296.078,85.491 305.358,79.554 314.828,74.076 
		324.546,69.042 334.3,64.526 344.258,60.483 331.146,58.72 347.594,36.182 341.511,31.753 334.475,34.419 	"/>
	<polygon fill="#23346A" points="412.986,52.048 409.993,52.113 407.836,52.39 405.658,52.587 403.495,52.74 401.339,52.842 
		399.313,52.907 397.223,52.943 395.104,52.907 393.063,52.798 391.053,52.688 388.977,52.478 386.974,52.251 385.007,52.011 
		383.04,51.61 381.132,51.268 379.15,50.86 377.198,50.387 375.268,49.87 373.337,49.279 371.487,48.66 369.563,48.07 
		367.728,47.342 365.856,46.577 363.94,45.769 362.134,44.901 360.269,44.02 358.396,43.029 356.576,42.002 354.834,40.968 
		352.992,39.854 351.163,38.681 349.35,37.464 347.594,36.182 331.146,58.72 333.462,60.345 335.757,61.918 338.065,63.426 
		340.382,64.897 342.83,66.318 345.233,67.622 347.616,68.853 350.063,70.128 352.576,71.257 354.995,72.32 357.486,73.362 
		360.043,74.28 362.542,75.256 365.157,76.064 367.699,76.815 370.277,77.5 372.871,78.133 375.464,78.694 378.138,79.241 
		380.804,79.576 383.492,79.998 386.172,80.282 388.81,80.508 391.57,80.727 394.309,80.777 396.99,80.836 399.722,80.843 
		402.548,80.771 405.294,80.588 408.041,80.37 410.809,80.085 413.62,79.772 410.626,79.838 	"/>
	<polygon fill="#23346A" points="493.786,31.345 482.146,32.54 480.019,33.8 477.811,35.06 475.611,36.299 473.557,37.435 
		471.488,38.571 469.368,39.671 467.249,40.662 465.217,41.704 463.089,42.68 461.014,43.59 458.988,44.45 456.941,45.346 
		454.895,46.14 452.825,46.868 450.728,47.626 448.651,48.216 446.655,48.835 444.551,49.454 442.459,49.95 440.361,50.474 
		438.162,50.838 435.983,51.195 433.922,51.516 431.744,51.792 429.516,52.019 427.264,52.186 424.991,52.295 422.711,52.404 
		420.314,52.361 417.918,52.317 415.456,52.208 412.986,52.048 410.626,79.838 413.766,80.093 416.869,80.231 419.943,80.333 
		422.93,80.29 425.945,80.282 428.933,80.115 431.875,79.918 434.768,79.619 437.645,79.284 440.551,78.847 443.341,78.33 
		446.043,77.718 448.797,77.165 451.507,76.465 454.195,75.788 456.919,75.03 459.52,74.098 462.092,73.253 464.662,72.284 
		467.205,71.3 469.762,70.332 472.289,69.231 474.744,68.095 477.163,66.952 479.661,65.83 482.051,64.533 484.455,63.31 
		486.888,62.02 489.357,60.665 491.666,59.332 494.012,57.992 496.416,56.601 484.768,57.795 493.786,31.345 487.711,29.284 
		482.146,32.54 	"/>
	<polygon fill="#23346A" points="669.371,191.895 667.594,188.246 661.424,176.568 654.78,165.168 647.831,154.118 640.51,143.438 
		632.803,133.109 624.783,123.129 616.42,113.478 607.715,104.27 598.792,95.47 589.504,87.021 579.881,79.015 569.989,71.41 
		559.871,64.293 549.454,57.62 538.753,51.406 527.885,45.637 516.754,40.385 505.339,35.585 493.786,31.345 484.768,57.795 
		495.207,61.634 505.383,65.874 515.421,70.645 525.306,75.802 534.914,81.411 544.333,87.501 553.548,93.94 562.479,100.824 
		571.162,108.058 579.634,115.736 587.865,123.785 595.754,132.221 603.41,140.999 610.76,150.126 617.775,159.632 624.514,169.474 
		630.931,179.613 636.984,190.052 638.187,192.303 	"/>
	<polygon fill="#23346A" points="481.847,704.781 492.388,705.894 504.436,702.056 516.215,697.626 527.739,692.695 
		539.117,687.181 550.139,681.105 561,674.505 571.525,667.425 581.725,659.878 591.609,651.83 601.262,643.255 610.49,634.296 
		619.473,624.914 628.024,615.042 636.256,604.83 644.115,594.158 651.59,583.107 658.655,571.679 665.32,559.935 671.549,547.8 
		672.176,546.437 640.729,546.714 634.646,557.533 628.141,567.992 621.293,578.082 614.125,587.792 606.659,597.181 
		598.784,606.119 590.699,614.701 582.241,622.859 573.602,630.544 564.591,637.806 555.348,644.691 545.914,651.064 
		536.262,656.951 526.282,662.355 516.193,667.31 505.806,671.775 495.287,675.701 484.571,679.103 495.127,680.216 	"/>
	<polygon fill="#23346A" points="418.88,694.029 421.459,693.89 423.607,693.613 425.844,693.431 427.956,693.25 430.112,693.169 
		432.239,693.068 434.359,693.068 436.465,693.074 438.563,693.119 440.58,693.212 442.635,693.343 444.718,693.554 
		446.678,693.716 448.607,693.978 450.611,694.386 452.621,694.707 454.472,695.041 456.336,695.414 458.267,695.857 
		460.161,696.33 462.04,696.841 463.847,697.373 465.551,697.933 467.336,698.539 469.099,699.164 470.774,699.697 472.428,700.343 
		474.133,701.08 475.786,701.837 477.301,702.521 478.831,703.214 480.339,703.986 481.847,704.781 495.127,680.216 
		493.188,679.197 491.222,678.185 489.197,677.171 487.07,676.197 485.001,675.351 482.939,674.521 480.783,673.625 
		478.562,672.714 476.391,671.978 474.184,671.25 471.83,670.529 469.485,669.867 467.19,669.24 464.874,668.664 462.521,668.103 
		460.022,667.572 457.523,667.068 455.098,666.662 452.621,666.376 450.006,666.056 447.406,665.72 444.878,665.525 
		442.271,665.328 439.611,665.189 436.967,665.13 434.301,665.095 431.591,665.16 428.896,665.234 426.164,665.408 423.353,665.626 
		420.628,665.925 417.831,666.246 420.395,666.099 	"/>
	<polygon fill="#23346A" points="172.256,550.779 172.533,551.318 178.951,563.148 185.755,574.724 192.915,585.957 200.433,596.81 
		208.344,607.292 216.561,617.404 225.098,627.121 234,636.431 243.207,645.332 252.735,653.783 262.562,661.765 272.637,669.253 
		283.024,676.341 293.638,682.912 304.499,688.929 315.63,694.421 326.979,699.396 338.583,703.826 350.311,707.607 
		358.273,680.888 347.798,677.419 337.498,673.56 327.401,669.115 317.458,664.169 307.704,658.765 298.125,652.886 288.801,646.57 
		279.681,639.759 270.808,632.474 262.205,624.833 253.799,616.777 245.706,608.246 237.839,599.396 230.299,590.138 
		223.073,580.47 216.146,570.462 209.517,560.169 203.864,550.503 	"/>
	<polygon fill="#23346A" points="375.406,47.356 364.8,48.879 357.851,53.344 351.098,58.305 344.454,63.695 338.022,69.567 
		331.743,75.919 325.624,82.664 319.672,89.854 313.925,97.459 308.367,105.436 302.962,113.82 297.797,122.547 292.807,131.638 
		287.963,141.079 283.33,150.891 278.959,160.973 274.764,171.382 270.793,182.098 267.086,193.097 265.876,197.001 
		295.394,196.637 297.171,191.422 300.842,181.398 304.732,171.725 308.804,162.334 313.021,153.346 317.421,144.685 
		322.011,136.38 326.731,128.477 331.583,120.959 336.551,113.849 341.621,107.162 346.764,100.897 352.001,95.07 357.333,89.73 
		362.716,84.806 368.107,80.348 373.6,76.399 379.077,72.939 368.485,74.462 	"/>
	<polygon fill="#23346A" points="415.267,52.39 410.838,52.048 409.497,52.128 408.259,52.135 407.094,52.186 405.986,52.186 
		404.799,52.229 403.626,52.149 402.599,52.193 401.521,52.135 400.545,52.149 399.562,52.026 398.447,51.96 397.449,51.909 
		396.487,51.844 395.511,51.574 394.615,51.487 393.544,51.341 392.48,51.188 391.548,51.05 390.5,50.868 389.61,50.722 
		387.418,50.263 385.211,49.775 382.96,49.243 380.57,48.675 378.058,48.034 375.406,47.356 368.485,74.462 371.137,75.146 
		373.76,75.817 376.338,76.436 378.932,77.055 381.452,77.616 383.943,78.148 385.371,78.432 386.639,78.68 388.001,78.92 
		389.283,79.131 390.55,79.328 391.971,79.554 393.34,79.554 394.753,79.736 396.174,79.896 397.478,80.005 398.928,80.049 
		400.436,80.173 401.893,80.202 403.444,80.29 404.864,80.188 406.365,80.224 407.975,80.158 409.592,80.1 411.188,79.94 
		412.775,79.838 408.347,79.496 	"/>
	<polygon fill="#23346A" points="464.998,49.935 457.997,48.653 456.322,48.733 454.53,48.9 452.825,49.098 451.223,49.25 
		449.54,49.513 447.952,49.775 446.364,49.979 444.732,50.248 441.651,50.802 438.664,51.334 435.772,51.792 432.83,52.208 
		431.555,52.434 430.229,52.565 428.933,52.732 427.672,52.82 426.492,52.922 425.231,53.009 423.928,53.118 422.887,53.177 
		421.889,53.104 420.73,53.133 419.666,53.067 418.821,52.973 417.918,52.798 416.913,52.681 416.09,52.579 415.267,52.39 
		408.347,79.496 410.233,79.962 412.192,80.362 413.955,80.668 415.878,80.857 417.846,80.989 419.674,81.054 421.371,81.164 
		423.287,81.105 425.145,81.047 426.754,81.018 428.459,80.923 430.222,80.771 431.955,80.566 433.623,80.362 435.307,80.129 
		437.025,79.889 440.106,79.386 443.254,78.869 446.328,78.359 449.293,77.907 450.669,77.689 452.068,77.434 453.51,77.259 
		454.807,77.099 456.22,76.895 457.48,76.713 458.675,76.633 459.936,76.451 452.935,75.161 	"/>
	<polygon fill="#23346A" points="570.973,193.148 568.903,187.276 564.766,176.401 560.424,165.831 555.843,155.589 
		551.057,145.704 546.045,136.176 540.932,127.034 535.541,118.249 529.976,109.879 524.286,101.844 518.356,94.276 512.273,87.093 
		506.023,80.377 499.592,74.12 492.999,68.307 486.269,62.96 479.312,58.064 472.253,53.752 464.998,49.935 452.935,75.161 
		458.508,78.068 464.102,81.477 469.623,85.316 475.152,89.665 480.623,94.509 486.057,99.863 491.418,105.668 496.715,111.882 
		501.887,118.562 506.992,125.643 511.99,133.211 516.79,141.166 521.569,149.536 526.086,158.277 530.515,167.39 534.732,176.853 
		538.812,186.657 541.434,193.526 	"/>
	<polygon fill="#23346A" points="457.276,693.832 466.083,693.132 473.521,689.695 480.791,685.607 487.827,680.945 
		494.652,675.722 501.311,669.931 507.772,663.66 514.022,656.849 520.032,649.572 525.925,641.908 531.549,633.736 
		537.005,625.125 542.315,616.121 547.385,606.666 552.287,596.832 556.913,586.677 561.394,576.078 565.669,565.16 569.72,553.933 
		571.904,547.304 542.308,547.566 539.504,555.441 535.548,565.632 531.396,575.429 527.025,584.884 522.589,593.888 
		517.971,602.449 513.214,610.585 508.312,618.312 503.285,625.525 498.2,632.3 492.992,638.521 487.696,644.232 482.4,649.425 
		477.047,654.103 471.634,658.226 466.222,661.845 460.809,664.906 455.396,667.396 464.196,666.712 	"/>
	<polygon fill="#23346A" points="416.177,693.628 422.58,693.708 423.498,693.527 424.328,693.373 425.217,693.183 426.215,693.119 
		427.141,692.908 428.248,692.703 429.26,692.666 430.266,692.455 431.241,692.39 432.342,692.31 433.471,692.15 434.541,692.121 
		435.678,691.974 436.727,691.99 437.906,691.894 439.087,691.937 440.216,691.865 441.309,691.937 442.518,691.931 443.676,691.91 
		444.798,692.017 445.941,692.054 447.158,692.244 448.316,692.31 449.504,692.404 450.582,692.623 451.755,692.783 
		452.905,692.929 453.918,693.095 454.96,693.3 456.184,693.57 457.276,693.832 464.196,666.712 462.587,666.318 461.05,665.968 
		459.359,665.597 457.626,665.261 456.009,664.986 454.421,664.73 452.752,664.607 451.143,664.388 449.563,664.212 
		447.996,664.169 446.43,664.046 444.798,664.017 443.217,663.914 441.717,663.849 440.15,663.9 438.599,663.863 437.135,663.958 
		435.656,663.972 434.126,664.076 432.647,664.132 431.234,664.271 429.813,664.359 428.438,664.49 426.994,664.687 
		425.566,664.789 424.227,665.08 423.018,665.24 421.677,665.365 420.417,665.707 419.149,665.888 417.846,666.158 416.702,666.419 
		423.098,666.507 	"/>
	<polygon fill="#23346A" points="273.299,549.898 274.574,553.562 278.755,564.693 283.141,575.525 287.795,586 292.662,596.146 
		297.725,605.902 302.991,615.333 308.505,624.417 314.202,633.042 320.131,641.333 326.221,649.126 332.559,656.564 
		339.063,663.55 345.758,670.011 352.7,676.037 359.803,681.58 367.131,686.562 374.626,691.048 382.312,694.982 394.083,669.669 
		388.066,666.662 382.151,663.107 376.244,659.041 370.395,654.511 364.654,649.484 358.936,643.919 353.312,637.96 
		347.842,631.527 342.429,624.593 337.185,617.287 332.056,609.449 327.11,601.312 322.273,592.701 317.597,583.683 
		313.095,574.316 308.812,564.621 304.688,554.517 302.853,549.642 	"/>
	<path fill="#23346A" d="M428.743,678.732l-0.903-130.176l-27.871,0.234l0.903,130.145L428.743,678.732L428.743,678.732z
		 M425.385,194.991l-0.867-124.324l-27.885,0.211l0.874,124.47L425.385,194.991L425.385,194.991z"/>
	<polygon fill="#23346A" points="409.322,0 409.541,0.015 390.543,0.656 371.844,2.258 353.378,4.808 335.181,8.246 317.247,12.646 
		299.735,17.854 282.595,23.93 265.796,30.857 249.399,38.542 233.475,46.97 217.988,56.156 202.997,66.085 188.516,76.64 
		174.529,87.938 161.126,99.849 148.319,112.349 136.053,125.46 124.456,139.17 113.5,153.382 103.243,168.104 93.613,183.343 
		84.784,198.99 84.624,199.274 116.865,198.881 117.608,197.569 126.48,183.511 136.031,169.83 146.156,156.66 156.923,144 
		168.243,131.856 180.138,120.252 192.551,109.224 205.503,98.799 218.906,88.973 232.813,79.787 247.112,71.308 261.87,63.47 
		276.993,56.36 292.494,50.03 308.389,44.406 324.589,39.547 341.052,35.548 357.851,32.321 374.896,29.968 392.233,28.46 
		409.752,27.892 409.971,27.907 	"/>
	<polygon fill="#23346A" points="744.401,190.963 744.256,190.708 735.033,175.046 725.127,159.858 714.447,145.245 
		703.091,131.193 691.05,117.688 678.455,104.787 665.197,92.578 651.356,80.938 636.948,69.997 622.015,59.762 606.564,50.227 
		590.567,41.463 574.134,33.443 557.241,26.217 539.999,19.85 522.283,14.271 504.283,9.594 485.86,5.828 467.14,2.928 
		448.112,0.991 428.859,0.022 409.322,0 409.971,27.907 428.059,27.892 445.949,28.832 463.548,30.653 480.871,33.312 
		497.895,36.845 514.642,41.201 530.974,46.3 547.006,52.237 562.573,58.888 577.783,66.267 592.506,74.382 606.805,83.174 
		620.667,92.651 633.969,102.748 646.782,113.47 659.027,124.863 670.763,136.723 681.806,149.208 692.295,162.232 702.107,175.73 
		711.322,189.731 712.284,191.371 	"/>
	<polygon fill="#23346A" points="422.129,746.011 421.902,745.996 440.908,745.363 459.6,743.759 478.073,741.195 496.27,737.765 
		514.204,733.373 531.709,728.156 548.856,722.082 565.647,715.154 582.052,707.476 597.976,699.048 613.463,689.863 
		628.454,679.925 642.936,669.371 656.914,658.066 670.325,646.169 683.132,633.662 695.392,620.542 706.995,606.841 
		717.944,592.628 728.2,577.914 737.838,562.66 746.659,547.021 747.286,545.796 715.176,546.066 713.843,548.449 704.963,562.494 
		695.413,576.173 685.287,589.343 674.521,602.011 663.209,614.162 651.313,625.751 638.893,636.787 625.948,647.21 
		612.537,657.039 598.632,666.224 584.34,674.71 569.581,682.533 554.459,689.65 538.949,695.974 523.063,701.603 506.848,706.457 
		490.398,710.47 473.594,713.681 456.555,716.035 439.211,717.55 421.699,718.119 421.473,718.103 	"/>
	<polygon fill="#23346A" points="87.057,551.507 89.33,555.849 98.56,571.511 108.459,586.699 119.094,601.261 130.283,615.32 
		142.259,628.796 154.759,641.63 167.886,653.847 181.588,665.451 195.887,676.335 210.704,686.57 226.001,696.068 241.823,704.781 
		258.141,712.736 274.836,719.904 291.999,726.298 309.583,731.835 327.474,736.49 345.772,740.234 364.421,743.111 
		383.375,745.035 402.665,746.003 422.129,746.011 421.473,718.103 403.342,718.103 385.531,717.185 368.005,715.386 
		350.755,712.742 333.855,709.238 317.225,704.919 301.017,699.849 285.181,694.013 269.679,687.371 254.666,680 240.067,671.914 
		225.914,663.158 212.248,653.775 199.093,643.671 186.41,632.984 174.267,621.708 162.67,609.783 151.692,597.328 141.232,584.345 
		131.463,570.812 122.271,556.833 118.992,551.224 	"/>
</g>
</svg>
