<?xml version="1.0" encoding="utf-8"?>
<!-- Generator: Adobe Illustrator 16.0.0, SVG Export Plug-In . SVG Version: 6.00 Build 0)  -->
<svg version="1.2" baseProfile="tiny" id="Layer_1" xmlns="http://www.w3.org/2000/svg" xmlns:xlink="http://www.w3.org/1999/xlink"
	 x="0px" y="0px" width="774.133px" height="774.133px" viewBox="0 0 774.133 774.133" xml:space="preserve">
<g>
	<path fill="#FFFFFF" d="M387.069,771.081c212.076,0,384.011-171.932,384.011-384.01c0-212.087-171.936-384.016-384.011-384.016
		C174.986,3.055,3.058,174.984,3.058,387.071C3.058,599.149,174.986,771.081,387.069,771.081"/>
	<path fill="#F9E6D7" d="M77.573,569.846c0,0,13.294-64.26,24.369-79.02c6.821-9.107,10.831-15.275,17.723-24.746
		c0,0,68.259-99.802,86.847-129.749c0,0-32.219,38.871-25.644,31.416c1.297-4.535-30.169-17.233-49.264-52.948
		c0,0,22.853-5.481,38.184-15.404c15.325-9.909,33.694-38.979,33.694-38.979c5.906-11.818,12.744-35.732,14.404-41.351
		c5.536-18.465,11.314-40.564,13.476-51.439c0,0,27.713-67.121,102.836-49.876c0,0,24.279,7.527,37.08,25.686
		c2.862,3.156,5.011,7.043,5.907,11.779c0.707,2.126,3.143,4.991,3.53,7.355c2.166,5.131,5.785,17.252,2.952,34.338
		c0,0-1.392,10.029-3.692,15.875c0,0-0.991,6.025,7.39,16.249c0,0,8.569,9.205,0,14.772c0,0-5.256,1.885-5.172,4.428
		c0,0-0.239,1.606,0.373,2.588c2.062,3.327,2.623,7.658-2.591,9.23c0,0,4.723,7.877-4.971,9.66c0,0-3.993,0.08-1.454,8.008
		c0,0,0.824,3.521-0.824,6.246c-2.688,4.445-8.563,6.889-16.57,4.536c0,0-5.771-2.287-12.09-4.691
		c-0.02,0.068,0.011,0.138-0.02,0.199c0,0-0.258-0.199-0.711-0.478c-1.631-0.616-3.259-1.232-4.846-1.818
		c-3.636-0.563-8.313,0.712-11.816,8.218c-1.651,7.083-3.789,16.407-6.575,28.847c0,0-3.999,14.123,8.255,34.075
		c0,0,2.898,4.421,9.909,11.085c14.905,14.143,36.023,37.301,47.26,47.126c0,0,18.455,22.899-1.407,93.575
		c0,0-18.533,70.371-27.397,194.807c0,0-93.42,9.973-184.252-45.059c0,0,27.849-51.646,77.416-87.789
		c0,0,22.714-25.816-7.229-73.311c0,0-19.492-36.064-22.59-61.879c0,0-53.237,55.164-80.089,88.219c0,0-14.005,51.096-32.586,84.139
		C107.387,603.766,86.064,581.29,77.573,569.846"/>
	<path fill="#A4D0CF" d="M122.988,618.95l-16.247-15.502c14.164-25.373,30.918-81.117,32.874-83.604
		c2.706-3.441,15.393-14.783,15.393-14.783c35.097-1.836,66.644-3.533,83.579-7.578l9.189-7.99L363.447,386.97
		c12.931,10.952,16.667,17.653,22.887,26.682c5.018,7.44,8.413,19.067,8.413,29.544c-1.842,33.861-11.073,59.814-11.073,59.814
		c-5.637,15.229-11.344,46.879-15.237,81.871c-0.372,5.412-0.984,10.951-0.984,10.951l-10.733,103.613
		c-62.4,3.689-115.567-14.396-115.567-14.396C166.561,661.045,122.988,618.95,122.988,618.95 M149.422,631.553l3.04-0.25"/>
	<path fill="#008888" d="M394.012,239c0,0,1.406-2.985-5.32-11.642c0,0-8.315-10.476-4.308-19.706c0,0,8.619-29.557-4.622-52.955
		c0,0-4.004-7.393-10.161-14.471c-4.153-4.786-13.843-11.63-13.843-11.63s8.387,6.957,15.691,18.401
		c11.393,17.854,12.06,36.192,10.775,49.573l-3.693,17.548c0,0,0.097,8.281,6.773,15.7c0,0,7.493,6.861,2.776,12.082
		c0,0-1.76,1.396-3.75,2.735c-1.956,0.97-5.219,3.356-2.404,7.7c0.338,1.314,0.581,2.832,0.299,3.959c0,0-1.232,2.775-3.693,3.085
		c0,0,3.08,4.918,0.921,8c0,0-1.23,1.293-3.999,1.606c0,0-4.62,1.164-3.39,5.78c0,0,0.531,6.64-1.313,9.101
		c0,0-1.785,3.566-8.864,3.876c0,0-2.888,0.21-7.203-0.924c-4.304-1.134-6.178-1.62-11.866-3.432c0,0,19.625,13.027,29.966,5.46
		c0,0,5.351-4.799,3.772-11.489c0,0-1.008-3.277,1.767-4.389c0,0,1.509-0.107,3.506-1.663c2.289-1.779,4.428-4.979,2.557-10.396
		c0,0,3.81-3.173,3.075-6.399c-0.233-0.797-0.468-2.125-1.57-3.511c-1.388-2.307-0.186-3.955,2.952-5.539
		C393,242.789,393.36,241.565,394.012,239 M348.592,124.167c-38.178-27.093-83.443-2.211-83.443-2.211
		c-34.342,16.981-39.945,59.833-39.945,59.833c-6.951,33.953-16.549,61.273-16.549,61.273
		c-25.478,66.462-81.356,68.648-81.356,68.648l1.845,4.315c9.403,20.281,38.895,41.886,50.151,49.614
		c-6.575,9.783-13.719,21.704-20.717,35.813c0,0-57.001,87.674-57.444,90.557c0,0,34.346-42.469,53.378-72.25
		c0,0,40.236-67.005,58.991-85.875c0,0,20.182-19.529,44.83-21.092c26.601-1.692,11.328-0.917-4.191-3.544
		c0,0-25.855-0.303-47.537,22.63c0,0-10.91,10.035-25.021,30.394c-42.637-35.562-44.747-45.358-44.747-45.358
		c52.065-6.651,72.921-63.879,72.921-63.879c11.451-25.486,20.681-71.265,20.681-71.265c10.334-42.098,37.868-54.168,37.868-54.168
		C313.877,102.973,348.592,124.167,348.592,124.167 M78.682,571.317c6.274-25.475,20.308-75.545,20.308-75.545
		c-10.708,18.465-23.633,71.109-23.633,71.109L78.682,571.317z M332.978,202.784c0,0,12.567-25.736,35.93-26.648
		c0,0-42.455-4.272-51.553,59.343c0,0-4.09,61.662-24.954,70.694c0,0,24.156-8.542,29.957-54.464
		C322.357,251.708,323.641,222.61,332.978,202.784 M137.46,517.315c0,0-37.123,89.574-30.347,86.496
		c0,0,18.202-32.461,35.447-82.338c0,0,3.832-4.148,10.024-10.895c28.097-1.049,135.356-8.139,239.145-55.496
		c-0.816,7.613-2.521,12.48-2.521,12.48c-4.223,15.91-7.274,28.287-8.816,34.684c-24.573,17.119-119.309,80.766-239.308,131.098
		l4.796,3.691c0,0,138.241-59.953,231.885-124.76c-8.313,30.58-11.55,64.844-11.55,64.844
		c-2.769,25.861-13.191,122.689-13.191,122.689l6.646-0.363c11.858-122.998,14.59-135.516,14.59-135.516
		c1.845-16.436,9.415-51.322,9.415-51.322c7.754-29.543,12.922-49.479,12.922-49.479c5.541-28.061-5.535-47.256-5.535-47.256
		c-6.647-14.041-21.702-26.432-29.541-32.497c-25.291-18.647-33.233-34.154-33.233-34.154c-11.188-15.192-4.958-35.442-4.958-35.442
		c6.226-33.195,15.174-31.993,15.174-31.993c-8.926-4.861-15.391,14.538-15.391,14.538c-9.985,26.757-5.535,42-5.535,42
		c4.384,18.722,25.22,37.306,37.297,46.163l4.204,3.586l-116.459,102.67c-12.128-17.711-21.227-51.619-21.227-51.619
		c5.19,30.889,12.957,48.953,16.317,55.736c-23.757,3.635-49.61,6.244-77.188,7.064c22.585-24.723,60.768-66.938,80.388-91.147
		c0,0,16.006-18.465,27.093-20.926c0,0-11.454-5.548-33.624,20.926L137.46,517.315z M245.628,493.584l117.456-102.09l9.512,8.125
		c16.877,17.084,19.999,36.531,19.508,50.219C379.143,456.063,324.949,480.409,245.628,493.584 M196.835,668.053l9.97,4.07
		c0,0,62.442-54.189,101.038-113.459C307.843,558.665,242.531,635.657,196.835,668.053"/>
	<path fill="#FFFFFF" d="M770.897,387.071c0-211.982-171.855-383.828-383.828-383.828c-211.98,0-383.823,171.846-383.823,383.828
		c0,211.977,171.843,383.826,383.823,383.826C599.042,770.897,770.897,599.047,770.897,387.071 M688.573,387.071
		c0,166.51-134.984,301.502-301.503,301.502c-166.517,0-301.5-134.992-301.5-301.502c0-166.519,134.983-301.502,301.5-301.502
		S688.573,220.552,688.573,387.071"/>
	<g>
		<path fill="#008888" d="M35.569,471.063l39.397-11.445l2.835,9.758l-25.194,13.689l28.594-1.984l2.846,9.801L44.65,502.325
			l-1.763-6.074l31.036-9.027l-32.905,2.588l-1.824-6.279l29.178-15.408l-31.037,9.014L35.569,471.063z"/>
	</g>
	<g>
		<path fill="#008888" d="M48.039,511.305l38.12-15.156l9.227,23.193l-6.449,2.564l-6.721-16.902l-8.451,3.361l6.245,15.707
			l-6.422,2.551l-6.247-15.705l-10.349,4.115l6.95,17.473l-6.448,2.564L48.039,511.305z"/>
	</g>
	<g>
		<path fill="#008888" d="M95.385,519.092l5.522,11.09c1.396,2.805,2.137,5.072,2.217,6.816c0.085,1.732-0.319,3.578-1.203,5.516
			c-0.889,1.938-2.348,3.854-4.379,5.711c-2.031,1.869-4.807,3.67-8.332,5.424c-3.174,1.584-6.112,2.602-8.815,3.057
			c-2.705,0.443-5.013,0.467-6.934,0.047c-1.915-0.422-3.607-1.232-5.078-2.453c-1.473-1.217-2.815-3.043-4.04-5.504l-5.682-11.41
			L95.385,519.092z M92.188,528.254L67.893,540.36l2.271,4.559c0.972,1.949,1.864,3.271,2.665,3.967
			c0.803,0.695,1.714,1.141,2.735,1.334c1.02,0.182,2.421,0.068,4.211-0.363c1.784-0.434,3.983-1.301,6.6-2.6
			c2.718-1.355,4.774-2.611,6.154-3.773c1.379-1.15,2.326-2.359,2.833-3.59c0.504-1.242,0.615-2.508,0.333-3.785
			c-0.205-0.957-0.921-2.656-2.134-5.094L92.188,528.254z"/>
	</g>
	<g>
		<path fill="#008888" d="M73.587,565.936l35.322-20.869l3.446,5.836l-35.321,20.871L73.587,565.936z"/>
	</g>
	<g>
		<path fill="#008888" d="M104.786,587.161l1.563,6.883c-4.376,1.711-8.114,2.178-11.203,1.381
			c-3.092-0.799-5.614-2.645-7.563-5.527c-2.454-3.637-3.043-7.533-1.762-11.684c1.479-4.775,4.962-9.016,10.458-12.721
			c5.796-3.908,11.219-5.666,16.265-5.254c4.383,0.354,7.867,2.449,10.458,6.293c2.107,3.121,2.806,6.461,2.088,10.006
			c-0.504,2.529-2.012,5.139-4.527,7.854l-5.38-4.479c1.602-1.596,2.536-3.262,2.804-4.982c0.262-1.719-0.088-3.305-1.06-4.74
			c-1.391-2.063-3.42-3.145-6.093-3.238c-2.672-0.078-6.075,1.268-10.203,4.049c-4.286,2.883-6.904,5.572-7.862,8.068
			c-0.955,2.486-0.744,4.742,0.624,6.771c1.001,1.482,2.442,2.369,4.32,2.689C99.596,588.834,101.959,588.379,104.786,587.161z"/>
	</g>
	<g>
		<path fill="#008888" d="M116.357,626.436l-4.613-5.744l5.394-8.115l-8.439-10.498l-8.981,3.66l-4.524-5.631l40.183-15.502
			l4.508,5.607L116.357,626.436z M121.175,606.524l8.959-13.164l-14.726,5.996L121.175,606.524z"/>
	</g>
	<g>
		<path fill="#008888" d="M116.599,626.334l29.783-27.732l4.615,4.959l-24.702,23l11.515,12.367l-5.08,4.73L116.599,626.334z"/>
	</g>
	<g>
		<path fill="#008888" d="M134.577,645.231l28.047-29.477l4.905,4.674l-23.261,24.447l12.246,11.652l-4.784,5.023L134.577,645.231z"
			/>
	</g>
	<g>
		<path fill="#008888" d="M156.429,664.893l10.959-13.348l5.548-26.182l6.146,5.049l-4.185,17.553l16.319-7.59l6.036,4.947
			l-24.669,10.553l-10.922,13.314L156.429,664.893z"/>
	</g>
	<g>
		<path fill="#008888" d="M187.733,688.143l18.564-28.584l-8.379-5.449l3.78-5.824l22.413,14.555l-3.778,5.824l-8.358-5.424
			l-18.563,28.586L187.733,688.143z"/>
	</g>
	<g>
		<path fill="#008888" d="M205.758,699.485l19.253-36.223l22.044,11.705l-3.257,6.131l-16.064-8.523l-4.267,8.023l14.925,7.934
			l-3.241,6.109l-14.93-7.936l-5.226,9.838l16.611,8.822l-3.257,6.131L205.758,699.485z"/>
	</g>
	<g>
		<path fill="#008888" d="M236.047,700.338l6.393,1.949c-1.419,5.096-0.234,8.479,3.562,10.145c1.878,0.822,3.573,0.98,5.077,0.469
			c1.51-0.514,2.581-1.494,3.22-2.941c0.371-0.854,0.501-1.664,0.389-2.428c-0.115-0.766-0.478-1.504-1.071-2.223
			c-0.605-0.729-2.184-2.188-4.742-4.379c-2.3-1.971-3.855-3.689-4.673-5.174c-0.824-1.469-1.26-3.133-1.316-4.979
			c-0.06-1.85,0.296-3.648,1.069-5.402c0.896-2.053,2.174-3.695,3.822-4.926s3.478-1.902,5.486-2.027
			c2.006-0.115,4.213,0.354,6.622,1.414c3.623,1.584,6.021,3.807,7.191,6.668c1.173,2.85,1.021,6.131-0.462,9.846l-6.374-2.404
			c0.607-2.131,0.636-3.795,0.084-5.004c-0.555-1.195-1.671-2.164-3.348-2.895c-1.668-0.74-3.115-0.957-4.326-0.648
			c-1.213,0.295-2.044,0.969-2.499,2.006c-0.446,1.023-0.417,2.063,0.102,3.121c0.513,1.061,2.068,2.656,4.655,4.789
			c2.731,2.279,4.571,4.217,5.524,5.834c0.956,1.607,1.451,3.363,1.495,5.268c0.042,1.902-0.429,3.979-1.416,6.234
			c-1.432,3.26-3.637,5.563-6.617,6.904c-2.98,1.348-6.611,1.072-10.884-0.797C235.458,715.454,233.138,709.309,236.047,700.338z"/>
	</g>
	<g>
		<path fill="#008888" d="M268.918,728.172l10.866-32.301l-9.47-3.193l2.214-6.574l25.329,8.525l-2.214,6.576l-9.44-3.18
			l-10.864,32.311L268.918,728.172z"/>
	</g>
	<g>
		<path fill="#008888" d="M289.261,734.555l10.086-39.766l24.199,6.141l-1.704,6.729l-17.632-4.469l-2.24,8.809l16.385,4.162
			l-1.697,6.701l-16.386-4.16l-2.737,10.795l18.229,4.627l-1.711,6.723L289.261,734.555z"/>
	</g>
	<g>
		<path fill="#008888" d="M324.746,701.09l12.229,1.975c3.092,0.5,5.369,1.219,6.827,2.152c1.463,0.957,2.724,2.348,3.785,4.205
			c1.059,1.857,1.757,4.148,2.086,6.885c0.333,2.734,0.188,6.053-0.441,9.938c-0.565,3.5-1.451,6.475-2.664,8.938
			c-1.207,2.463-2.539,4.344-3.997,5.664c-1.456,1.313-3.109,2.211-4.954,2.691c-1.843,0.5-4.116,0.521-6.822,0.078l-12.588-2.027
			L324.746,701.09z M330.327,709.014l-4.328,26.793l5.031,0.822c2.153,0.344,3.749,0.398,4.78,0.148
			c1.027-0.252,1.923-0.729,2.67-1.447c0.749-0.719,1.469-1.926,2.16-3.637c0.688-1.697,1.267-4,1.734-6.887
			c0.483-2.994,0.658-5.4,0.523-7.189c-0.134-1.791-0.561-3.26-1.272-4.4c-0.714-1.139-1.673-1.959-2.879-2.471
			c-0.897-0.391-2.691-0.813-5.383-1.244L330.327,709.014z"/>
	</g>
	<g>
		<path fill="#008888" d="M363.142,735.752l0.134-5.871l26.133,0.582l-0.135,5.881L363.142,735.752z"/>
	</g>
	<g>
		<path fill="#008888" d="M415.415,746.961l-3.021-33.949l-9.947,0.893l-0.611-6.922l26.617-2.369l0.615,6.92l-9.926,0.881
			l3.021,33.949L415.415,746.961z"/>
	</g>
	<g>
		<path fill="#008888" d="M436.475,744.934l-7.102-40.404l24.584-4.326l1.199,6.838l-17.918,3.146l1.584,8.959l16.641-2.93
			l1.197,6.814l-16.643,2.924l1.928,10.963l18.521-3.252l1.195,6.838L436.475,744.934z"/>
	</g>
	<g>
		<path fill="#008888" d="M460.807,727.159l6.215-2.451c2.063,4.869,5.096,6.781,9.094,5.723c1.984-0.523,3.41-1.459,4.275-2.793
			c0.855-1.334,1.094-2.77,0.684-4.307c-0.238-0.902-0.641-1.609-1.207-2.145c-0.561-0.523-1.301-0.877-2.223-1.07
			c-0.924-0.195-3.066-0.35-6.43-0.48c-3.021-0.107-5.313-0.482-6.885-1.133c-1.549-0.643-2.928-1.676-4.125-3.082
			c-1.199-1.414-2.041-3.045-2.531-4.9c-0.568-2.168-0.592-4.24-0.057-6.23c0.512-1.988,1.525-3.652,3.031-4.998
			c1.492-1.344,3.512-2.346,6.051-3.02c3.832-1.016,7.092-0.764,9.779,0.74c2.701,1.506,4.617,4.172,5.77,8l-6.486,2.086
			c-0.842-2.045-1.869-3.365-3.043-3.965c-1.184-0.592-2.654-0.662-4.422-0.193s-3.033,1.195-3.795,2.188
			c-0.766,0.99-0.992,2.039-0.707,3.133c0.285,1.084,0.957,1.869,2.027,2.383c1.061,0.51,3.271,0.787,6.623,0.846
			c3.557,0.09,6.201,0.455,7.943,1.129c1.756,0.66,3.238,1.732,4.457,3.189c1.209,1.473,2.145,3.385,2.77,5.768
			c0.912,3.441,0.617,6.621-0.877,9.529c-1.506,2.895-4.516,4.945-9.016,6.143C469.747,739.356,464.114,735.993,460.807,727.159z"/>
	</g>
	<g>
		<path fill="#008888" d="M503.926,728.629l-11.455-32.107l-9.402,3.361l-2.334-6.541l25.176-8.98l2.324,6.541l-9.379,3.35
			l11.453,32.098L503.926,728.629z"/>
	</g>
	<g>
		<path fill="#008888" d="M523.907,721.323l-16.959-37.352l22.727-10.324l2.873,6.318l-16.561,7.523l3.76,8.277l15.387-6.984
			l2.861,6.293l-15.387,6.986l4.604,10.143l17.119-7.779l2.873,6.322L523.907,721.323z"/>
	</g>
	<g>
		<path fill="#008888" d="M531.067,673.118l10.814-6.049c2.725-1.525,4.957-2.371,6.689-2.541c1.732-0.166,3.59,0.148,5.574,0.939
			c1.982,0.797,3.955,2.166,5.914,4.109c1.961,1.938,3.898,4.621,5.814,8.057c1.73,3.098,2.883,5.98,3.463,8.658
			c0.582,2.684,0.707,4.986,0.391,6.924c-0.332,1.939-1.072,3.664-2.213,5.193c-1.141,1.525-2.908,2.955-5.301,4.295l-11.125,6.217
			L531.067,673.118z M540.366,675.87l13.244,23.695l4.445-2.49c1.904-1.064,3.191-2.012,3.842-2.852
			c0.648-0.838,1.059-1.766,1.195-2.791c0.137-1.031-0.045-2.428-0.557-4.188c-0.527-1.762-1.494-3.922-2.92-6.475
			c-1.482-2.65-2.838-4.645-4.059-5.969c-1.221-1.32-2.461-2.205-3.727-2.648c-1.266-0.449-2.531-0.5-3.795-0.158
			c-0.945,0.25-2.611,1.043-4.98,2.371L540.366,675.87z"/>
	</g>
	<g>
		<path fill="#008888" d="M592.661,683.801l-24.152-33.168l18.646-13.572l4.082,5.609l-13.164,9.588l5.709,7.854l11.408-8.303
			l4.082,5.611l-11.398,8.303l10.258,14.088L592.661,683.801z"/>
	</g>
	<g>
		<path fill="#008888" d="M600.081,653.233c-3.205-3.697-5.291-7.217-6.27-10.555c-0.98-3.334-1.086-6.348-0.33-9.051
			c0.738-2.695,2.369-5.127,4.889-7.307c3.637-3.15,7.809-4.324,12.504-3.533c4.695,0.799,9.266,3.764,13.711,8.896
			c4.49,5.191,6.781,10.299,6.883,15.324c0.105,4.424-1.664,8.217-5.322,11.375c-3.682,3.191-7.682,4.428-12.023,3.717
			C609.163,661.28,604.477,658.329,600.081,653.233z M605.184,648.446c3.09,3.566,6.074,5.652,8.982,6.268
			c2.895,0.605,5.346,0.047,7.361-1.691c2.018-1.75,2.93-4.078,2.725-7.004c-0.205-2.918-1.902-6.211-5.07-9.881
			c-3.111-3.598-6.064-5.697-8.848-6.293c-2.779-0.609-5.219,0-7.305,1.809c-2.098,1.807-3.043,4.148-2.85,7.02
			C600.366,641.54,602.028,644.797,605.184,648.446z"/>
	</g>
	<g>
		<path fill="#008888" d="M638.649,646.155l-29.383-28.643l9.982-10.236c2.555-2.621,4.65-4.227,6.27-4.836s3.432-0.646,5.438-0.088
			c2.006,0.549,3.922,1.703,5.732,3.477c2.291,2.24,3.613,4.594,3.943,7.068c0.318,2.467-0.32,4.891-1.938,7.271
			c1.766-0.311,3.418-0.373,4.969-0.188c1.551,0.188,4.057,0.813,7.5,1.873l8.584,2.662l-5.654,5.801l-9.824-2.719
			c-3.557-0.98-5.836-1.525-6.861-1.643c-1.016-0.111-1.893-0.021-2.609,0.273c-0.707,0.285-1.619,0.996-2.713,2.121l-0.971,1.004
			l12.266,11.955L638.649,646.155z M626.418,624.784l3.521-3.611c2.143-2.201,3.42-3.699,3.807-4.492
			c0.4-0.787,0.479-1.656,0.252-2.604c-0.217-0.947-0.822-1.898-1.789-2.846c-0.936-0.91-1.869-1.459-2.805-1.641
			c-0.936-0.176-1.813-0.053-2.654,0.381c-0.594,0.313-1.949,1.559-4.07,3.734l-3.715,3.807L626.418,624.784z"/>
	</g>
	<g>
		<path fill="#008888" d="M672.59,608.006l-27.127-20.637l-6.051,7.949l-5.529-4.203l16.186-21.27l5.527,4.203l-6.027,7.928
			l27.127,20.639L672.59,608.006z"/>
	</g>
	<g>
		<path fill="#008888" d="M665.493,583.877c-4.105-2.664-7.092-5.461-8.949-8.395c-1.869-2.938-2.814-5.795-2.838-8.604
			c-0.035-2.801,0.855-5.594,2.668-8.375c2.621-4.041,6.291-6.326,11.031-6.867c4.73-0.541,9.951,1.031,15.639,4.73
			c5.756,3.742,9.381,8.008,10.873,12.805c1.336,4.217,0.686,8.367-1.949,12.412c-2.654,4.086-6.166,6.387-10.529,6.906
			C676.456,589.084,671.131,587.547,665.493,583.877z M669.057,577.86c3.967,2.568,7.422,3.744,10.373,3.52
			c2.953-0.217,5.162-1.436,6.611-3.662c1.447-2.24,1.674-4.736,0.66-7.482c-1.002-2.748-3.547-5.443-7.613-8.08
			c-3.99-2.6-7.396-3.797-10.236-3.6c-2.848,0.189-5.014,1.455-6.52,3.77c-1.504,2.324-1.768,4.832-0.797,7.545
			C662.514,572.571,665.024,575.239,669.057,577.86z"/>
	</g>
	<g>
		<path fill="#008888" d="M698.489,570.155l-13.406-20.287l-22.326,0.102l3.729-7.01l13.961-0.125l-7.693-11.684l3.682-6.938
			l12.377,18.541l24.357-0.229l-3.854,7.234l-15.773,0.068l8.766,13.139L698.489,570.155z"/>
	</g>
	<g>
		<path fill="#008888" d="M714.204,539.795l-37.373-16.936l2.805-6.176l37.361,16.939L714.204,539.795z"/>
	</g>
	<g>
		<path fill="#008888" d="M720.461,525.883l-38.363-14.543l2.348-6.178L714.932,502l-25.609-9.711l2.248-5.908l38.352,14.543
			l-2.416,6.383l-29.814,3.182l25.018,9.486L720.461,525.883z"/>
	</g>
	<g>
		<path fill="#008888" d="M718.618,492.016l1.035-6.594c5.242,0.695,8.436-0.947,9.553-4.934c0.559-1.975,0.479-3.678-0.24-5.098
			c-0.717-1.424-1.836-2.348-3.361-2.779c-0.9-0.25-1.723-0.262-2.463-0.045c-0.73,0.217-1.414,0.676-2.053,1.367
			c-0.627,0.693-1.855,2.467-3.68,5.305c-1.619,2.549-3.111,4.326-4.457,5.346c-1.357,1.014-2.941,1.682-4.764,1.988
			c-1.814,0.32-3.648,0.213-5.494-0.309c-2.166-0.604-3.969-1.641-5.402-3.1c-1.459-1.459-2.371-3.18-2.77-5.152
			c-0.4-1.971-0.24-4.223,0.479-6.752c1.061-3.807,2.93-6.492,5.596-8.055c2.666-1.555,5.939-1.857,9.826-0.904l-1.494,6.65
			c-2.199-0.309-3.863-0.104-4.969,0.607c-1.119,0.715-1.916,1.957-2.406,3.711c-0.502,1.762-0.514,3.227-0.045,4.385
			c0.467,1.154,1.242,1.887,2.336,2.193c1.072,0.301,2.109,0.125,3.078-0.537c0.98-0.654,2.35-2.414,4.092-5.275
			c1.881-3.018,3.543-5.107,5.016-6.279c1.459-1.17,3.133-1.904,5.004-2.207c1.881-0.309,4-0.131,6.383,0.541
			c3.432,0.959,6.008,2.828,7.75,5.592c1.744,2.766,1.982,6.395,0.719,10.885C733.661,490.506,727.893,493.657,718.618,492.016z"/>
	</g>
	<g>
		<path fill="#008888" d="M68.016,410.831l-41.021,0.655l-0.159-10.153l27.907-6.567l-28.107-5.618l-0.159-10.201l41.02-0.654
			l0.103,6.321l-32.325,0.517l32.427,6.189l0.108,6.535l-32.222,7.17l32.324-0.513L68.016,410.831z"/>
	</g>
	<g>
		<path fill="#008888" d="M67.913,369.448l-40.878-3.473L29.15,341.1l6.919,0.588l-1.544,18.127l9.061,0.769l1.437-16.843
			l6.889,0.586l-1.431,16.843l11.09,0.941l1.595-18.739l6.914,0.588L67.913,369.448z"/>
	</g>
	<g>
		<path fill="#008888" d="M30.227,334.505l2.268-12.179c0.576-3.078,1.351-5.334,2.336-6.772c0.98-1.437,2.405-2.662,4.28-3.677
			c1.887-1.014,4.2-1.654,6.941-1.92c2.748-0.266,6.046-0.04,9.917,0.681c3.488,0.649,6.445,1.612,8.873,2.881
			c2.428,1.269,4.286,2.647,5.563,4.141c1.282,1.489,2.136,3.16,2.582,5.014c0.444,1.855,0.416,4.132-0.092,6.822l-2.336,12.535
			L30.227,334.505z M38.291,329.121l26.683,4.98l0.935-5.01c0.398-2.145,0.489-3.735,0.267-4.776
			c-0.228-1.036-0.684-1.938-1.384-2.704c-0.701-0.768-1.892-1.517-3.579-2.247c-1.682-0.734-3.96-1.366-6.838-1.9
			c-2.986-0.56-5.38-0.796-7.175-0.703c-1.801,0.089-3.277,0.482-4.434,1.167c-1.151,0.688-2,1.624-2.542,2.814
			c-0.41,0.889-0.866,2.674-1.368,5.352L38.291,329.121z"/>
	</g>
	<g>
		<path fill="#008888" d="M76.776,311.02l-39.785-10.004l1.647-6.569l39.79,10.005L76.776,311.02z"/>
	</g>
	<g>
		<path fill="#008888" d="M79.169,301.144l-7.152-2.273L52.031,273.98l-4.747,14.947l-6.617-2.099l7.46-23.474l6.133,1.948
			l20.771,25.922l5.803-18.239l6.616,2.102L79.169,301.144z"/>
	</g>
	<g>
		<path fill="#008888" d="M88.498,273.458L50.23,258.677l2.439-6.316l38.268,14.783L88.498,273.458z"/>
	</g>
	<g>
		<path fill="#008888" d="M93.137,261.406l-37.095-17.521l2.822-5.973l30.648-0.751l-24.768-11.699l2.696-5.719l37.099,17.521
			l-2.917,6.171l-29.977,0.826l24.191,11.428L93.137,261.406z"/>
	</g>
	<g>
		<path fill="#008888" d="M107.771,232.239l-35.737-20.146l3.329-5.896l35.731,20.144L107.771,232.239z"/>
	</g>
	<g>
		<path fill="#008888" d="M101.862,214.952l3.01-5.968c4.787,2.273,8.319,1.688,10.611-1.766c1.128-1.71,1.572-3.352,1.333-4.927
			c-0.251-1.569-1.026-2.795-2.359-3.675c-0.77-0.513-1.538-0.78-2.313-0.798c-0.77-0.016-1.562,0.213-2.377,0.677
			c-0.815,0.466-2.524,1.773-5.129,3.922c-2.331,1.924-4.291,3.164-5.888,3.721c-1.595,0.555-3.311,0.698-5.14,0.438
			c-1.823-0.257-3.539-0.92-5.141-1.98c-1.869-1.237-3.259-2.771-4.193-4.605c-0.93-1.836-1.277-3.754-1.05-5.751
			c0.218-1.998,1.061-4.092,2.514-6.282c2.183-3.301,4.787-5.282,7.802-5.947c3.009-0.668,6.224,0.049,9.62,2.143l-3.454,5.871
			c-1.994-0.964-3.636-1.277-4.912-0.941c-1.276,0.343-2.422,1.272-3.431,2.797c-1.009,1.522-1.471,2.91-1.379,4.156
			c0.091,1.244,0.604,2.184,1.55,2.809c0.935,0.616,1.96,0.762,3.095,0.433c1.134-0.327,2.969-1.579,5.516-3.771
			c2.708-2.293,4.937-3.775,6.686-4.438c1.755-0.667,3.566-0.854,5.448-0.574c1.88,0.284,3.847,1.108,5.903,2.475
			c2.97,1.966,4.855,4.529,5.666,7.697c0.813,3.166-0.069,6.695-2.646,10.581C116.65,218.12,110.2,219.353,101.862,214.952z"/>
	</g>
	<g>
		<path fill="#008888" d="M132.494,170.015l6.12-3.511c2.919,3.681,4.451,7.123,4.594,10.31c0.147,3.188-0.878,6.14-3.077,8.851
			c-2.759,3.407-6.304,5.11-10.646,5.102c-5.003-0.015-10.075-2.109-15.227-6.279c-5.437-4.398-8.696-9.069-9.785-14.013
			c-0.946-4.295,0.04-8.241,2.958-11.84c2.37-2.933,5.362-4.576,8.958-4.93c2.564-0.257,5.505,0.42,8.834,2.032l-2.701,6.454
			c-1.995-1.063-3.864-1.472-5.586-1.224c-1.727,0.254-3.134,1.056-4.228,2.406c-1.567,1.931-2.007,4.188-1.312,6.77
			c0.701,2.578,2.98,5.439,6.851,8.575c4.023,3.25,7.351,4.972,10.019,5.154c2.655,0.184,4.753-0.678,6.292-2.576
			c1.128-1.394,1.561-3.031,1.311-4.918C135.605,174.489,134.476,172.364,132.494,170.015z"/>
	</g>
	<g>
		<path fill="#008888" d="M149.573,173.195l-29.28-28.736l4.741-4.833l11.522,11.311l9.353-9.529l-11.523-11.31l4.742-4.832
			L168.413,154l-4.74,4.832l-12.812-12.565l-9.346,9.529l12.805,12.565L149.573,173.195z"/>
	</g>
	<g>
		<path fill="#008888" d="M185.493,120.101l-4.273-5.471l11.54-9.007l10.058,12.882c-0.091,2.28-0.826,4.735-2.188,7.39
			c-1.367,2.648-3.11,4.812-5.265,6.488c-2.616,2.046-5.427,3.202-8.43,3.475c-3.003,0.276-6.092-0.413-9.273-2.067
			c-3.168-1.653-6.109-4.215-8.815-7.683c-2.779-3.565-4.564-7.067-5.351-10.518c-0.799-3.456-0.735-6.545,0.183-9.271
			c0.912-2.727,2.685-5.117,5.312-7.172c3.168-2.469,6.326-3.642,9.487-3.517c3.164,0.122,6.229,1.533,9.216,4.224l-4.348,5.348
			c-1.699-1.352-3.414-2.055-5.168-2.111c-1.746-0.058-3.353,0.493-4.824,1.641c-2.277,1.781-3.439,4.104-3.464,6.976
			c-0.029,2.878,1.374,6.127,4.211,9.763c3.045,3.897,6.116,6.263,9.233,7.1c2.672,0.729,5.129,0.218,7.369-1.529
			c1.036-0.814,1.938-1.904,2.678-3.273c0.74-1.371,1.22-2.824,1.442-4.363l-3.196-4.092L185.493,120.101z"/>
	</g>
	<g>
		<path fill="#008888" d="M206.541,123.387l-21.998-34.633l21.074-13.387l3.721,5.861l-15.358,9.754l4.879,7.677l14.269-9.064
			l3.705,5.836l-14.271,9.063l5.972,9.398l15.878-10.084l3.721,5.86L206.541,123.387z"/>
	</g>
	<g>
		<path fill="#008888" d="M235.041,106.048l-16.118-30.034l-8.806,4.725l-3.28-6.114l23.546-12.637l3.283,6.115l-8.775,4.71
			l16.116,30.033L235.041,106.048z"/>
	</g>
	<g>
		<path fill="#008888" d="M250.438,98.051l-16.209-37.686l22.933-9.862l2.742,6.378l-16.708,7.185l3.588,8.355l15.53-6.679
			l2.729,6.349l-15.527,6.678L253.914,89l17.278-7.432l2.742,6.378L250.438,98.051z"/>
	</g>
	<g>
		<path fill="#008888" d="M268.24,75.898l6.019-2.904c2.411,4.717,5.575,6.4,9.495,5.052c1.938-0.666,3.287-1.699,4.052-3.094
			c0.765-1.396,0.884-2.844,0.371-4.349c-0.303-0.877-0.753-1.559-1.356-2.046c-0.599-0.479-1.368-0.78-2.298-0.908
			c-0.928-0.126-3.082-0.128-6.456-0.009c-3.021,0.11-5.329-0.1-6.93-0.633c-1.608-0.529-3.056-1.458-4.348-2.778
			c-1.295-1.313-2.252-2.884-2.879-4.699c-0.729-2.12-0.899-4.187-0.523-6.212c0.382-2.02,1.271-3.755,2.666-5.2
			c1.396-1.45,3.335-2.598,5.824-3.456c3.739-1.286,7.011-1.28,9.809,0.028c2.797,1.306,4.907,3.83,6.332,7.563l-6.314,2.553
			c-0.999-1.983-2.11-3.229-3.33-3.736c-1.22-0.509-2.695-0.464-4.428,0.128c-1.726,0.599-2.934,1.414-3.619,2.462
			c-0.689,1.04-0.849,2.097-0.477,3.168c0.364,1.054,1.093,1.801,2.193,2.232c1.094,0.43,3.316,0.55,6.668,0.361
			c3.545-0.171,6.218,0.006,8.006,0.547c1.796,0.53,3.352,1.491,4.673,2.856c1.316,1.373,2.384,3.22,3.182,5.554
			c1.162,3.368,1.098,6.557-0.184,9.565c-1.288,3-4.136,5.266-8.549,6.781C278.043,87.41,272.173,84.463,268.24,75.898z"/>
	</g>
	<g>
		<path fill="#008888" d="M308.132,77.513l-8.217-33.076l-9.693,2.407l-1.677-6.736l25.938-6.445l1.675,6.736l-9.671,2.402
			l8.224,33.079L308.132,77.513z"/>
	</g>
	<g>
		<path fill="#008888" d="M324.962,73.589l-6.85-40.45l24.612-4.169l1.156,6.845l-17.935,3.038l1.521,8.966l16.664-2.824
			l1.155,6.816l-16.669,2.824l1.863,10.979l18.54-3.14l1.154,6.844L324.962,73.589z"/>
	</g>
	<g>
		<path fill="#008888" d="M358.1,69.068l-3.122-33.942l-9.948,0.915l-0.635-6.914l26.615-2.45l0.632,6.914l-9.923,0.915
			l3.129,33.942L358.1,69.068z"/>
	</g>
	<g>
		<path fill="#008888" d="M383.66,55.313l0.203-5.876l26.122,0.907l-0.201,5.875L383.66,55.313z"/>
	</g>
	<g>
		<path fill="#008888" d="M429.696,56.739l6.672,0.359c-0.166,5.294,1.795,8.291,5.875,9.004c2.023,0.353,3.705,0.103,5.045-0.758
			c1.338-0.85,2.146-2.057,2.42-3.625c0.16-0.911,0.092-1.732-0.197-2.45c-0.293-0.707-0.814-1.339-1.574-1.898
			c-0.754-0.563-2.639-1.601-5.646-3.123c-2.701-1.362-4.621-2.662-5.773-3.903c-1.145-1.23-1.967-2.748-2.467-4.53
			c-0.492-1.773-0.576-3.614-0.246-5.505c0.383-2.207,1.227-4.099,2.537-5.688c1.307-1.59,2.922-2.678,4.842-3.271
			c1.924-0.598,4.18-0.667,6.773-0.217c3.896,0.678,6.752,2.263,8.57,4.759c1.822,2.49,2.457,5.722,1.9,9.671l-6.77-0.804
			c0.086-2.223-0.285-3.847-1.104-4.877c-0.826-1.037-2.137-1.71-3.943-2.024c-1.797-0.313-3.248-0.177-4.355,0.405
			c-1.104,0.582-1.754,1.43-1.949,2.553c-0.191,1.094,0.092,2.097,0.846,3.003c0.752,0.906,2.645,2.085,5.666,3.54
			c3.189,1.561,5.439,3.002,6.758,4.341c1.311,1.333,2.209,2.924,2.699,4.759c0.498,1.841,0.537,3.966,0.115,6.4
			c-0.615,3.511-2.205,6.269-4.781,8.286c-2.568,2.006-6.16,2.615-10.754,1.818C432.725,71.55,429.008,66.136,429.696,56.739z"/>
	</g>
	<g>
		<path fill="#008888" d="M482.733,66.267l5.705,4.148c-2.164,4.172-4.674,6.98-7.523,8.411c-2.848,1.442-5.961,1.716-9.334,0.821
			c-4.24-1.123-7.236-3.659-9.016-7.625c-2.027-4.565-2.199-10.059-0.502-16.464c1.783-6.759,4.707-11.648,8.775-14.668
			c3.529-2.622,7.535-3.334,12.014-2.149c3.648,0.963,6.373,3.015,8.162,6.16c1.285,2.228,1.869,5.192,1.766,8.891l-6.996,0.17
			c0.152-2.256-0.24-4.12-1.176-5.596c-0.934-1.465-2.238-2.422-3.922-2.867c-2.402-0.639-4.639-0.108-6.711,1.579
			c-2.074,1.692-3.738,4.946-5.016,9.756c-1.324,4.998-1.527,8.749-0.605,11.25c0.924,2.502,2.564,4.063,4.926,4.686
			c1.73,0.46,3.406,0.182,5.025-0.821C479.922,70.935,481.399,69.047,482.733,66.267z"/>
	</g>
	<g>
		<path fill="#008888" d="M486.51,83.193l14.316-38.445l6.348,2.36l-5.631,15.131l12.516,4.655l5.629-15.125l6.34,2.359
			l-14.314,38.451l-6.34-2.365l6.258-16.812l-12.514-4.661l-6.258,16.816L486.51,83.193z"/>
	</g>
	<g>
		<path fill="#008888" d="M543.295,107.839l-6.617-3.219l1.42-9.644l-12.109-5.898l-6.566,7.136l-6.49-3.163l29.742-31.15
			l6.469,3.152L543.295,107.839z M539.168,87.78l2.496-15.723L530.893,83.75L539.168,87.78z"/>
	</g>
	<g>
		<path fill="#008888" d="M563.809,72.689l10.563,6.463c2.672,1.636,4.508,3.168,5.5,4.594c0.99,1.431,1.629,3.202,1.902,5.316
			c0.279,2.12,0.059,4.508-0.684,7.164c-0.729,2.661-2.121,5.665-4.172,9.026c-1.854,3.021-3.803,5.443-5.859,7.261
			c-2.051,1.813-4.002,3.055-5.846,3.722c-1.848,0.655-3.717,0.866-5.607,0.621c-1.895-0.251-4-1.094-6.338-2.52l-10.875-6.655
			L563.809,72.689z M565.959,82.138l-14.174,23.154l4.348,2.662c1.863,1.139,3.324,1.789,4.367,1.949
			c1.053,0.159,2.057,0.056,3.025-0.332c0.963-0.375,2.084-1.218,3.373-2.529c1.287-1.317,2.689-3.22,4.219-5.711
			c1.584-2.599,2.654-4.752,3.215-6.463c0.557-1.709,0.717-3.225,0.488-4.547c-0.229-1.328-0.811-2.456-1.721-3.385
			c-0.686-0.707-2.189-1.767-4.514-3.191L565.959,82.138z"/>
	</g>
	<g>
		<path fill="#008888" d="M575.807,112.69l5.771,3.357c-2.553,4.639-2.176,8.2,1.137,10.69c1.635,1.23,3.254,1.778,4.838,1.624
			c1.578-0.148,2.85-0.861,3.801-2.126c0.559-0.74,0.873-1.499,0.939-2.268c0.063-0.764-0.113-1.573-0.535-2.416
			c-0.422-0.839-1.625-2.622-3.607-5.347c-1.783-2.438-2.9-4.473-3.361-6.104c-0.461-1.624-0.5-3.345-0.133-5.151
			c0.365-1.806,1.131-3.482,2.281-5.021c1.346-1.79,2.963-3.089,4.85-3.91c1.887-0.819,3.824-1.054,5.807-0.706
			c1.979,0.342,4.023,1.311,6.121,2.884c3.164,2.382,4.982,5.101,5.471,8.149c0.484,3.043-0.42,6.205-2.719,9.477l-5.646-3.8
			c1.082-1.938,1.494-3.557,1.227-4.851c-0.264-1.293-1.123-2.491-2.584-3.596c-1.457-1.095-2.82-1.636-4.066-1.618
			c-1.248,0.011-2.213,0.473-2.896,1.379c-0.672,0.895-0.877,1.914-0.613,3.065c0.25,1.151,1.4,3.055,3.432,5.728
			c2.131,2.844,3.477,5.157,4.033,6.941c0.564,1.783,0.639,3.607,0.25,5.465c-0.396,1.864-1.332,3.773-2.82,5.745
			c-2.137,2.85-4.814,4.581-8.023,5.209c-3.207,0.615-6.674-0.474-10.398-3.278C571.76,127.256,570.913,120.742,575.807,112.69z"/>
	</g>
	<g>
		<path fill="#008888" d="M598.124,147.442l22.688-25.44l-7.451-6.645l4.615-5.187l19.945,17.792l-4.617,5.181l-7.441-6.633
			l-22.682,25.439L598.124,147.442z"/>
	</g>
	<g>
		<path fill="#008888" d="M624.469,143.903c3.551-3.362,6.973-5.607,10.26-6.736c3.287-1.128,6.297-1.379,9.025-0.752
			c2.73,0.627,5.232,2.143,7.523,4.554c3.311,3.493,4.68,7.608,4.096,12.339c-0.582,4.724-3.332,9.426-8.258,14.099
			c-4.979,4.717-9.979,7.249-14.992,7.578c-4.418,0.308-8.285-1.292-11.609-4.799c-3.352-3.533-4.773-7.481-4.262-11.852
			C616.85,153.346,619.586,148.542,624.469,143.903z M629.491,148.786c-3.426,3.244-5.373,6.333-5.854,9.263
			c-0.479,2.917,0.193,5.345,2.023,7.271c1.84,1.938,4.211,2.739,7.119,2.404c2.904-0.336,6.119-2.177,9.643-5.518
			c3.453-3.271,5.412-6.308,5.885-9.116c0.48-2.804-0.232-5.21-2.137-7.217c-1.902-2.005-4.285-2.849-7.145-2.535
			C636.165,143.658,632.983,145.475,629.491,148.786z"/>
	</g>
	<g>
		<path fill="#008888" d="M632.233,182.068l32.336-25.246l14.188,18.18l-5.471,4.273l-10.018-12.839l-7.654,5.979l8.68,11.111
			l-5.471,4.275l-8.68-11.118l-13.74,10.731L632.233,182.068z"/>
	</g>
	<g>
		<path fill="#008888" d="M648.247,202.943l34.084-22.835l12.834,19.158l-5.766,3.864l-9.068-13.535l-8.068,5.409l7.854,11.717
			l-5.768,3.864l-7.85-11.717l-14.48,9.704L648.247,202.943z"/>
	</g>
	<g>
		<path fill="#008888" d="M683.18,231.483l6.109-3.283l6.924,12.903l-14.4,7.727c-2.229-0.483-4.525-1.617-6.906-3.407
			c-2.383-1.794-4.219-3.886-5.506-6.286c-1.574-2.93-2.24-5.893-1.996-8.901c0.234-3.01,1.438-5.938,3.607-8.787
			c2.166-2.844,5.193-5.306,9.068-7.387c3.977-2.137,7.732-3.299,11.27-3.497c3.535-0.195,6.572,0.386,9.105,1.754
			c2.533,1.361,4.59,3.511,6.17,6.456c1.893,3.533,2.512,6.852,1.859,9.945c-0.656,3.095-2.57,5.881-5.729,8.354l-4.531-5.186
			c1.619-1.437,2.6-3.021,2.957-4.73c0.35-1.708,0.08-3.39-0.803-5.031c-1.369-2.547-3.465-4.085-6.287-4.6
			c-2.832-0.513-6.273,0.32-10.332,2.496c-4.365,2.343-7.215,4.97-8.559,7.899c-1.182,2.515-1.09,5.02,0.25,7.517
			c0.627,1.169,1.551,2.233,2.773,3.197c1.227,0.963,2.576,1.682,4.053,2.161l4.576-2.457L683.18,231.483z"/>
	</g>
	<g>
		<path fill="#008888" d="M676.717,251.857l37.688-16.214l9.863,22.933l-6.377,2.742l-7.186-16.711l-8.355,3.598l6.68,15.528
			l-6.354,2.73l-6.678-15.53l-10.23,4.399l7.432,17.28l-6.377,2.739L676.717,251.857z"/>
	</g>
	<g>
		<path fill="#008888" d="M687.118,277.012l38.959-12.862l3.42,10.365c1.273,3.864,1.924,6.451,1.941,7.762
			c0.021,2.093-0.746,4.081-2.303,5.961c-1.563,1.881-3.893,3.335-6.998,4.355c-2.811,0.935-5.346,1.18-7.602,0.74
			c-2.256-0.434-4.031-1.317-5.334-2.656c-1.295-1.339-2.584-3.961-3.871-7.853l-1.396-4.229l-14.689,4.856L687.118,277.012z
			 M721.6,272.76l-11.076,3.659l1.18,3.566c0.793,2.399,1.498,3.973,2.121,4.72c0.621,0.751,1.463,1.259,2.521,1.516
			c1.063,0.263,2.234,0.184,3.512-0.239c1.301-0.433,2.297-1.078,2.998-1.938c0.693-0.861,1.059-1.757,1.088-2.691
			c0.023-0.935-0.408-2.75-1.305-5.446L721.6,272.76z"/>
	</g>
	<g>
		<path fill="#008888" d="M695.792,304.133l40.053-8.885l3.1,13.962c0.793,3.566,0.996,6.2,0.615,7.888
			c-0.381,1.687-1.346,3.22-2.906,4.599c-1.557,1.379-3.572,2.342-6.053,2.89c-3.129,0.694-5.816,0.506-8.068-0.57
			c-2.24-1.082-3.914-2.951-5.025-5.607c-0.703,1.646-1.563,3.064-2.564,4.263c-1.004,1.201-2.902,2.947-5.678,5.249l-6.924,5.721
			l-1.756-7.914l7.646-6.732c2.771-2.427,4.48-4.035,5.143-4.832c0.648-0.791,1.047-1.567,1.195-2.331
			c0.146-0.758,0.053-1.902-0.289-3.43l-0.305-1.367l-16.719,3.709L695.792,304.133z M720.372,305.621l1.09,4.918
			c0.666,3.003,1.223,4.883,1.674,5.647c0.443,0.758,1.123,1.306,2.035,1.635c0.916,0.336,2.035,0.354,3.367,0.063
			c1.275-0.285,2.244-0.771,2.908-1.454c0.658-0.678,1.043-1.493,1.133-2.428c0.063-0.668-0.234-2.486-0.889-5.449l-1.15-5.188
			L720.372,305.621z"/>
	</g>
	<g>
		<path fill="#008888" d="M742.852,328.416l0.881,6.713l-22.033,2.879c-3.426,0.443-5.643,0.819-6.65,1.122
			c-1.768,0.53-3.061,1.425-3.887,2.674c-0.844,1.248-1.135,2.793-0.896,4.626c0.205,1.556,0.719,2.782,1.533,3.67
			c0.826,0.896,1.873,1.437,3.146,1.643c1.281,0.198,3.947,0.039,7.992-0.491l22.512-2.94l0.879,6.719l-21.365,2.786
			c-5.459,0.714-9.443,0.938-11.955,0.674c-2.508-0.268-4.65-1.323-6.43-3.168c-1.766-1.848-2.877-4.452-3.316-7.798
			c-0.455-3.481-0.178-6.272,0.822-8.387c0.99-2.114,2.563-3.763,4.717-4.937c2.145-1.173,6.264-2.154,12.35-2.951L742.852,328.416z
			 M747.897,333.573l6.689-0.877l0.719,5.492l-6.689,0.873L747.897,333.573z M749.172,343.37l6.691-0.877l0.719,5.492l-6.691,0.873
			L749.172,343.37z"/>
	</g>
	<g>
		<path fill="#008888" d="M705.799,364.176l40.992-1.692l0.945,23.04l-6.932,0.285l-0.672-16.271l-9.705,0.4l0.582,14.087
			l-6.936,0.29l-0.582-14.093l-17.416,0.719L705.799,364.176z"/>
	</g>
	<g>
		<path fill="#008888" d="M706.331,397.889l34.061,1.173l0.344-9.983l6.936,0.237l-0.924,26.711l-6.936-0.239l0.348-9.959
			l-34.063-1.177L706.331,397.889z"/>
	</g>
	<g>
		<path fill="#008888" d="M471.079,435.079v-5.961l14.059-21.152h-12.475v-5.518h19.588v5.116l-14.645,21.999h15.221v5.516H471.079z
			"/>
		<path fill="#008888" d="M506.975,427.581l5.104,1.047c-0.688,2.371-1.746,4.139-3.193,5.289c-1.436,1.152-3.189,1.723-5.254,1.723
			c-2.873,0-5.084-0.959-6.645-2.873c-1.848-2.232-2.766-5.357-2.766-9.367c0-3.956,0.93-7.126,2.781-9.508
			c1.572-2.008,3.607-3.01,6.104-3.01c2.77,0,4.947,1.027,6.521,3.078c1.813,2.349,2.711,5.813,2.711,10.396l-0.021,0.705h-12.84
			c0.027,1.881,0.449,3.328,1.26,4.363c0.809,1.029,1.789,1.541,2.939,1.541C505.331,430.963,506.422,429.834,506.975,427.581z
			 M507.243,421.23c-0.043-1.845-0.434-3.237-1.176-4.161c-0.744-0.932-1.627-1.4-2.652-1.4c-1.082,0-1.996,0.49-2.734,1.459
			c-0.76,0.98-1.131,2.349-1.119,4.104L507.243,421.23L507.243,421.23z"/>
	</g>
	<g>
		<path fill="#008888" d="M520.692,435.079h-5.139V411.44h4.764v3.361c0.809-1.572,1.545-2.619,2.189-3.135
			c0.648-0.523,1.391-0.787,2.238-0.787c1.168,0,2.291,0.4,3.357,1.188l-1.598,5.448c-0.85-0.685-1.652-1.027-2.404-1.027
			c-0.719,0-1.346,0.274-1.881,0.8c-0.547,0.524-0.934,1.48-1.176,2.859c-0.23,1.381-0.354,3.922-0.354,7.625v7.307H520.692z"/>
		<path fill="#008888" d="M539.852,411.44v4.993h-3.492v9.538c0,2.063,0.051,3.262,0.154,3.592c0.209,0.594,0.633,0.891,1.271,0.891
			c0.473,0,1.156-0.207,2.045-0.605l0.445,4.855c-1.188,0.625-2.529,0.936-4.023,0.936c-1.311,0-2.354-0.311-3.141-0.936
			c-0.793-0.627-1.316-1.527-1.58-2.701c-0.209-0.855-0.316-2.609-0.316-5.256v-10.313h-2.361v-4.993h2.361v-4.694l5.146-3.648
			v8.344h3.49V411.44z"/>
	</g>
	<g>
		<path fill="#008888" d="M542.895,408.238v-5.79h5.146v5.79H542.895z M542.895,435.079V411.44h5.146v23.639H542.895z"/>
		<path fill="#008888" d="M550.659,411.44h2.85v-1.779c0-2.154,0.205-3.713,0.613-4.673c0.408-0.968,1.068-1.719,1.984-2.278
			c0.912-0.547,2.043-0.82,3.381-0.82c1.451,0,2.883,0.273,4.279,0.797l-0.668,4.345c-0.824-0.239-1.623-0.354-2.377-0.354
			c-0.729,0-1.26,0.205-1.584,0.628c-0.33,0.42-0.49,1.241-0.49,2.462v1.675h3.83v4.925h-3.83v18.715h-5.141v-18.715h-2.85v-4.926
			H550.659z M565.059,408.238v-5.79h5.146v5.79H565.059z M565.059,435.079V411.44h5.146v23.639H565.059z"/>
	</g>
	<g>
		<path fill="#008888" d="M574.639,435.079v-32.631h5.141v17.291l5.996-8.299h6.324l-6.635,8.652l7.102,14.986h-5.516l-4.918-10.635
			l-2.354,3.066v7.566h-5.141V435.079z"/>
	</g>
	<g>
		<path fill="#008888" d="M598.426,418.631l-4.65-1.025c0.563-2.393,1.492-4.104,2.793-5.152c1.299-1.047,3.168-1.572,5.602-1.572
			c2.164,0,3.824,0.31,4.965,0.912c1.141,0.617,1.959,1.437,2.449,2.485c0.49,1.048,0.73,2.952,0.73,5.722l-0.045,7.307
			c0,2.051,0.084,3.578,0.25,4.582c0.158,1.002,0.467,2.063,0.912,3.189h-5.078l-0.666-2.576c-0.877,1.039-1.813,1.826-2.814,2.35
			c-1.004,0.523-2.07,0.787-3.193,0.787c-1.891,0-3.432-0.639-4.633-1.904c-1.203-1.275-1.807-2.963-1.807-5.07
			c0-1.336,0.25-2.508,0.74-3.5c0.484-1.004,1.174-1.791,2.063-2.383c0.896-0.604,2.318-1.129,4.273-1.584
			c2.379-0.56,4.033-1.07,4.969-1.537c0-1.324-0.09-2.18-0.277-2.591c-0.188-0.407-0.531-0.751-1.023-1
			c-0.498-0.264-1.199-0.399-2.105-0.399c-0.924,0-1.641,0.205-2.172,0.627C599.178,416.706,598.754,417.493,598.426,418.631z
			 M605.288,423.725c-0.654,0.275-1.674,0.582-3.053,0.936c-1.584,0.424-2.623,0.879-3.113,1.391
			c-0.488,0.502-0.74,1.164-0.74,1.963c0,0.91,0.273,1.676,0.822,2.291c0.533,0.613,1.219,0.92,2.027,0.92
			c0.729,0,1.445-0.236,2.166-0.738c0.705-0.502,1.201-1.094,1.48-1.779c0.271-0.682,0.408-1.924,0.408-3.725v-1.258H605.288z"/>
		<path fill="#008888" d="M623.571,411.44v4.993h-3.5v9.538c0,2.063,0.059,3.262,0.158,3.592c0.205,0.594,0.629,0.891,1.268,0.891
			c0.477,0,1.162-0.207,2.051-0.605l0.443,4.855c-1.186,0.625-2.529,0.936-4.027,0.936c-1.307,0-2.354-0.311-3.141-0.936
			c-0.785-0.627-1.313-1.527-1.58-2.701c-0.209-0.855-0.313-2.609-0.313-5.256v-10.313h-2.357v-4.993h2.357v-4.694l5.143-3.648
			v8.344h3.498V411.44z"/>
	</g>
	<g>
		<path fill="#008888" d="M447.643,484.59v-5.961l14.061-21.154h-12.477v-5.516h19.59v5.117l-14.646,21.998h15.221v5.516H447.643z"
			/>
		<path fill="#008888" d="M469.625,475.895v-6.258h10.08v6.258H469.625z"/>
		<path fill="#008888" d="M495.606,484.59h-5.121v-23.57c-1.916,2.154-4.127,3.729-6.637,4.742v-5.678
			c1.426-0.58,2.902-1.604,4.432-3.1c1.525-1.482,2.592-3.203,3.184-5.143h4.145v32.748H495.606z"/>
		<path fill="#008888" d="M511.946,451.844c2.594,0,4.695,1.244,6.297,3.705c1.607,2.473,2.406,6.791,2.406,12.959
			c0,6.156-0.799,10.463-2.406,12.938c-1.602,2.473-3.691,3.705-6.279,3.705c-2.594,0-4.695-1.221-6.297-3.67
			c-1.602-2.453-2.4-6.795-2.4-13.041c0-6.119,0.799-10.418,2.4-12.891C507.266,453.088,509.364,451.844,511.946,451.844z
			 M511.952,457.03c-1.01,0-1.813,0.674-2.416,2.008c-0.605,1.334-0.906,4.49-0.906,9.471c0,4.982,0.303,8.139,0.906,9.461
			c0.604,1.334,1.406,1.994,2.416,1.994c1.031,0,1.848-0.672,2.439-2.004c0.592-1.336,0.889-4.48,0.889-9.451
			c0-4.979-0.297-8.137-0.889-9.471C513.797,457.704,512.983,457.03,511.952,457.03z"/>
		<path fill="#008888" d="M523.874,475.954l4.971-0.732c0.129,1.541,0.559,2.713,1.271,3.521c0.711,0.813,1.555,1.221,2.523,1.221
			c1.055,0,1.949-0.479,2.68-1.447c0.729-0.969,1.094-2.303,1.094-4.014c0-1.584-0.355-2.824-1.049-3.738
			c-0.707-0.898-1.551-1.354-2.555-1.354c-0.648,0-1.436,0.16-2.342,0.467l0.553-5.096c1.336,0.037,2.383-0.328,3.158-1.07
			c0.764-0.729,1.141-1.777,1.141-3.123c0-1.129-0.275-2.006-0.82-2.645c-0.559-0.639-1.266-0.957-2.127-0.957
			c-0.859,0-1.611,0.377-2.246,1.104c-0.631,0.74-1.008,1.826-1.129,3.26l-4.74-0.979c0.49-2.975,1.449-5.152,2.879-6.498
			c1.424-1.354,3.227-2.027,5.391-2.027c2.439,0,4.377,0.865,5.807,2.6c1.438,1.744,2.15,3.658,2.15,5.768
			c0,1.412-0.32,2.701-0.971,3.842c-0.639,1.141-1.605,2.143-2.9,2.998c1.5,0.396,2.721,1.287,3.666,2.654
			c0.938,1.357,1.412,3.066,1.412,5.117c0,2.984-0.891,5.449-2.668,7.396c-1.775,1.949-3.887,2.932-6.338,2.932
			c-2.346,0-4.336-0.822-5.961-2.463C525.092,481.045,524.149,478.799,523.874,475.954z"/>
		<path fill="#008888" d="M544.448,475.895v-6.258h10.082v6.258H544.448z"/>
		<path fill="#008888" d="M558.426,484.59v-32.631h8.68c3.234,0,5.355,0.158,6.348,0.465c1.584,0.502,2.895,1.586,3.926,3.229
			c1.031,1.65,1.547,3.771,1.547,6.371c0,2.359-0.445,4.33-1.334,5.926s-2,2.725-3.342,3.363c-1.332,0.648-3.635,0.971-6.893,0.971
			h-3.547v12.309h-5.385V484.59z M563.809,457.475v9.289h2.992c2.014,0,3.375-0.146,4.1-0.422c0.719-0.285,1.311-0.797,1.771-1.525
			c0.461-0.742,0.689-1.643,0.689-2.713c0-1.096-0.238-2.008-0.711-2.746c-0.475-0.742-1.068-1.244-1.762-1.494
			c-0.701-0.264-2.184-0.389-4.445-0.389H563.809L563.809,457.475z"/>
		<path fill="#008888" d="M583.426,484.59v-32.631h5.387v14.531l10.936-14.531h7.283l-10.088,12.719l10.623,19.912h-6.992
			l-7.379-15.328l-4.383,5.471v9.857H583.426z"/>
		<path fill="#008888" d="M608.797,475.895v-6.258h10.086v6.258H608.797z"/>
		<path fill="#008888" d="M630.331,451.844c2.598,0,4.695,1.244,6.301,3.705c1.604,2.473,2.406,6.791,2.406,12.959
			c0,6.156-0.805,10.463-2.406,12.938c-1.605,2.473-3.691,3.705-6.279,3.705c-2.598,0-4.693-1.221-6.303-3.67
			c-1.596-2.453-2.4-6.795-2.4-13.041c0-6.119,0.805-10.418,2.4-12.891C625.657,453.088,627.747,451.844,630.331,451.844z
			 M630.34,457.03c-1.014,0-1.818,0.674-2.422,2.008s-0.908,4.49-0.908,9.471c0,4.982,0.303,8.139,0.908,9.461
			c0.604,1.334,1.408,1.994,2.422,1.994c1.025,0,1.84-0.672,2.439-2.004c0.592-1.336,0.889-4.48,0.889-9.451
			c0-4.979-0.297-8.137-0.889-9.471C632.18,457.704,631.366,457.03,630.34,457.03z"/>
		<path fill="#008888" d="M659.827,459.95l-4.969,0.672c-0.24-2.416-1.209-3.635-2.924-3.635c-1.111,0-2.047,0.613-2.777,1.834
			c-0.74,1.209-1.205,3.67-1.4,7.363c0.639-0.924,1.357-1.607,2.145-2.074c0.785-0.455,1.656-0.686,2.607-0.686
			c2.098,0,3.922,0.969,5.482,2.918c1.563,1.949,2.348,4.547,2.348,7.773c0,3.441-0.826,6.145-2.471,8.104
			c-1.654,1.949-3.695,2.93-6.135,2.93c-2.678,0-4.895-1.266-6.654-3.818c-1.756-2.541-2.639-6.76-2.639-12.639
			c0-5.986,0.91-10.281,2.738-12.904c1.826-2.633,4.174-3.943,7.045-3.943c1.975,0,3.648,0.674,5.006,2.006
			C658.584,455.196,659.452,457.223,659.827,459.95z M648.2,473.604c0,2.063,0.389,3.635,1.15,4.73
			c0.77,1.082,1.643,1.627,2.627,1.627c0.953,0,1.744-0.455,2.379-1.354c0.633-0.9,0.945-2.385,0.945-4.445
			c0-2.131-0.344-3.684-1.025-4.662c-0.686-0.979-1.529-1.471-2.543-1.471c-0.979,0-1.816,0.469-2.5,1.402
			C648.542,470.368,648.2,471.756,648.2,473.604z"/>
	</g>
	<g>
		<path fill="#008888" d="M369.969,352.203l-7.939-30.397h6.414l4.678,19.923l4.326-19.923h6.31l4.162,19.923l4.82-19.923h6.498
			l-8.07,30.397h-6.289l-4.317-19.547l-4.241,19.547H369.969z"/>
		<path fill="#008888" d="M407.375,352.203l-7.941-30.397h6.414l4.68,19.923l4.324-19.923h6.314l4.162,19.923l4.822-19.923h6.494
			l-8.068,30.397h-6.291l-4.316-19.547l-4.244,19.547H407.375z"/>
		<path fill="#008888" d="M444.784,352.203l-7.938-30.397h6.41l4.684,19.923l4.32-19.923h6.314l4.16,19.923l4.82-19.923h6.498
			l-8.07,30.397h-6.291l-4.314-19.547l-4.244,19.547H444.784z"/>
	</g>
	<g>
		<path fill="#008888" d="M475.75,352.203v-8.04h6.59v8.04H475.75z"/>
		<path fill="#008888" d="M486.055,321.805h3.664v-2.285c0-2.771,0.264-4.771,0.787-6.012c0.529-1.244,1.379-2.219,2.553-2.919
			c1.182-0.707,2.627-1.061,4.35-1.061c1.869,0,3.703,0.343,5.504,1.032l-0.855,5.579c-1.07-0.308-2.09-0.456-3.063-0.456
			c-0.936,0-1.613,0.268-2.031,0.805c-0.42,0.535-0.631,1.589-0.631,3.162v2.154h4.924v6.325h-4.924v24.072h-6.611V328.13h-3.664
			v-6.325H486.055z"/>
		<path fill="#008888" d="M504.6,352.203v-41.96h6.611v22.236l7.709-10.674h8.133l-8.525,11.129l9.129,19.269h-7.096l-6.318-13.683
			l-3.031,3.948v9.734L504.6,352.203L504.6,352.203z"/>
		<path fill="#008888" d="M542.776,321.805v6.411h-4.496v12.27c0,2.656,0.068,4.194,0.205,4.616
			c0.264,0.764,0.811,1.146,1.631,1.146c0.609,0,1.486-0.259,2.633-0.771l0.57,6.242c-1.527,0.798-3.248,1.202-5.176,1.202
			c-1.682,0-3.031-0.404-4.035-1.209c-1.014-0.798-1.691-1.955-2.039-3.465c-0.264-1.104-0.398-3.362-0.398-6.765v-13.267h-3.033
			v-6.411h3.033v-6.034l6.609-4.697v10.73h4.496V321.805z"/>
		<path fill="#008888" d="M561.75,342.554l6.553,1.35c-0.877,3.05-2.246,5.318-4.092,6.795c-1.859,1.482-4.109,2.223-6.766,2.223
			c-3.689,0-6.535-1.237-8.543-3.699c-2.369-2.872-3.557-6.885-3.557-12.048c0-5.082,1.197-9.152,3.578-12.212
			c2.029-2.581,4.641-3.869,7.842-3.869c3.568,0,6.365,1.314,8.391,3.955c2.322,3.021,3.492,7.471,3.492,13.356l-0.027,0.919
			h-16.518c0.035,2.411,0.582,4.28,1.619,5.602c1.051,1.323,2.305,1.983,3.779,1.983
			C559.627,346.909,561.042,345.456,561.75,342.554z M562.088,334.399c-0.055-2.375-0.557-4.16-1.516-5.355
			c-0.949-1.198-2.086-1.797-3.402-1.797c-1.395,0-2.57,0.621-3.521,1.865c-0.975,1.264-1.451,3.031-1.43,5.287H562.088
			L562.088,334.399z"/>
		<path fill="#008888" d="M580.719,352.203l-10.104-30.397h6.906l4.709,15.517l1.365,5.175l1.396-5.175l4.77-15.517h6.76
			l-9.938,30.397H580.719z"/>
	</g>
	<g>
		<path fill="#008888" d="M597.799,352.203v-8.04h6.582v8.04H597.799z"/>
		<path fill="#008888" d="M625.643,342.554l6.557,1.35c-0.879,3.05-2.248,5.318-4.092,6.795c-1.859,1.482-4.109,2.223-6.768,2.223
			c-3.688,0-6.535-1.237-8.541-3.699c-2.371-2.872-3.559-6.885-3.559-12.048c0-5.082,1.199-9.152,3.58-12.212
			c2.027-2.581,4.641-3.869,7.842-3.869c3.568,0,6.365,1.314,8.389,3.955c2.324,3.021,3.494,7.471,3.494,13.356l-0.029,0.919H616
			c0.035,2.411,0.58,4.28,1.619,5.602c1.047,1.323,2.303,1.983,3.779,1.983C623.524,346.909,624.938,345.456,625.643,342.554z
			 M625.987,334.399c-0.059-2.375-0.561-4.16-1.518-5.355c-0.951-1.198-2.086-1.797-3.402-1.797c-1.396,0-2.568,0.621-3.521,1.865
			c-0.975,1.264-1.451,3.031-1.43,5.287H625.987L625.987,334.399z"/>
	</g>
	<g>
		<path fill="#008888" d="M654.229,352.203v-4.547c-0.912,1.646-2.107,2.941-3.602,3.869c-1.482,0.928-3.031,1.396-4.65,1.396
			c-1.643,0-3.111-0.434-4.398-1.295c-1.299-0.855-2.268-2.079-2.906-3.663c-0.639-1.585-0.959-3.887-0.959-6.907v-19.251h6.611
			v13.968c0,3.988,0.104,6.521,0.309,7.604c0.193,1.075,0.639,1.908,1.322,2.501c0.684,0.592,1.516,0.888,2.486,0.888
			c1.104,0,2.117-0.387,3.053-1.162c0.928-0.769,1.537-1.761,1.836-2.974c0.297-1.215,0.445-3.876,0.445-8.003v-12.821h6.609v30.397
			H654.229L654.229,352.203z"/>
	</g>
	<path fill="#008888" d="M387.069,774.133C173.638,774.133,0,600.5,0,387.071C0,173.638,173.638,0,387.069,0
		c213.425,0,387.064,173.638,387.064,387.071C774.133,600.5,600.495,774.133,387.069,774.133z M387.069,9.232
		C178.729,9.232,9.233,178.731,9.233,387.07c0,208.337,169.497,377.833,377.836,377.833c208.337,0,377.833-169.496,377.833-377.833
		C764.903,178.731,595.407,9.232,387.069,9.232z"/>
</g>
</svg>
