<?xml version="1.0" encoding="utf-8"?>
<!-- Generator: Adobe Illustrator 16.0.0, SVG Export Plug-In . SVG Version: 6.00 Build 0)  -->
<svg version="1.2" baseProfile="tiny" id="Layer_1" xmlns="http://www.w3.org/2000/svg" xmlns:xlink="http://www.w3.org/1999/xlink"
	 x="0px" y="0px" width="283.464px" height="283.465px" viewBox="0 0 283.464 283.465" overflow="scroll" xml:space="preserve">
<g>
	<g>
		<path d="M54.694,103.411c0-29.928,34.817-54.649,79.445-57.896V25.442c-55.697,3.624-99.484,37.198-99.484,77.968
			c0,40.78,43.787,74.357,99.484,77.978v-20.074C89.512,158.065,54.694,133.347,54.694,103.411z"/>
		<polygon points="79.972,71.992 79.972,91.972 97.891,91.972 97.891,141.277 116.222,141.277 116.222,91.972 134.14,91.972 
			134.14,71.992 		"/>
		<path d="M246.018,91.972h-78.256V48.521c18.766,4.362,34.619,12.721,45.24,23.471h25.049
			c-13.02-21.169-38.778-37.458-70.289-43.884c-6.44-1.313-13.119-2.219-19.983-2.666v155.946
			c6.864-0.448,13.543-1.354,19.983-2.666c42.125-8.59,73.893-34.822,78.769-66.77c0.426-2.813,0.727-5.649,0.727-8.542
			C247.257,99.521,246.789,95.713,246.018,91.972z M167.762,158.308v-46.354h58.457C221.34,133.469,198.397,151.188,167.762,158.308
			z"/>
	</g>
	<path d="M237.766,207.228H45.697C20.5,207.228,0,186.726,0,161.529V45.698C0,20.5,20.5,0,45.697,0h192.069
		c25.197,0,45.698,20.5,45.698,45.697v115.832C283.464,186.726,262.963,207.228,237.766,207.228z M45.697,11.424
		c-18.899,0-34.274,15.375-34.274,34.274v115.832c0,18.897,15.375,34.272,34.274,34.272h192.069
		c18.897,0,34.272-15.375,34.272-34.272V45.698c0-18.899-15.375-34.274-34.272-34.274H45.697z"/>
	<path d="M237.766,283.465H45.697C20.5,283.465,0,262.964,0,237.767V45.698C0,20.5,20.5,0,45.697,0h192.069
		c25.197,0,45.698,20.5,45.698,45.697v192.069C283.464,262.964,262.963,283.465,237.766,283.465z M45.697,11.424
		c-18.899,0-34.274,15.375-34.274,34.274v192.069c0,18.897,15.375,34.272,34.274,34.272h192.069
		c18.897,0,34.272-15.375,34.272-34.272V45.698c0-18.899-15.375-34.274-34.272-34.274H45.697z"/>
	<g>
		<path d="M53.484,218.007v43.943H42.058v-43.943H53.484z"/>
		<path d="M83.671,231.307H73.059v-3.257c0-1.52-0.136-2.487-0.407-2.905c-0.271-0.415-0.724-0.623-1.357-0.623
			c-0.688,0-1.208,0.281-1.561,0.842c-0.354,0.561-0.529,1.413-0.529,2.555c0,1.466,0.198,2.569,0.595,3.312
			c0.379,0.744,1.455,1.64,3.229,2.688c5.086,3.019,8.29,5.496,9.611,7.433c1.32,1.937,1.98,5.058,1.98,9.363
			c0,3.131-0.366,5.437-1.099,6.921c-0.733,1.483-2.149,2.728-4.248,3.73c-2.099,1.006-4.542,1.508-7.328,1.508
			c-3.058,0-5.668-0.578-7.831-1.737c-2.163-1.157-3.579-2.634-4.248-4.424c-0.67-1.791-1.004-4.334-1.004-7.628v-2.877h10.613
			v5.347c0,1.647,0.149,2.706,0.448,3.176c0.299,0.471,0.827,0.707,1.588,0.707c0.76,0,1.325-0.299,1.696-0.896
			c0.371-0.599,0.556-1.483,0.556-2.66c0-2.588-0.353-4.278-1.058-5.075c-0.724-0.798-2.507-2.128-5.348-3.991
			c-2.84-1.881-4.722-3.247-5.645-4.098c-0.923-0.85-1.688-2.026-2.294-3.528c-0.607-1.503-0.909-3.42-0.909-5.754
			c0-3.367,0.429-5.827,1.289-7.383c0.859-1.557,2.249-2.773,4.166-3.651c1.918-0.877,4.234-1.316,6.949-1.316
			c2.967,0,5.496,0.48,7.586,1.438c2.09,0.961,3.475,2.167,4.152,3.623c0.679,1.458,1.019,3.932,1.019,7.425V231.307z"/>
		<path d="M115.705,243.737c0,4.416-0.104,7.541-0.312,9.379c-0.208,1.836-0.86,3.515-1.954,5.034
			c-1.095,1.519-2.575,2.688-4.438,3.501c-1.864,0.814-4.035,1.222-6.514,1.222c-2.353,0-4.465-0.386-6.338-1.153
			c-1.872-0.77-3.378-1.923-4.519-3.461c-1.141-1.537-1.818-3.212-2.036-5.021c-0.218-1.811-0.326-4.977-0.326-9.501v-7.518
			c0-4.416,0.104-7.541,0.312-9.379c0.208-1.836,0.86-3.515,1.954-5.033c1.095-1.52,2.574-2.688,4.438-3.501
			c1.862-0.814,4.034-1.223,6.514-1.223c2.352,0,4.465,0.384,6.337,1.153s3.379,1.923,4.52,3.462c1.14,1.537,1.818,3.211,2.036,5.02
			c0.217,1.811,0.326,4.978,0.326,9.501V243.737z M104.278,229.299c0-2.045-0.113-3.354-0.339-3.922
			c-0.226-0.57-0.693-0.855-1.398-0.855c-0.598,0-1.054,0.229-1.371,0.692c-0.317,0.46-0.476,1.822-0.476,4.085v20.52
			c0,2.55,0.104,4.124,0.313,4.723c0.208,0.597,0.692,0.896,1.451,0.896c0.778,0,1.276-0.345,1.494-1.031
			c0.217-0.688,0.326-2.326,0.326-4.914V229.299z"/>
		<path d="M132.218,250.278h10.965c0,2.045,0.027,3.336,0.081,3.869c0.055,0.533,0.275,0.982,0.666,1.342
			c0.389,0.362,0.918,0.543,1.588,0.543c0.561,0,1.021-0.171,1.385-0.515c0.36-0.343,0.564-0.788,0.609-1.331
			c0.045-0.541,0.068-1.637,0.068-3.284V243.9c-0.543,1.177-1.357,2.059-2.442,2.647c-1.087,0.588-2.435,0.881-4.045,0.881
			c-2.008,0-3.781-0.543-5.319-1.629c-1.539-1.084-2.516-2.387-2.931-3.908c-0.417-1.52-0.625-3.574-0.625-6.161v-3.501
			c0-3.076,0.122-5.364,0.367-6.866c0.244-1.502,0.873-2.891,1.886-4.166c1.013-1.277,2.416-2.267,4.207-2.974
			c1.792-0.704,3.873-1.059,6.243-1.059c2.932,0,5.338,0.407,7.219,1.222c1.883,0.815,3.34,1.986,4.371,3.515
			c1.031,1.529,1.629,3.135,1.791,4.817c0.163,1.683,0.245,4.941,0.245,9.772v6.106c0,5.229-0.073,8.726-0.218,10.491
			c-0.146,1.763-0.773,3.434-1.887,5.006c-1.112,1.574-2.619,2.755-4.519,3.542c-1.899,0.788-4.099,1.182-6.595,1.182
			c-3.095,0-5.624-0.498-7.587-1.492c-1.964-0.996-3.375-2.396-4.235-4.207C132.648,255.311,132.218,253.029,132.218,250.278z
			 M143.183,236.572c0,1.846,0.239,2.985,0.72,3.42c0.479,0.436,0.973,0.651,1.479,0.651c0.759,0,1.316-0.275,1.669-0.828
			c0.354-0.551,0.529-1.632,0.529-3.243v-7.952c0-1.937-0.168-3.204-0.502-3.8c-0.336-0.599-0.892-0.896-1.67-0.896
			c-0.471,0-0.959,0.23-1.465,0.69c-0.507,0.463-0.761,1.706-0.761,3.733V236.572z"/>
		<path d="M189.575,232.881v14.656c0,3.33-0.182,5.754-0.543,7.275c-0.362,1.52-1.113,2.94-2.254,4.261
			c-1.139,1.32-2.514,2.271-4.125,2.85c-1.611,0.578-3.41,0.869-5.4,0.869c-2.625,0-4.805-0.305-6.541-0.909
			c-1.737-0.605-3.121-1.553-4.152-2.837c-1.033-1.285-1.765-2.638-2.199-4.059c-0.435-1.42-0.652-3.678-0.652-6.771v-15.335
			c0-4.034,0.349-7.057,1.045-9.064c0.697-2.009,2.082-3.619,4.154-4.833c2.07-1.21,4.582-1.818,7.53-1.818
			c2.407,0,4.562,0.421,6.461,1.264c1.899,0.84,3.319,1.867,4.261,3.079c0.941,1.213,1.578,2.578,1.914,4.1
			C189.407,227.127,189.575,229.553,189.575,232.881z M178.609,229.188c0-2.334-0.113-3.794-0.339-4.382
			c-0.227-0.589-0.756-0.882-1.588-0.882c-0.814,0-1.354,0.311-1.615,0.937c-0.262,0.624-0.395,2.066-0.395,4.327v21.444
			c0,2.551,0.123,4.089,0.367,4.612c0.244,0.525,0.773,0.787,1.588,0.787s1.348-0.307,1.602-0.923
			c0.253-0.613,0.38-1.999,0.38-4.152V229.188z"/>
		<path d="M220.766,232.881v14.656c0,3.33-0.182,5.754-0.544,7.275c-0.361,1.52-1.112,2.94-2.253,4.261
			c-1.14,1.32-2.515,2.271-4.126,2.85c-1.61,0.578-3.41,0.869-5.4,0.869c-2.624,0-4.805-0.305-6.541-0.909
			c-1.737-0.605-3.121-1.553-4.152-2.837c-1.032-1.285-1.765-2.638-2.199-4.059c-0.435-1.42-0.651-3.678-0.651-6.771v-15.335
			c0-4.034,0.349-7.057,1.045-9.064c0.696-2.009,2.081-3.619,4.153-4.833c2.071-1.21,4.582-1.818,7.531-1.818
			c2.406,0,4.561,0.421,6.46,1.264c1.9,0.84,3.32,1.867,4.262,3.079c0.94,1.213,1.578,2.578,1.913,4.1
			C220.597,227.127,220.766,229.553,220.766,232.881z M209.799,229.188c0-2.334-0.112-3.794-0.339-4.382
			c-0.227-0.589-0.756-0.882-1.587-0.882c-0.815,0-1.354,0.311-1.616,0.937c-0.262,0.624-0.394,2.066-0.394,4.327v21.444
			c0,2.551,0.123,4.089,0.367,4.612c0.244,0.525,0.773,0.787,1.588,0.787c0.813,0,1.348-0.307,1.602-0.923
			c0.252-0.613,0.379-1.999,0.379-4.152V229.188z"/>
		<path d="M243,218.007v43.943h-10.966v-23.56c0-3.4-0.081-5.445-0.244-6.134c-0.163-0.687-0.61-1.208-1.343-1.561
			c-0.733-0.353-2.366-0.529-4.9-0.529h-1.085v-5.122c5.302-1.142,9.328-3.487,12.078-7.038H243z"/>
	</g>
</g>
</svg>
