<?xml version="1.0" encoding="utf-8"?>
<!-- Generator: Adobe Illustrator 16.0.0, SVG Export Plug-In . SVG Version: 6.00 Build 0)  -->
<svg version="1.2" baseProfile="tiny" id="Layer_1" xmlns="http://www.w3.org/2000/svg" xmlns:xlink="http://www.w3.org/1999/xlink"
	 x="0px" y="0px" width="536.145px" height="536.145px" viewBox="-58.193 -0.004 536.145 536.145" overflow="auto"
	 xml:space="preserve">
<path fill="#00519E" d="M129.329,299.393c2.166,0.069,30.433-0.147,32.525-0.147c15.699,0,29.751-1.634,42.851-4
	c19.663-3.642,36.963-8.696,56.395-12.81c19.461-4.148,41.309-7.567,70.654-8.262l38.379-0.835L217.311,0L0.001,372.884
	l37.257,2.399c20.862,1.348,39.782,1.963,57.129,1.963c57.465,0.033,97.675-6.652,131.783-13.02
	c17.043-3.174,32.509-6.261,48.096-8.519c15.59-2.255,31.35-3.708,49.332-3.708c16.594,0,74.168,6.146,96.16,9.311l-32.434-50.607
	c-23.939-3.417-44.783-4.876-63.727-4.876c-20.516,0-38.743,1.713-55.918,4.149c-25.832,3.783-49.096,9.131-75.748,13.354
	c-26.686,4.328-57.017,7.71-97.546,7.71c-16.284,0-34.202-0.547-54.156-1.82l-1.482,23.036l19.948,11.601L216.474,93.14
	l94.614,169.251l20.156-11.317l-0.51-23.103c-43.314,0.983-74.059,7.747-99.363,13.896c-12.662,3.058-23.918,5.934-34.981,7.971
	c-11.085,1.963-21.999,3.234-34.535,3.272c-1.655,0-3.373-0.038-5.082-0.074L129.329,299.393z"/>
<polygon fill="#00519E" points="80.327,534.333 0,534.333 0,414.529 24.775,414.529 24.775,514.739 80.327,514.739 "/>
<path fill="#00519E" d="M174.183,473.068v61.266h-10.417l-7.17-16.168c-7.586,11.987-19.354,17.972-35.298,17.972
	c-17.78,0-31.071-6.156-39.83-18.563c-8.777-12.438-13.165-26.781-13.165-43.123c0-17.247,4.906-31.862,14.685-43.82
	c9.797-11.96,23.483-17.938,41.091-17.938c13.133,0,23.933,3.492,32.414,10.474c8.483,6.981,13.843,15.687,16.067,26.124
	l-20.476,3.318c-3.814-14.617-12.977-21.943-27.436-21.943c-9.242,0-16.797,3.456-22.618,10.331
	c-5.841,6.945-8.764,17.56-8.764,31.896c0,30.237,10.337,45.377,30.983,45.377c8.037,0,14.688-2.56,19.961-7.641
	c5.252-5.079,7.873-11.816,7.873-20.212h-26.972v-17.348L174.183,473.068L174.183,473.068z"/>
<path fill="#00519E" d="M296.452,534.333h-25.156l-10.418-28.542h-50.213l-10.23,28.542h-20.092l43.329-119.806h28.974
	L296.452,534.333z M254.549,488.513l-19.023-53.46l-19.041,53.46H254.549z"/>
<rect x="299.784" y="412.104" fill="#00519E" width="13.188" height="122.301"/>
<rect x="405.893" y="412.104" fill="#00519E" width="13.189" height="122.301"/>
<path fill="#00519E" d="M318.34,411.484V533.78h82.16V411.484H318.34z M360.018,531.986c-21.334,0-38.648-17.276-38.648-38.636
	c0-21.355,17.314-38.703,38.648-38.703c21.355,0,38.688,17.348,38.688,38.703C398.706,514.709,381.374,531.986,360.018,531.986z"/>
</svg>
