<?xml version="1.0" encoding="utf-8"?>
<!-- Generator: Adobe Illustrator 16.0.0, SVG Export Plug-In . SVG Version: 6.00 Build 0)  -->
<svg version="1.2" baseProfile="tiny" id="Layer_1" xmlns="http://www.w3.org/2000/svg" xmlns:xlink="http://www.w3.org/1999/xlink"
	 x="0px" y="0px" width="844.158px" height="844.157px" viewBox="-0.003 -35.909 844.158 844.157" overflow="scroll"
	 xml:space="preserve">
<g>
	<path fill="#4D8763" d="M422.075,0c12.926,22.2,25.051,45.208,37.198,68.194C477.451,49.52,493.007,28.226,510.935,9.3
		c6.967,25.06,14.73,49.329,21.695,74.393c21.758-14.753,41.084-31.931,62.512-47.014c1.773,25.781,4.428,50.679,5.686,76.977
		c6.279-1.297,12.283-4.319,18.078-7.232c16.928-8.51,35.086-17.359,53.213-25.315c-3.641,25.461-6.836,51.371-10.332,76.976
		c24.543-4.56,50.293-12.389,75.943-17.563c-8.328,24.733-17.275,48.853-25.834,73.358c24.043-0.113,54.268-1.131,77.494-2.066
		c-11.402,22.354-27.111,44.871-40.297,67.161c25.85,4.461,50.955,9.663,76.979,13.948c-17.154,19.526-35.783,37.577-53.213,56.828
		c22.963,10.789,47.637,19.866,71.293,29.963c-20.094,16.074-43.234,29.092-63.545,44.947c20.973,15.02,43.178,28.805,63.545,44.43
		c-23.701,9.877-47.447,19.715-71.293,29.445c16.842,20.008,36.096,37.607,53.213,57.346c-25.486,4.479-50.721,9.207-75.945,13.947
		c-5.752-3.373-11.701-6.551-17.563-9.814c19.391-46.291,31.646-97.193,27.381-158.085c-3.996-57.018-21.336-105.198-43.396-144.136
		c-44.68-78.865-115.873-137.145-213.363-161.7C449.39,82.542,387.74,83.52,336.32,97.126c-48.877,12.93-91.58,35.602-125.022,62.51
		c-34.227,27.539-63.393,61.6-85.759,101.774c-23.975,43.066-41.634,97.3-41.846,161.7c-0.179,54.504,12.408,97.482,28.415,136.904
		c-5.896,3.229-11.714,6.539-17.565,9.814c-25.214-4.75-50.435-9.492-75.942-13.949c17.212-19.467,35.983-37.377,53.21-56.828
		C48.519,488.42,24.074,478.94,0,469.088c20.877-15.287,42.981-29.346,64.06-44.43C43.375,409.18,21.323,395.07,0,380.23
		c23.414-10.682,48.737-19.457,71.809-30.48c-16.919-19.243-37.239-37.842-52.693-56.828c25.535-4.428,50.644-9.282,75.942-13.948
		c-11.594-21.47-28.289-45.069-39.779-66.644c22.89,0.124,55.469,1.001,76.977,2.067c-6.708-24.293-17.419-49.052-25.315-73.875
		c25.804,5.537,50.583,12.099,75.943,18.081c-3.286-25.989-6.637-51.911-10.333-77.493c24.305,10.31,46.612,22.617,70.777,33.064
		c2.476-25.422,4.126-51.668,6.2-77.494c21.063,15.274,41.046,31.625,61.995,47.014c8.064-24.136,14.981-49.422,22.214-74.393
		c17.825,18.852,33.623,39.736,51.146,58.894C397.701,45.887,409.681,22.736,422.075,0z"/>
	<path fill="#4D8763" d="M518.683,154.469c1.305,5.13-1.537,14.966-1.551,22.213c-3.768-1.398-7.598-2.732-11.365-4.132
		C509.814,166.265,514.707,160.824,518.683,154.469z"/>
	<path fill="#4D8763" d="M307.386,178.75c-1.96-4.241-3.488-8.91-5.683-12.916c3.155-1.514,6.503-4.201,10.333-3.101
		C319.878,164.986,315.876,179.41,307.386,178.75z"/>
	<path fill="#4D8763" d="M263.991,187.016c7.75-1.607,22.839,12.768,20.665,24.28c-0.57,3.018-3.858,6.652-7.75,7.231
		c-7.307,1.09-23.699-12.888-19.632-25.829C258.167,189.859,260.122,187.816,263.991,187.016z"/>
	<path fill="#4D8763" d="M607.021,508.35c-4.072,0.113-5.816-2.102-9.813-2.064c5.266-14.297,10.719-29.244,13.947-45.98
		c10.938-56.676-6.525-110.932-29.963-144.652c-30.836-44.358-84.045-83.691-158.602-83.691
		c-74.098,0-126.815,37.523-158.602,83.691c-15.709,22.817-29.067,52.879-33.063,88.344c-4.196,37.232,3.877,72.992,17.048,101.77
		c-3.332,0.803-6.198,2.068-9.815,2.586c-15.466-28.943-21.756-67.064-18.082-104.874c3.479-35.798,17.361-68.246,33.063-91.957
		c32.26-48.714,88.278-86.938,161.701-90.408c40.567-1.917,76.694,9.731,104.356,24.798c27.672,15.07,51.59,36.289,68.711,60.443
		c17.061,24.07,31.416,55.585,36.162,92.992C629.078,438.776,621.867,478.385,607.021,508.35z"/>
	<path fill="#4D8763" d="M646.287,245.91c0.926-0.146,1.063,0.488,0.516,0.517c-4.33,6.001-8.436,12.229-13.945,17.048
		c-1.846-3.494-5.053-5.625-6.717-9.298C632.945,251.509,640.029,249.123,646.287,245.91z"/>
	<path fill="#4D8763" d="M340.45,323.918c11.466-0.378,8.27-12.058,18.08-12.915c11.439-0.999,13.14,13.651,5.686,17.565
		c-4.135,2.169-10.53,0.092-15.5,1.55c-7.271,2.134-13.09,11.432-10.849,19.631c0.587,2.146,3.36,7.342,9.299,6.716
		c3.301-0.348,12.518-10.136,15.498-12.915c14.453-13.481,27.616-30.477,47.529-37.197c11.591-3.911,33.556-3.153,42.361-10.85
		c8.404-7.34,9.895-21.286,24.801-22.212c14.031-0.874,20.201,11.391,29.961,15.497c8.313,3.497,22.967,0.031,29.967,6.715
		c8.764,8.376,0.678,25.486-5.168,31.516c2.156,14.946-8.758,20.179-17.563,27.38c-15.799,12.917-38.861,25.373-35.648,55.279
		c8.617,0.648,11.465,0.688,16.529-1.553c11.217-4.955,5.504-20.694,16.535-21.181c11.342-0.499,10.16,11.679,3.615,16.531
		c-2.57,1.905-8.277,3.522-6.717,7.75c1.896,5.135,14.33,0.724,17.564-1.034c4.791-2.602,5.932-6.701,10.332-7.749
		c14.16-3.364,16.756,17.625,6.199,20.147c-7.262,1.738-11.006-3.314-19.633-2.582c-4.998,0.425-13.66,2.418-13.945,7.232
		c-0.41,6.834,13.346,7.01,16.016,10.85c4.582,6.59-1.191,17.113-10.85,13.947c-4.873-1.596-6.945-8.029-9.299-12.916
		c-6.838-6.055-10.785-10.082-22.215-10.332c-6.975-0.152-18.342,5.707-23.248,1.551c-6.355-5.379-0.586-21.492-6.719-27.897
		c-8.01,9.039-17.855,16.24-28.93,22.216c5.637,3.773,12.998,6.078,13.947,13.432c2.289,17.711-23.787,21.023-36.678,25.83
		c3.18,12.16,20.281,11.115,27.897,5.168c5.176-4.043,6.645-10.063,11.883-10.334c3.957-0.205,8.154,2.842,8.781,5.166
		c4.27,15.818-17.715,6.914-20.664,16.533c3.734,4.477,10.287,8.369,19.631,8.266c4.678-0.053,9.148-2.412,13.432-1.549
		c9.273,1.865,11.252,15.084,1.551,19.113c-12,0.145-19.111-10.313-31.512-11.883c-5.395-0.684-12.12-0.537-12.917,3.102
		c-1.739,7.93,15.826,5.564,12.4,19.113c-1.982,7.832-15.302,8.014-19.116,1.035c-1.655-3.033-1.41-7.213-2.583-10.332
		c-2.073-5.52-5.626-11.75-10.849-15.502c-9.377-6.734-25.672-10.064-35.13-13.43c-8.01-2.85-26.88-10.252-28.933-19.635
		c-3.797-17.352,16.542-14.693,20.665-25.828c-16.873-4.152-36.065-14.606-28.414-36.682c-11.585-1.438-16.929-12.402-17.047-23.765
		c-0.124-11.594,6.467-23.35,7.231-33.063c0.424-5.4-1.096-13.606-4.134-16.532c-5.556-5.353-14.012-1.536-13.948-11.882
		c0.051-8.553,10.468-13.812,16.532-7.749c3.562,3.561,0.875,18.857,7.232,19.115c4.054,0.163,7.393-11.594,8.781-18.599
		c2.456-12.387-0.361-29.442,11.884-30.479c6.146-0.522,11.672,4.315,10.849,11.882c-0.692,6.348-7.675,12.889-10.849,18.081
		C340.35,309.336,335.487,315.1,340.45,323.918z M503.183,330.634c10.838-7.481,0.908-21.812-9.299-21.697
		c-11.855,0.132-19.373,9.342-18.08,22.215C484.832,328.957,494.804,336.42,503.183,330.634z"/>
	<path fill="#4D8763" d="M501.119,324.436c-3.543-3.687-11.863-3.849-16.531-1.035C483.589,312.783,504.125,310.634,501.119,324.436
		z"/>
	<path fill="#4D8763" d="M280.522,332.702c0.691,2.758-3.026,1.105-4.65,1.549c0,5.338,0,10.678,0,16.017c-1.033,0-2.065,0-3.099,0
		c-0.499-2.889,0.313-9.802,0-15.499c-0.782-1.285-4.45,0.315-5.167-1.034c-0.278-2.683,4.479-1.415,6.717-1.55
		C276.637,332.043,280.006,330.421,280.522,332.702z"/>
	<path fill="#4D8763" d="M287.239,332.184c1.432,4.939,2.887,9.855,4.133,14.981c1.873-4.671,3.481-9.604,4.648-14.981
		c1.551,0,3.101,0,4.65,0c-0.396,6.596,0.664,11.734,0.517,18.083c-0.751,0.282-2.67-0.604-2.582,0.516
		c-1.202-3.621-0.177-9.469-0.518-13.948c-2.644,3.383-3.556,8.498-4.65,13.433c-1.377,0-2.756,0-4.132,0
		c-0.725-5.304-2.81-9.246-3.617-14.466c-1.664,3.846,1.01,12.03-2.065,14.466c-3.233-0.458-1.106-4.327-1.033-6.717
		c0.096-3.171-0.075-6.877,0-9.816c0.604-0.083,0.436-0.941,0.517-1.55C284.484,332.184,285.86,332.184,287.239,332.184z"/>
	<path fill="#4D8763" d="M149.819,334.25c6.554-0.697,15.267,0.918,22.213,1.551c-0.57,4.079-2.529,6.769-3.099,10.849
		C161.739,343.341,156.525,338.048,149.819,334.25z"/>
	<path fill="#4D8763" d="M153.434,393.145c-5.224-0.111-9.433-1.243-14.463-1.55C135.55,376.037,158.126,377.319,153.434,393.145z"
		/>
	<path fill="#4D8763" d="M420.01,533.665c0.065,20.215,0.188,40.482-1.033,59.412c5.167,1.203,12.568,0.174,18.599,0.516
		c2.258-22.08-1.379-47.953,1.549-69.227c0.795-5.752,3.221-12.254-0.516-18.08c7.734,2.307,14.09,10.479,23.248,10.332
		c9.984-0.162,18.879-7.699,18.596-20.148c116.842,11.453,208.615,47.971,287.24,97.641
		c-13.887,41.908-34.305,77.285-58.895,108.486c-74.848-46.584-164.334-84.723-285.688-84.723
		c-120.833,0-211.436,37.607-285.691,84.723c-25.438-30.354-45.017-66.566-59.411-107.971
		c79.123-51.168,177.719-89.912,298.086-98.672c6.563-0.48,14.157,1.055,18.083,4.133
		C405.373,508.864,400.94,531.893,420.01,533.665z M349.749,525.399c0,4.479,0,8.955,0,13.432c6.153-0.043,11.49-0.908,17.048-1.549
		c1.563,19.104,2.826,38.504,3.616,58.377c5.172,0.305,13.068-1.018,19.115-1.551c-1.342-19.154-4.503-39.23-4.133-58.377
		c5.723,0.039,11.145-0.223,16.016-1.033c-0.652-3.969,1.017-11.869-1.55-12.914C384.611,522.383,365.854,523.934,349.749,525.399z
		 M466.503,523.333c-1.615,24.73-4.666,48.027-7.23,71.811c6.736-0.021,12.742,0.688,18.598,1.549
		c1.725-8.947,0.424-20.932,3.1-28.93c7.752,0.17,14.32,1.523,21.699,2.066c1.271-3.896,1.977-8.357,2.584-12.916
		c-5.771-0.992-16.158-0.785-23.25-2.066c0.303-5.898,0.551-11.848,2.068-16.531c7.699,1.426,16.434,1.82,24.277,3.1
		c1.449-4.061,2.373-8.646,2.586-13.947C495.554,526.657,481.787,524.239,466.503,523.333z M332.185,538.315
		c-10.067-14.623-35.591-2.85-51.662-1.033c5.107,23.135,9.619,46.865,13.948,70.773c5.924-1.133,11.458-2.658,17.565-3.613
		c-0.462-8.033-5.229-18.814-5.166-27.379c6.994-1.084,10.485,6.055,13.948,10.33c3.827,4.725,6.894,10.451,11.365,13.947
		c5.146-2.604,13.283-2.215,18.082-5.166c-0.882-2.66-3.63-4.145-5.685-6.199c-6.638-6.639-13.285-13.842-18.598-21.182
		C336.856,564.667,338.294,547.188,332.185,538.315z M533.664,532.116c-3.957,24.281-9.092,47.391-13.947,70.775
		c6.52,0.717,11.791,2.674,18.6,3.1c3.752-24.316,9.271-46.865,13.947-70.26C545.982,534.606,539.718,533.467,533.664,532.116z
		 M579.646,542.448c-6.27,23.523-13.854,45.729-20.666,68.711c14.969,3.973,28.469,9.414,43.91,12.912
		c1.141-4.541,3.514-7.854,4.133-12.912c-9.33-2.205-18.727-4.35-26.861-7.75c1.689-5.543,3.145-11.318,5.166-16.531
		c7.586,2.23,14.617,5.014,22.73,6.715c2.162-3.176,3.115-7.563,4.648-11.361c-7.238-3.27-16.889-4.121-23.764-7.75
		c1.635-4.74,2.611-10.133,4.646-14.467c9.041,1.807,15.994,5.707,25.314,7.23c1.27-3.898,2.867-7.469,4.135-11.365
		C609.007,550.969,594.355,546.678,579.646,542.448z M212.329,557.948c7.924,21.867,15.469,44.111,21.697,67.672
		c15.463-3.65,28.93-9.297,43.914-13.432c-0.674-4.834-1.346-9.674-3.617-12.912c-8.278,1.367-17.015,6.75-26.864,8.266
		c-1.192-6.039-3.452-11.014-5.166-16.533c7.78-2.725,16.93-4.078,23.247-8.266c-1.891-3.273-1.293-9.037-4.133-11.363
		c-7.271,2.891-15.069,5.25-22.73,7.746c-1.679-4.861-3.609-9.475-4.65-14.979c7.886-2.965,16.463-5.236,24.799-7.75
		c-1.062-4.277-1.129-9.547-3.617-12.398C240.832,548.563,226.214,552.887,212.329,557.948z M663.851,644.739
		c16.918-2.332,31.447-26.326,30.48-44.432c-1.268-23.77-29.547-26.064-46.494-35.645c-9.84,21.846-19.781,43.59-29.447,65.611
		C634.259,634.522,643.546,647.534,663.851,644.739z M149.819,603.409c-0.108,20.291,14.685,39.955,33.58,41.33
		c14.681,1.064,24.714-5.869,34.097-14.465c-1.045-5.846-3.566-10.213-5.684-14.982c-5.555,6.318-9.211,12.352-18.081,13.434
		c-29.766,3.623-36.578-54.215,1.033-45.98c-1.513-5.031-2.813-10.277-5.683-13.949
		C167.499,570.475,149.931,581.975,149.819,603.409z"/>
	<path fill="#4D8763" d="M304.287,565.178c-1.124-6.453-2.425-12.73-3.616-19.113C320.45,535.924,324.601,566.086,304.287,565.178z"
		/>
	<path fill="#4D8763" d="M640.605,625.62c5.117-14.68,12.088-27.516,18.078-41.328c10.434,2.973,17.988,7.766,16.535,20.15
		C673.416,619.79,658.419,637.293,640.605,625.62z"/>
	<path fill="#4D8763" d="M626.656,672.635c-4.605,6.494-11.82,10.801-18.6,15.498c-46.605,32.311-107.27,58.896-185.465,58.896
		c-90.257,0-154.62-33.854-205.612-73.361c50.727-23.365,113.928-40.016,185.465-43.395
		C490.783,626.098,566.156,647.413,626.656,672.635z M505.767,669.536c-0.342,2.408,0.814,3.318,1.033,5.164
		c6.145-1.43,10.516-4.637,16.529-6.195c0.117,11.133-0.207,21.832-1.031,32.029c2.287,1.055,4.551-1.854,7.234-2.068
		c-0.785-12.035-0.299-26.652-0.52-37.713C520.515,662.932,513.984,667.075,505.767,669.536z M316.685,661.268
		c-3.479,12.191-9.135,22.205-12.396,34.613c7.306,1.994,13.122,5.477,20.665,7.234c0.613-1.627,1.744-2.734,2.065-4.652
		c-4.798-2.264-10.918-3.203-14.981-6.199c1.75-2.727,2.415-6.539,4.134-9.297c5.076,0.951,8.533,3.521,13.431,4.648
		c0.379-1.859,1.868-2.609,1.552-5.166c-4.213-1.814-9.098-2.957-12.916-5.168c1.313-2.988,1.863-6.744,4.135-8.779
		c4.271,1.926,8.373,4.023,13.43,5.164c0.981-1.258,2.31-2.168,2.067-4.646C330.679,666.563,324.479,663.124,316.685,661.268z
		 M342,684.518c0.953,7.52,12.977,9.717,12.916,16.016c-0.094,9.557-13.987,2.295-17.049-0.52c-0.587,1.826-1.602,3.225-1.549,5.688
		c9.527,10.313,31.563,3.879,24.796-10.334c-2.577-5.414-12.689-7.51-12.398-12.916c0.44-8.178,12.778-1.289,16.016,0.516
		c0.318-1.92,1.23-3.248,1.551-5.164C357.546,670.192,340.393,671.833,342,684.518z M496.986,674.7
		c-11.865-6.096-27.826,10.885-13.436,18.598c-7.164,6.412-0.271,16.221,6.201,17.051c14.658,1.879,24.523-15.885,9.299-22.215
		C503.578,684.184,500.695,676.608,496.986,674.7z M372.481,677.803c-0.783,1.453-1.249,3.229-1.035,5.682
		c2.671,0.943,7.322-0.092,9.3,1.549c-1.196,10.514-3.394,20.029-4.133,30.996c2.531-0.119,3.912,0.912,6.716,0.518
		c2.091-9.793,2.044-21.721,4.648-30.996c3.063,0.381,5.831,1.059,9.3,1.031c-0.171-2.063,0.922-2.867,0.518-5.164
		C389.408,680.161,380.372,679.551,372.481,677.803z M459.789,717.063c13.686-4.164,12.883-33.771-1.031-36.162
		c-12.613-2.164-21.723,12.863-12.4,21.182c4.719,4.211,13.537,1.873,17.049-0.518c0.875,9.4-7.672,12.83-16.016,9.816
		c-0.039,3.232,0.477,2.709,0.518,5.682C452.748,717.561,456.767,717.981,459.789,717.063z M420.01,684.518
		c0.275,1.996-0.923,2.521-0.518,4.646c1.458,1.742,4.369-1.182,5.681,0.518c0.135,11.002-0.293,19.512,0.52,29.449
		c2.473,0.342,5.68-0.531,6.717,0c-0.313-11.854-1.203-27.094-1.033-36.164C427.531,683.426,424.126,684.329,420.01,684.518z"/>
	<path fill="#4D8763" d="M201.998,678.317c0.343,0,0.688,0,1.033,0c51.93,43.156,123.154,83.088,219.045,82.143
		c96.388-0.951,165.251-37.662,218.531-82.143c4.416,1.266,7.84,3.525,11.881,5.168c-55.301,48.291-128.084,88.861-230.929,88.855
		c-102.521-0.004-175.487-40.424-230.411-88.855C194.758,681.754,198.462,680.124,201.998,678.317z"/>
	<path fill="#4D8763" d="M484.587,687.1c-3.426-9.4,10.545-10.344,10.846-3.615C495.634,687.93,488.792,690.655,484.587,687.1z"/>
	<path fill="#4D8763" d="M451.521,698.463c-9.799-11.961,12.359-17.369,10.85-4.645
		C461.875,697.999,456.996,699.934,451.521,698.463z"/>
	<path fill="#4D8763" d="M491.302,693.819c12.627-3.986,10.27,13.84-0.516,11.359C486.816,704.272,485.404,695.678,491.302,693.819z
		"/>
	<path fill="#4D8763" d="M717.582,551.231c-32.244-14.426-63.943-29.395-100.227-39.779c14.346-32.205,22.133-72.896,17.051-114.175
		c-4.787-38.87-19.643-71.524-37.197-96.606c-34.707-49.581-92.541-91.957-176.166-91.957c-83.324,0-141.2,42.074-176.167,91.957
		c-17.421,24.853-33,57.798-37.195,96.606c-4.472,41.339,2.488,81.247,16.531,114.175c-35.284,11.039-68.36,24.285-98.675,40.297
		c-21.973-46.199-31.708-106.49-24.796-167.386c6.396-56.352,28.567-105.444,54.244-143.103
		c38.812-56.922,96.096-103.746,169.967-126.055c26.202-7.913,55.035-12.99,86.272-14.465
		c64.501-3.048,120.328,16.188,163.251,39.263c43.537,23.402,80.576,55.633,107.973,94.023
		c27.264,38.203,49.604,85.807,57.865,144.137C749.15,440.586,738.507,503.625,717.582,551.231z M644.738,322.37
		c2.002,1.785,2.811,4.766,4.133,7.231c13.996-7.701,29.123-14.271,42.363-22.73c-1.418-2.718-2.447-5.82-4.652-7.749
		c-8.422,5.525-17.279,10.618-26.863,14.98c6.096-10.778,11.783-21.969,18.084-32.547c-1.643-3.523-2.805-7.528-5.686-9.814
		c-14.107,7.072-27.064,15.297-41.846,21.697c1.713,2.765,2.195,6.761,5.168,8.266c9.908-5.419,19.475-11.177,29.445-16.53
		C658.099,297.5,650.96,309.476,644.738,322.37z M386.43,153.435c4.573,6.471,20.08,5.642,20.664,13.433
		c0.274,3.66-2.145,5.813-4.648,6.716c-6.872,2.474-13.116-2.427-16.016-1.551c0.738,1.09,0.438,5.099,0.517,8.267
		c9.797,2.179,20.458,2.142,26.349-2.582c5.526-4.437,7.113-16.32,1.033-22.216c-4.929-4.777-18.813-4.031-19.116-10.849
		c-0.358-8.13,12.95-5.997,18.083-3.616c0.104-3.351-0.498-6.455-0.518-8.266C396.086,125.944,376.538,139.442,386.43,153.435z
		 M427.757,131.222c-0.77,2.328-1.16,5.036-1.033,8.265c4.189-0.053,8.307-0.038,11.365,1.034
		c-0.74,13.216-2.732,27.904-3.098,39.779c3.787,0,7.578,0,11.363,0c1.361-12.932,1.061-27.529,3.104-39.779
		c3.506,0.45,6.805,1.113,10.848,1.032c0.563-2.365,0.795-5.058,1.031-7.749C450.23,132.857,438.882,132.148,427.757,131.222z
		 M338.384,143.62c4.188,15.1,8.133,30.441,11.365,46.495c9.682-2.545,19.663-4.79,29.448-7.232
		c-0.537-2.907-0.524-6.364-2.066-8.266c-5.686,2.064-11.929,3.572-18.082,5.167c-1.112-4.228-2.413-8.265-3.101-12.916
		c5.169-1.72,11.943-1.834,16.016-4.65c-0.539-0.645-0.695-4.347-1.551-6.2c-6.264,0.451-10.315,3.115-16.531,3.617
		c-0.937-3.713-1.859-7.438-2.582-11.366c5.688-1.544,11.436-3.03,17.564-4.134c-0.924-2.348-0.356-6.186-2.067-7.749
		C357.745,139.216,347.902,141.256,338.384,143.62z M514.552,146.719c-9.473,13.95-20.732,26.108-30.48,39.78
		c3.285,0.846,5.906,2.357,9.299,3.1c3.168-3.207,5.035-7.705,8.266-10.849c4.625,2.088,10.291,3.14,14.465,5.682
		c-0.348,4.477-1.014,8.63-1.549,12.916c3.676,1.316,6.852,3.137,11.361,3.617c0.756-16.813,2.291-32.84,3.619-49.078
		C524.562,150.14,519.929,148.058,514.552,146.719z M319.269,154.469c-9.435-4.444-22.308,6.965-30.479,8.781
		c6.252,14.758,13.417,28.601,19.115,43.913c3.764-1.576,8.077-2.6,10.85-5.166c-3.065-5.2-5.767-10.765-8.266-16.531
		c9.053-3.679,13.769,8.907,21.696,11.364c3.554-1.44,6.208-3.78,10.331-4.649c-6.163-5.717-14.501-9.263-20.664-14.982
		C330.142,171.659,325.984,157.632,319.269,154.469z M554.332,163.25c-4.641,8.627-11.883,21.593-17.568,31.514
		c-0.971,1.696-5.805,9.264-5.682,9.815c0.25,1.119,3.996,2.152,5.682,3.101c6.326,3.551,11.707,7.492,17.568,9.816
		c1.213-2.574,3.371-4.207,4.131-7.233c-4.869-2.02-9.393-4.385-13.432-7.232c6.236-11.846,13.406-22.754,19.633-34.613
		C561.126,166.788,558.359,164.385,554.332,163.25z M248.493,190.115c-7.598,14.909,6.471,37.315,22.214,37.712
		c9.161,0.231,21.773-6.76,23.764-17.047c3.283-16.967-12.703-34.542-26.864-33.063
		C258.517,178.666,251.264,184.676,248.493,190.115z M559.496,221.629c7.41,4.643,13.414,10.694,21.182,14.982
		c2.092-1.698,3.875-3.701,5.166-6.2c-4.197-2.861-8.73-5.391-12.398-8.782c7.346-11.255,16.545-20.654,23.766-32.03
		c-2.848-2.494-6.088-4.589-9.301-6.717C578.98,196.338,568.605,208.352,559.496,221.629z M228.345,204.063
		c-6.328,7.447-14.25,13.304-20.149,21.181c11.578,10.638,22.542,21.888,33.063,33.58c3.55-2.134,5.99-5.376,8.268-8.782
		c-4.555-4.572-9.455-8.799-13.949-13.432c3.92-3.142,6.93-7.191,10.849-10.333c-0.654-2.788-3.351-3.539-4.133-6.2
		c-5.235,2.688-7.427,8.417-12.398,11.367c-1.861-3.822-6.012-5.354-7.749-9.299c3.289-4.806,8.954-7.233,11.881-12.399
		C231.565,208.419,231.076,205.121,228.345,204.063z M585.326,242.293c3.654,1.858,5.299,5.726,9.301,7.232
		c5.688-7.537,15.869-18.008,23.764-26.348c1.912-2.021,8.359-7.029,8.266-8.782c-0.076-1.407-8.705-7.112-9.299-7.749
		C607.654,219.505,595.56,229.968,585.326,242.293z M646.802,237.643c-15.465,5.542-30.342,11.676-46.496,16.533
		c1.939,3.229,3.73,6.604,7.236,8.266c3.555-1.955,7.588-3.435,11.361-5.167c3.26,4.149,6.656,8.157,9.818,12.399
		c-2.582,3.963-6.184,6.902-8.266,11.366c3.016,2.323,4.664,6.01,7.746,8.266c9.236-13.843,19.584-26.572,28.932-40.297
		C653.351,245.562,651.363,240.317,646.802,237.643z M194.765,238.676c-1.156,2.979-3.638,4.63-4.65,7.75
		c8.73,5.735,17.979,10.952,25.832,17.565c-12.241-0.849-25.681-0.496-37.714-1.55c-2.073,3.265-4.843,5.833-6.2,9.814
		c13.656,8.389,25.952,18.136,39.263,26.865c1.288-2.846,3.813-4.452,4.65-7.75c-9.101-6.745-19.119-12.567-28.415-19.115
		c13.064,0.895,29.431,1.211,41.847,1.035c1.84-2.122,3.49-4.433,4.648-7.234C220.871,257,208.434,247.223,194.765,238.676z
		 M158.084,299.122c15.156,6.025,28.239,14.123,42.881,20.664c1.804-3.36,3.298-7.033,5.165-10.334
		c-15.164-6.36-28.625-14.424-43.396-21.179C161.641,292.346,158.893,294.764,158.084,299.122z M146.719,323.918
		c-0.884,5.314-3.114,9.285-4.133,14.466c13.581,9.839,26.664,20.176,40.296,29.963c1.104-3.201,2.229-6.383,3.099-9.815
		c-3.714-2.482-8.132-4.266-10.848-7.749c1.559-4.984,2.79-10.299,5.165-14.465c4.309,0.342,8.389,0.909,12.916,1.033
		c1.468-3.355,2.28-7.364,3.617-10.85C180.238,325.53,163.663,324.541,146.719,323.918z M686.066,328.051
		c-24.047-2.02-39.617,24.328-22.215,42.363c2.641-0.977,6.309-0.927,8.266-2.584c-3.566-3.77-6.932-6.871-6.717-13.432
		c0.65-19.528,40.576-20.746,32.549,5.167c2.756-1.03,6.697-0.88,8.783-2.583C706.765,341.335,700.238,329.244,686.066,328.051z
		 M137.937,370.931c-7.475,4.779-5.634,21.202-7.75,30.479c16.05,1.859,31.927,3.891,47.529,6.198c0.133-4,1.266-6.999,1.033-11.364
		c-6.163-0.727-12.963-0.813-18.597-2.066c-0.366-1.915,0.881-2.217,0.516-4.133c6.572-2.899,13.921-5.021,20.663-7.75
		c-0.117-4.422,0.978-7.632,1.035-11.881c-8.074,2.948-14.564,7.479-23.247,9.815C158.6,370.256,145.313,366.213,137.937,370.931z
		 M663.851,380.23c0.48,10.368,2.717,18.983,3.102,29.448c1.883,0.892,4.281-0.458,8.268,0c-0.006-7.012-2.83-15.107-2.068-19.633
		c4.789-0.034,8.449-1.193,12.916-1.551c-0.027,6.057,1.578,10.477,1.549,16.532c3.098,0.343,5.043-0.469,7.752-0.517
		c-0.531-5.842-1.965-10.782-2.068-17.049c4.42,0.115,7.373-1.237,11.883-1.034c0.732,5.769,1.285,13.452,2.066,17.565
		c2.357-0.227,5.689,0.521,7.23-0.518c-0.793-10.229-2.152-19.885-3.615-29.447C695.863,376.765,679.445,378.088,663.851,380.23z
		 M148.269,436.542c-12.871,16.41-4.009,47.482,13.432,52.178C174.292,472.03,165.658,441.635,148.269,436.542z M694.332,436.542
		c-17.758,4.748-27.072,36.799-12.914,52.178C698.054,482.747,706.775,453.415,694.332,436.542z M168.934,509.903
		c-6.203-14.15-26.319-25.715-46.496-17.566c6.043,22.146,29.093,32.305,52.178,23.764c12.802-4.736,23.56-17.863,23.765-33.58
		c0.065-5.063-0.568-10.877-3.616-13.947C178.125,474.008,166.428,487.032,168.934,509.903z M646.287,468.571
		c-17.641,50.844,63.266,70.58,73.359,23.246c-20.805-7.523-39.934,4.904-45.98,17.051
		C674.666,485.313,664.121,473.295,646.287,468.571z"/>
</g>
</svg>
