<?xml version="1.0" encoding="utf-8"?>
<!-- Generator: Adobe Illustrator 16.0.0, SVG Export Plug-In . SVG Version: 6.00 Build 0)  -->
<svg version="1.2" baseProfile="tiny" id="Layer_1" xmlns="http://www.w3.org/2000/svg" xmlns:xlink="http://www.w3.org/1999/xlink"
	 x="0px" y="0px" width="674.305px" height="674.306px" viewBox="-0.006 -30.452 674.305 674.306" overflow="scroll"
	 xml:space="preserve">
<path fill="#87888A" d="M569.642,325.884c-28.828,99.084-120.369,171.602-228.805,171.602
	c-108.602,0-200.224-72.686-228.949-172.009c-1.592-5.517-7.393-8.746-12.951-7.112c-5.555,1.596-8.764,7.396-7.151,12.955
	c31.236,108.109,130.91,187.088,249.051,187.088c117.978,0,217.568-78.814,248.925-186.72c1.593-5.517-1.573-11.358-7.146-12.993
	C577.077,317.141,571.252,320.287,569.642,325.884"/>
<path fill="#87888A" d="M108.009,208.296c23.308-107.09,118.713-187.375,232.828-187.335
	c104.25-0.039,192.87,66.926,225.189,160.164c1.88,5.516,7.865,8.375,13.318,6.495s8.375-7.845,6.478-13.319
	C550.642,72.811,454.258,0,340.837,0C216.668,0.042,112.912,87.273,87.54,203.801c-1.206,5.72,2.368,11.236,8.007,12.502
	C101.206,217.53,106.782,213.974,108.009,208.296"/>
<polygon points="66.273,358.816 84.948,397.55 77.306,401.226 62.945,371.441 44.864,380.185 55.468,402.125 47.582,405.925 
	37.061,384.105 16.265,394.156 31.32,425.375 23.415,429.175 4.008,388.886 "/>
<path d="M98.674,450.871c4.822-4.699,7.663-10.914,3.044-16.877c-4.187-5.436-10.215-4.494-14.056-3.43
	c-6.474,1.754-14.259,7.436-14.873,7.885c-11.99,9.271-22.062,20.467-15.094,29.5c3.349,4.328,8.192,4.125,9.764,4.004
	c3.678-0.449,7.048-2.574,8.949-3.801l4.412,8.5c-4.555,3.023-10.481,5.105-16.282,4.328c-8.336-1.061-12.481-6.453-14.077-8.535
	c-3.43-4.496-11.563-19.779,14.813-40.084c12.604-9.729,31.029-18.84,42.96-3.396c2.697,3.516,5.148,8.908,4.313,14.877
	c-0.922,6.656-4.678,10.744-7.01,13.158L98.674,450.871z"/>
<path d="M146.396,480.287L146.396,480.287c-4.535-3.803-10.009-3.023-15.729,0.693c-3.679,2.287-8.192,6.494-12.853,12.057
	c-5.678,6.699-16.627,21.609-7.414,29.375c7.519,6.332,16.875,1.059,28.171-12.381C144.478,503.046,155.833,488.253,146.396,480.287
	 M156.57,499.937c-2.371,6.047-7.13,12.625-10.255,16.26c-10.604,12.668-27.027,24.969-41.287,12.912
	c-12.972-10.947-6.884-28.111,5.025-42.244c6.782-8.053,14.28-14.344,21.389-16.588c10.338-3.354,16.262,0.287,20.165,3.557
	C160.553,481.345,159.778,491.81,156.57,499.937"/>
<path d="M247.132,547.865c-0.859-7.148-2.104-12.625-9.644-15.283c-4.002-1.467-10.745-1.264-13.011,5.029
	c-2.086,5.842,1.96,10.133,3.738,11.846l10.868,10.5c1.838,1.879,5.657,6.256,6.681,12.014c0.284,1.797,0.796,4.82-0.922,9.563
	c-2.185,6.129-6.229,10.379-11.664,12.463c-6.965,2.691-12.299,0.777-15.75-0.449c-4.004-1.432-9.889-5.07-13.056-10.5
	c-2.921-4.945-3.35-8.787-3.738-12.422l9.563-2.125c-0.021,5.926,2.002,13.93,10.784,17.121c5.495,1.916,12.646,0.736,15.181-6.375
	c1.102-3.023,1.305-7.273-4.415-12.787l-9.662-9.398c-3.349-3.189-6.884-8.129-7.599-12.506c-0.326-1.92-0.326-5.225,1.287-9.764
	c3.535-9.846,14.34-13.768,24.534-10.092c9.949,3.514,15.262,11.074,16.079,21.328L247.132,547.865z"/>
<polygon points="319.532,543.859 318.204,552.478 298.368,549.457 289.134,609.152 279.347,607.642 288.581,547.949 
	268.644,544.841 269.972,536.179 "/>
<path d="M361.819,589.66L361.819,589.66l-12.074-34.889l-0.509-0.369l-0.432,0.49l-9.149,35.504L361.819,589.66z M364.803,597.628
	l-27.336,0.861l-3.879,14.541l-10.093,0.371l20.123-69.949l10.826-0.33l25.639,68.439l-10.11,0.324L364.803,597.628z"/>
<path d="M392.851,539.693l11.848-3.107l30.787,37.84l4.496,5.92c0.777,1.066,4.089,5.844,4.717,6.867l0.593-0.084v-1.467
	c-0.264-1.023-1.838-5.438-2.06-6.334c-1.312-4.172-2.228-7.645-2.819-9.932l-10.499-39.51l7.656-1.998l17.729,66.842l-11.685,3.064
	l-30.967-38.287c-3.964-4.902-8.315-11.439-9.172-12.787l-0.49-0.084l-0.287,1.186c0.509,1.881,3.616,11.811,3.76,12.26
	l11.763,44.455l-7.655,1.998L392.851,539.693z"/>
<path d="M473.503,521.554L473.503,521.554l24.598,45.432l6.315-3.391c14.522-7.883,11.619-21.125,5.472-32.479
	c-3.022-5.521-7.765-12.178-14.24-14.834c-5.473-2.125-10.536-1.023-18.098,3.105L473.503,521.554z M493.809,579.287l-32.947-60.838
	l13.176-7.189c20.161-10.871,34.624-3.598,45.23,16.012c2.119,3.846,5.615,11.729,5.412,20.307
	c-0.084,6.172-1.491,15.814-17.588,24.52L493.809,579.287z"/>
<path d="M571.828,499.365L571.828,499.365l-31.44-19.408h-0.609l-0.042,0.695l15.385,33.258L571.828,499.365z M579.184,503.615
	l-20.635,17.939l6.19,13.77l-7.598,6.654l-28.661-66.883l8.188-7.146l63.148,36.809l-7.62,6.621L579.184,503.615z"/>
<path d="M578.837,434.808L578.837,434.808l18.569,13.361c3.147-4.166,7.129-9.68,8.62-13.031c1.515-3.557,3.394-9.518-2.881-14.057
	c-6.561-4.74-12.666-2.412-18.729,6.006L578.837,434.808z M566.637,437.875l12.487-17.283c11.296-15.647,23.185-12.176,28.925-8.045
	c10.52,7.597,8.357,16.588,6.312,22.795l36.484,4.006l-6.639,9.193l-34.48-4.699l-6.23,8.621l24.902,17.977l-5.682,7.885
	L566.637,437.875z"/>
<path d="M612.911,381.205L612.911,381.205l47.397,20.555l2.839-6.579c6.597-15.16-3.844-23.78-15.689-28.929
	c-5.801-2.494-13.667-4.779-20.33-2.86c-5.675,1.637-8.967,5.681-12.379,13.567L612.911,381.205z M664.518,414.055l-63.479-27.537
	l5.986-13.771c9.11-21,24.985-24.188,45.394-15.322c4.047,1.758,11.667,5.805,16.815,12.629c3.718,4.941,8.577,13.4,1.264,30.191
	L664.518,414.055z"/>
<path fill="#97BF0D" d="M462.393,329.69c-0.028-15.384-4.65-34.19-12.098-55.656c-22.383-64.283-70.937-152.197-104.55-227.875
	l-4.896-11.018l-5.465,10.829c-27.146,53.948-56.247,109.946-78.608,159.829c-22.326,50-38.058,93.499-38.147,123.89
	c0,58.521,51.063,106.221,115.313,109.309v34.109h10.686v-33.996C410.02,437.15,462.393,388.962,462.393,329.69z M339.58,62.119
	v39.278l-13.017-13.601C330.909,79.251,335.276,70.664,339.58,62.119z M316.335,108.126l23.245,24.238v10.371l-26.646-27.809
	C314.055,112.646,315.174,110.404,316.335,108.126z M302.708,135.25l36.872,38.485v11.703l-40.67-42.475
	C300.182,140.38,301.391,137.872,302.708,135.25z M288.88,163.517l50.7,52.885v11.7l-54.499-56.836
	C286.294,168.722,287.629,166.063,288.88,163.517z M275.363,192.089l64.217,67.016v11.703l-67.884-70.856
	C272.885,197.369,274.112,194.708,275.363,192.089z M262.196,221.035l77.384,80.772v11.7l-80.876-84.417
	C259.823,226.467,261.008,223.735,262.196,221.035z M249.883,250.933l89.697,93.538v11.702l-92.882-96.917
	C247.709,256.521,248.784,253.711,249.883,250.933z M238.931,282.163l100.649,105.01v11.705L236.273,291.092
	C237.087,288.206,238.009,285.168,238.931,282.163z M262.304,400.053c-10.623-9.572-19.006-21.048-24.625-33.813l47.402,49.469
	C276.746,411.337,269.063,406.128,262.304,400.053z M230.021,327.264c0.09-3.384,0.395-6.953,0.88-10.791l107.932,112.644
	c-4.038-0.072-7.989-0.342-11.919-0.762L230.021,327.264z"/>
<g>
	<g>
		<path d="M12.068,273.597c-0.314,2.236-0.47,4.092-0.47,5.564c0,3.978,1.407,7.363,4.223,10.156
			c2.816,2.795,6.234,4.19,10.257,4.19c3.218,0,6.313-0.658,9.285-1.975c2.972-1.32,7.384-4.235,13.238-8.749l1.41,1.942
			c-10.593,10.503-20.694,15.756-30.302,15.756c-6.525,0-11.44-2.056-14.747-6.168C1.655,290.2,0,285.665,0,280.703
			c0-6.657,2.057-13.472,6.169-20.446c4.113-6.971,9.272-12.389,15.486-16.256c6.21-3.864,12.601-5.797,19.171-5.797
			c4.738,0,8.246,0.96,10.527,2.882c2.278,1.921,3.418,4.199,3.418,6.836c0,3.711-1.476,7.265-4.424,10.659
			c-3.888,4.427-9.611,8-17.163,10.727C28.18,271.14,21.141,272.57,12.068,273.597z M12.538,270.313
			c6.612-0.76,12-2.056,16.154-3.888c5.499-2.457,9.62-5.396,12.371-8.814c2.748-3.421,4.122-6.672,4.122-9.754
			c0-1.877-0.593-3.397-1.775-4.559c-1.185-1.162-2.874-1.745-5.062-1.745c-4.558,0-9.398,2.427-14.513,7.276
			C18.716,253.678,14.951,260.84,12.538,270.313z"/>
	</g>
	<g>
		<path d="M121.272,239.811l-11.664,39.955c-1.745,5.944-2.616,9.698-2.616,11.263c0,0.802,0.146,1.395,0.437,1.775
			c0.291,0.38,0.68,0.569,1.173,0.569c0.757,0,1.595-0.344,2.514-1.039c0.913-0.691,3.227-3.451,6.938-8.279l2.012,1.542
			c-3.532,5.588-7.151,9.701-10.862,12.334c-2.457,1.7-4.825,2.55-7.105,2.55c-1.742,0-3.107-0.494-4.089-1.476
			c-0.984-0.982-1.476-2.257-1.476-3.822c0-1.518,0.291-3.529,0.871-6.034c0.715-3.304,2.751-10.5,6.103-21.583
			c-7.6,12.466-13.957,21.071-19.072,25.807c-5.118,4.738-9.868,7.108-14.247,7.108c-2.056,0-3.798-0.715-5.229-2.146
			s-2.143-3.242-2.143-5.43c0-3.352,0.982-8.491,2.948-15.42l5.833-20.712c1.428-4.962,2.143-8.045,2.143-9.251
			c0-0.536-0.188-0.994-0.568-1.374c-0.38-0.38-0.793-0.572-1.239-0.572c-0.94,0-1.88,0.335-2.816,1.006
			c-0.94,0.67-3.062,3.152-6.37,7.441l-2.077-1.473c3.353-5.184,6.905-9.006,10.659-11.463c2.858-1.922,5.498-2.882,7.911-2.882
			c1.652,0,3.005,0.523,4.056,1.574c1.047,1.05,1.574,2.403,1.574,4.056c0,2.413-0.895,6.726-2.682,12.939l-6.301,21.652
			c-1.742,5.899-2.616,9.632-2.616,11.194c0,0.85,0.281,1.532,0.838,2.044c0.56,0.515,1.308,0.772,2.248,0.772
			c1.473,0,3.394-0.736,5.765-2.212c2.368-1.476,5.531-4.75,9.485-9.82c3.957-5.073,7.217-9.833,9.788-14.28
			c2.568-4.448,5.307-11.518,8.213-21.218l1.473-5.095H121.272L121.272,239.811z"/>
	</g>
	<g>
		<path d="M132.466,241.957l23.127-3.753l-9.653,32.58c7.821-13.364,14.927-22.703,21.32-28.021
			c3.618-3.041,6.566-4.558,8.847-4.558c1.476,0,2.637,0.434,3.487,1.305c0.847,0.874,1.272,2.137,1.272,3.79
			c0,2.948-0.76,5.765-2.278,8.446c-1.075,2.012-2.616,3.017-4.627,3.017c-1.026,0-1.91-0.335-2.646-1.005
			c-0.74-0.671-1.197-1.7-1.377-3.086c-0.09-0.847-0.291-1.407-0.602-1.673c-0.359-0.359-0.784-0.539-1.275-0.539
			c-0.76,0-1.473,0.179-2.143,0.539c-1.164,0.625-2.927,2.368-5.298,5.229c-3.708,4.379-7.731,10.054-12.065,17.025
			c-1.877,2.951-3.487,6.279-4.828,9.991c-1.876,5.094-2.948,8.156-3.217,9.183l-2.146,8.446H128.11l12.4-41.631
			c1.431-4.825,2.146-8.267,2.146-10.323c0-0.805-0.335-1.473-1.006-2.011c-0.895-0.713-2.077-1.072-3.553-1.072
			c-0.94,0-2.661,0.201-5.163,0.604L132.466,241.957z"/>
	</g>
	<g>
		<path d="M237.111,259.185c0,6.705-1.774,13.34-5.331,19.91c-3.553,6.57-8.5,11.775-14.846,15.618
			c-6.348,3.846-12.514,5.768-18.503,5.768c-6.124,0-11.116-1.955-14.983-5.867c-3.867-3.912-5.798-8.973-5.798-15.184
			c0-6.57,1.886-13.161,5.663-19.775c3.777-6.615,8.827-11.844,15.151-15.688c6.324-3.843,12.436-5.765,18.335-5.765
			s10.757,1.942,14.58,5.831C235.202,247.922,237.111,252.975,237.111,259.185z M225.983,254.561c0-4.157-1.018-7.342-3.05-9.554
			c-2.035-2.212-4.66-3.319-7.878-3.319c-6.57,0-12.613,4.705-18.132,14.112c-5.52,9.407-8.279,18.761-8.279,28.055
			c0,4.247,1.072,7.519,3.218,9.82c2.146,2.301,4.849,3.454,8.111,3.454c6.3,0,12.212-4.682,17.731-14.047
			C223.223,273.723,225.983,264.213,225.983,254.561z"/>
	</g>
	<g>
		<path d="M305.219,298.871h-67.372l0.937-2.481c3.577-0.087,5.968-0.377,7.174-0.871c1.877-0.805,3.263-1.853,4.155-3.152
			c1.386-2.053,2.861-5.765,4.427-11.125l16.022-55.307c1.341-4.559,2.008-7.911,2.008-10.057c0-1.697-0.613-3.014-1.841-3.954
			c-1.23-0.94-3.543-1.407-6.941-1.407c-0.76,0-1.362-0.024-1.808-0.069l0.805-2.479h37.068l-0.535,2.479
			c-4.157,0-7.105,0.404-8.849,1.207c-1.745,0.805-3.197,2.125-4.358,3.957c-0.805,1.207-2.125,4.96-3.957,11.263l-15.752,54.367
			c-1.207,4.11-1.811,6.971-1.811,8.578c0,1.075,0.604,2.102,1.811,3.086c0.76,0.671,2.481,1.006,5.163,1.006h8.782
			c6.39,0,11.46-0.805,15.217-2.416c2.769-1.206,5.316-3.017,7.642-5.429c1.251-1.341,3.463-4.669,6.636-9.988l1.745-3.017h2.479
			L305.219,298.871z"/>
	</g>
	<g>
		<path d="M389.349,205.89l-6.9,75.618c-0.359,3.532-0.539,5.854-0.539,6.971c0,1.79,0.335,3.152,1.006,4.092
			c0.85,1.296,1.999,2.257,3.454,2.882c1.454,0.625,3.896,0.937,7.339,0.937l-0.736,2.481h-35.798l0.739-2.481h1.542
			c2.903,0,5.271-0.626,7.104-1.877c1.293-0.847,2.3-2.257,3.018-4.223c0.491-1.383,0.958-4.648,1.407-9.788l1.07-11.529h-26.01
			l-9.249,12.535c-2.101,2.816-3.421,4.84-3.957,6.067c-0.536,1.23-0.805,2.379-0.805,3.454c0,1.431,0.581,2.658,1.745,3.685
			c1.162,1.03,3.083,1.589,5.765,1.676l-0.736,2.481h-26.884l0.739-2.481c3.308-0.132,6.223-1.239,8.746-3.316
			c2.526-2.081,6.292-6.513,11.296-13.308l54.304-73.876H389.349z M376.078,228.212l-26.345,35.867h22.86L376.078,228.212z"/>
	</g>
	<g>
		<path d="M417.508,207.97h69.045l-7.439,24.133h-2.55c0.85-3.532,1.273-6.684,1.273-9.452c0-3.263-1.005-5.723-3.017-7.375
			c-1.521-1.251-5.431-1.877-11.729-1.877h-7.177l-17.965,62.613c-2.281,7.866-3.418,12.715-3.418,14.547
			c0,1.697,0.712,3.095,2.143,4.19c1.432,1.096,3.957,1.641,7.579,1.641h3.083l-0.803,2.481h-39.558l0.742-2.481h1.742
			c3.483,0,6.166-0.557,8.045-1.676c1.293-0.757,2.467-2.131,3.516-4.122c1.054-1.987,2.514-6.202,4.394-12.637l18.839-64.556h-5.43
			c-5.232,0-9.446,0.67-12.637,2.012c-3.197,1.341-5.777,3.283-7.746,5.831c-1.964,2.547-3.574,6.168-4.825,10.862h-2.479
			L417.508,207.97z"/>
	</g>
	<g>
		<path d="M518.197,212.864l-10.393,35.929h8.513c6.075,0,10.481-0.925,13.206-2.78c2.724-1.856,5.069-5.286,7.04-10.291h2.478
			l-9.314,32.981h-2.682c0.802-2.769,1.203-5.139,1.203-7.105c0-1.922-0.389-3.463-1.173-4.625c-0.778-1.161-1.851-2.023-3.215-2.58
			c-1.365-0.56-4.238-0.838-8.614-0.838h-8.65l-8.78,30.099c-0.852,2.906-1.271,5.118-1.271,6.636c0,1.164,0.557,2.191,1.67,3.083
			c0.761,0.628,2.664,0.94,5.699,0.94h8.046c8.716,0,15.695-1.542,20.951-4.625c5.25-3.086,9.955-8.447,14.109-16.091h2.479
			l-8.578,25.274h-70.254l0.868-2.481c3.489-0.087,5.836-0.401,7.039-0.937c1.79-0.805,3.083-1.832,3.892-3.086
			c1.203-1.832,2.634-5.675,4.292-11.529L502.71,226c1.251-4.424,1.874-7.797,1.874-10.123c0-1.697-0.593-3.026-1.772-3.987
			c-1.185-0.961-3.502-1.443-6.938-1.443h-1.413l0.809-2.479h65.291l-5.633,21.918h-2.479c0.312-2.053,0.467-3.774,0.467-5.16
			c0-2.368-0.58-4.358-1.742-5.968c-1.52-2.053-3.729-3.619-6.632-4.69c-2.149-0.805-7.088-1.206-14.816-1.206L518.197,212.864
			L518.197,212.864z"/>
	</g>
	<g>
		<path d="M628.541,207.97h30.771l-0.736,2.479c-4.334,0.629-8.124,1.934-11.362,3.921c-3.244,1.991-7.656,5.957-13.241,11.901
			l-23.598,24.133l6.639,24.334c0.622,2.326,1.784,5.923,3.484,10.793c1.071,3.128,2.147,5.34,3.22,6.636
			c1.072,1.299,2.425,2.293,4.053,2.984c1.636,0.694,4.102,1.107,7.411,1.239l-0.735,2.481h-35.666l0.735-2.481
			c3.664-0.132,6.305-0.826,7.914-2.077c1.203-0.895,1.809-2.057,1.809-3.487c0-1.248-0.58-3.999-1.742-8.243l-6.369-22.861
			l-21.316,21.521c-4.16,4.244-6.639,7.037-7.44,8.378c-0.496,0.805-0.742,1.586-0.742,2.347c0,1.341,0.671,2.436,2.012,3.286
			c0.629,0.356,2.526,0.736,5.699,1.138l-0.671,2.481h-30.23l0.736-2.481c3.802-0.356,6.902-1.228,9.32-2.613
			c3.525-2.101,8.398-6.279,14.611-12.535l26.411-26.549l-7.236-26.21c-2.19-8.045-4.102-12.993-5.734-14.849
			c-1.629-1.853-4.478-2.915-8.549-3.185l0.671-2.478h32.517l-0.808,2.478c-2.993,0-5.017,0.192-6.064,0.572
			c-1.054,0.38-1.854,0.961-2.411,1.742c-0.563,0.781-0.839,1.664-0.839,2.649c0,1.071,0.532,3.574,1.604,7.506l6.172,22.392
			l14.276-14.211c5.634-5.633,9.494-10.167,11.596-13.609c0.76-1.207,1.144-2.281,1.144-3.218c0-1.026-0.426-1.832-1.274-2.413
			c-1.209-0.805-3.466-1.275-6.771-1.41L628.541,207.97z"/>
	</g>
</g>
</svg>
