<?xml version="1.0" encoding="utf-8"?>
<!-- Generator: Adobe Illustrator 16.0.0, SVG Export Plug-In . SVG Version: 6.00 Build 0)  -->
<svg version="1.2" baseProfile="tiny" id="Layer_1" xmlns="http://www.w3.org/2000/svg" xmlns:xlink="http://www.w3.org/1999/xlink"
	 x="0px" y="0px" width="1024.667px" height="1024.668px" viewBox="-12.322 0.002 1024.667 1024.668" overflow="scroll"
	 xml:space="preserve">
<rect x="-12.322" fill="#F0E2C7" width="1024.667" height="1024.672"/>
<g>
	<path fill="#42421C" d="M918.126,710.581c-13.594,0-24.74,11.281-24.74,25.332c0,13.883,11.146,25.305,24.74,25.305
		c13.703,0,24.707-11.422,24.707-25.305C942.833,721.862,931.83,710.581,918.126,710.581 M918.126,716.434
		c10.586,0,18.996,8.615,18.996,19.479c0,10.658-8.41,19.453-18.996,19.453c-10.408,0-18.99-8.795-18.99-19.453
		C899.136,725.049,907.718,716.434,918.126,716.434 M909.685,721.862h5.607c1.959,0,3.713,0.143,4.832,0.424
		c1.297,0.135,2.279,0.592,3.295,1.156c1.125,0.732,2.139,1.748,2.699,2.941c0.563,1.33,0.873,2.486,0.873,3.785
		c0,2.068-0.561,3.816-1.857,5.287c-1.291,1.477-2.871,2.352-5.01,2.77l9.707,12.16h-5.711l-8.828-11.705h-0.879v11.705h-4.73
		v-28.523H909.685z M914.414,725.928v8.938h1.58c2.133,0,3.713-0.281,4.695-1.156c1.016-0.912,1.572-2.068,1.572-3.365
		c0-1.613-0.559-2.629-1.572-3.367c-0.982-0.73-2.564-1.047-4.557-1.047h-1.719V725.928z"/>
	<path fill="#73B848" d="M827.402,820.508h11.744l7.844,13.914l2.281,4.24h0.141l2.273-4.24l8.133-13.914h10.896l-14.994,24.008
		l16.395,26.174h-11.84l-9.289-15.945l-2.141-3.785h-0.313l-1.998,3.785l-9.842,15.945h-10.832l16.4-26.174L827.402,820.508z
		 M789.556,820.508h29.264v8.764h-19.273v11.422h17.59v8.34h-17.59v12.758h19.273v8.898h-29.264V820.508z M743.121,820.508h38.27
		v8.764h-14.119v41.418H757.25v-41.418h-14.127v-8.764H743.121z M714.841,851.1h14.27l-7.262-20.5h-0.172L714.841,851.1z
		 M716.564,820.508h11.279L747.4,870.69h-11.287l-4.131-11.25h-20.295l-4.131,11.25h-10.58L716.564,820.508z M664.976,820.508h9.99
		v41.699h19.445v8.48h-29.438v-50.18H664.976z M628.253,828.428v13.736h5.43c2.879,0,5.012-0.732,6.275-2.203
		c1.434-1.439,2.031-3.053,2.031-4.807c0-1.785-0.6-3.225-1.715-4.695c-1.158-1.471-3.439-2.031-6.594-2.031H628.253
		L628.253,828.428z M618.406,820.508h17.273c6.311,0,10.58,1.297,13.004,3.963c2.273,2.627,3.57,5.854,3.57,9.639
		c0,6.898-4.27,12.295-11.422,14.506l15,22.074h-11.145l-14.438-20.605h-1.998v20.605h-9.848v-50.182H618.406z M606.386,820.508
		v31.189c0,4.066-0.559,7.465-1.824,10.092c-1.299,2.629-3.014,4.697-5.012,5.994c-2.139,1.473-4.311,2.346-6.586,2.77
		c-2.139,0.592-4.555,0.732-6.867,0.732c-3.396,0-6.693-0.418-9.707-1.434c-2.98-1.053-5.717-2.947-7.709-5.891
		c-2.139-2.91-3.295-7.01-3.295-12.264v-31.191h10.021v31.191c0,7.74,3.572,11.705,10.549,11.705
		c7.008,0,10.439-3.965,10.439-11.705v-31.191h9.99V820.508z M519.091,820.508h38.303v8.764h-14.121v41.418h-10.021v-41.418h-14.158
		v-8.764H519.091z M488.676,851.1h14.156l-7.147-20.5h-0.141L488.676,851.1z M490.253,820.508h11.422l19.414,50.182h-11.145
		l-4.1-11.25h-20.289l-4.169,11.25h-10.689L490.253,820.508z M420.234,820.508h12.86l16.996,31.607l2.595,6.906h0.139l-0.139-8.938
		v-29.578h9.987v50.182H449.67l-16.996-32.904l-2.592-5.57h-0.106l0.106,8.938v29.539h-9.849L420.234,820.508L420.234,820.508z"/>
	<path fill="#42421C" d="M230.653,457.611c26.456,0,50.007,5.869,70.892,17.573c20.851,11.705,37.146,29.122,48.989,51.976
		c11.846,22.994,17.837,50.322,17.837,82.109c0,31.924-5.991,59.289-17.837,82.283c-11.843,22.984-28.139,40.262-48.989,52.107
		c-13.738,7.605-28.736,12.893-44.89,15.488v-52.531c8.724-2.801,17.031-7.742,24.878-15.064
		c7.851-7.324,14.124-17.73,19.135-31.332c5.011-13.49,7.43-30.451,7.43-50.811c0-26.635-3.996-47.592-12.299-62.521
		c-8.13-15.064-18.12-25.299-29.684-30.721c-11.6-5.416-23.442-8.201-35.462-8.201c-11.985,0-23.828,2.785-35.395,8.201
		c-11.599,5.422-21.444,15.656-29.609,30.721c-8.271,15.105-12.405,35.889-12.405,62.521c0,26.668,4.134,47.443,12.405,62.516
		c8.165,15.07,18.011,25.338,29.609,30.734c4.558,2.203,9.113,3.814,13.841,5.152v51.934c-17.869-2.352-34.271-7.748-49.303-16.086
		c-20.712-11.848-36.972-29.123-48.851-51.967c-11.844-22.992-17.873-50.361-17.873-82.424c0-31.924,6.029-59.26,17.873-82.109
		c11.878-22.855,28.139-40.272,48.851-51.977C180.646,463.479,204.371,457.611,230.653,457.611 M648.125,464.058v180.957
		c0,24.285-3.578,44.188-11.004,59.852c-7.293,15.525-16.717,27.373-28.281,35.568c-11.563,8.064-23.865,13.635-36.586,16.402
		c-12.861,2.91-26.006,4.381-39.561,4.381c-19.313,0-37.57-2.941-54.881-8.795c-17.277-5.678-31.995-17.281-43.98-34.518
		c-12.158-17.141-18.152-41.564-18.152-72.891V463.9c17.275,11.127,36.271,19.922,56.418,25.773v155.34
		c0,46.396,20.013,69.523,59.856,69.523c39.74,0,59.572-23.127,59.572-69.523V489.816
		C611.814,483.963,630.81,475.185,648.125,464.058 M715.265,460.993h58.73v246.82h94.266v50.037H715.265V460.993z M209.099,784.801
		c81.862,0,87.014,36.268,174.13,36.268v51.27c-87.853,0-95.002-36.482-174.13-36.482V784.801L209.099,784.801z"/>
	<path fill="#42421C" d="M403.801,223.399l-2.276-8.937l6.132,0.299l2.313,8.92L403.801,223.399z M435.971,224.276
		c0.56-0.594,6.412-8.48,6.412-8.48l5.433-0.314l-6.554,8.936L435.971,224.276z M516.253,232.477l9.564-1.333l-0.135,8.201
		l-9.566,1.471L516.253,232.477z M544.816,237.154l9.604-8.48l7.426-0.456l-8.307,8.2L544.816,237.154z M363.257,258.39l-6.45,0.282
		c1.439,0.595,5.994,3.662,8.729,8.339c-2.278,5.573-3.996,2.785-7.15,9.235c2.136,10.966,7.852,17.137,12.582,29.716
		c-11.563-3.803,0.7,0.44-13.423-9.074c-5.85-3.96-2.172-1.754-6.026-5.416c-21.133-19.765-9.985-8.937-15.56-31.926l-9.145,0.157
		l-0.7,28.842l-14.719-6.745c-0.142,0-8.728,5.573-8.868,5.73c37.007,12,57.437,30.274,85.157,52.249
		c30.979,24.74,3.151,30.435,20.988,46.833c6.273,5.715,8.165,11.269,7.992,20.063l-0.563,40.265
		c11.705,10.671,34.133,25.601,55.997,30.137l0.143-94.705c5.432-7.461,11.705-9.951,14.577-21.235
		c-1.118-11.265-15.419,0.456-9.426-39.352c17.173-5.274,41.142-13.176,59.714-19.922c9.738-3.524,20.713-10.391,31.15-11.705
		l-8.865-0.578c-3.713,0.735-9.848,3.347-17.273,5.695l-56,14.05c4.837-13.912,16.715-12,35.29-24.441
		c-2.73-0.437-4.17-1.313-6.168-1.172c-5.396,0.437-9.85,4.099-16.576,5.711c0.736-1.471,5.011-8.2,5.011-8.2l-6.413-1.751
		c-7.009,10.529-21.025,20.638-28.594,31.608c-7.15,10.25-13.986,23.725-17.979,36.163c-19.309-4.378-11.285-29.995-14.439-49.776
		c-1.998-12.145-14.438-34.396-18.993-47.713l-7.989,1.77c6.271,22.392,26.563,59.277,11.108,97.615
		c-14.121-17.699,1.612-10.093-30.979-31.155c-14.575-14.069-20.85-29.873-24.004-39.388c-1.437-4.539,8.552-6.588,8.865-10.69
		C374.4,265.417,365.955,261.178,363.257,258.39"/>
	<path fill="#76B948" d="M441.261,224.434l-41-1.034c-31.434,0-55.159-4.52-73.59-9.373c-14.859-3.803-24.426-9.078-33.991-11.127
		c-4.873-1.156-11.284-0.578-15.28-0.279c-14.438,0.735-108.6,5.412-116.727,25.896c-8.866,22.392,43.557,10.25,82.421,12.755
		c63.286,3.945,60.729,15.367,79.724,18.432l7.85,0.142c8.724-0.421,17.417-0.736,26.141-1.157
		c39.458-5.274,53.441-2.926,78.146-17.137C452.266,231.757,442.7,224.713,441.261,224.434 M460.676,213.605
		c6.588-1.77,12.161-4.256,20.991-6.026c33.467-6.729,100.577-1.157,95.456-26.038c-8.023-39.23-284.021-39.23-285.179,1.892
		c-0.562,26.353,105.725,31.187,137.718,32.347C439.684,216.076,450.827,216.076,460.676,213.605 M302.525,262.928
		c-19.835-10.388-55.999-13.613-78.425-14.191c-83.718-2.364-152.439,25.476-81.72,45.677c31.572,8.92,79.302,9.498,111.857,5.695
		C262.822,299.232,344.964,285.619,302.525,262.928 M642.13,227.501c-1.156-3.225-0.455-4.818-9.887-7.465
		c-34.967-9.951-175.144-23.426-177.28,10.25c-0.982,18.293,28.421,9.656,41.736,6.151
		C536.265,226.027,601.13,227.219,642.13,227.501 M486.816,247.703c-12.438,4.539-29.854,13.774-10.864,23.725
		c62.87,32.783,276.174,22.533,277.159-7.921C754.267,226.345,542.675,227.64,486.816,247.703 M494.525,501.537
		c-6.972,8.201-11.424,25.032-10.688,39.366c0.841,14.646,6.974,26.809,21.275,24.314c2.729-0.457,5.145-1.611,7.145-3.359
		c2.877-2.352,4.836-5.719,5.293-9.676c1.125-9.354-4.729-12.303-8.725-16.4C501.255,528.042,497.262,510.894,494.525,501.537"/>
</g>
</svg>
