<svg id="Слой_1" data-name="Слой 1" xmlns="http://www.w3.org/2000/svg" viewBox="0 0 30 30">
  <defs>
    <style>
      .cls-1 {
        fill: none;
      }
    </style>
  </defs>
  <title>Icons</title>
  <g id="Base_icon">
    <rect class="cls-1" x="1.07" y="20.29" width="13.39" height="3.67"/>
    <rect class="cls-1" x="1.07" y="10.79" width="13.39" height="3.67"/>
    <path class="cls-1" d="M14.46,25v3.89H11.27a.55.55,0,0,1-.37-.14,1.13,1.13,0,0,0-.7-.25,1.06,1.06,0,0,0-.69.25.59.59,0,0,1-.38.14H1.67a.6.6,0,0,1-.6-.6V25Z"/>
    <rect class="cls-1" x="1.07" y="15.54" width="13.39" height="3.67"/>
    <rect class="cls-1" x="1.07" y="6.04" width="13.39" height="3.67"/>
    <path class="cls-1" d="M28.93,1.67V5H15.54V1.07h3.19a.55.55,0,0,1,.37.14,1.13,1.13,0,0,0,.7.25,1.06,1.06,0,0,0,.69-.25.59.59,0,0,1,.38-.14h7.46A.6.6,0,0,1,28.93,1.67Z"/>
    <path class="cls-1" d="M14.46,1.07V5H1.07V1.67a.6.6,0,0,1,.6-.6H9.13a.59.59,0,0,1,.38.14,1.06,1.06,0,0,0,.69.25,1.13,1.13,0,0,0,.71-.26.55.55,0,0,1,.36-.13Z"/>
    <path class="cls-1" d="M28.93,25v3.29a.6.6,0,0,1-.6.6H20.87a.59.59,0,0,1-.38-.14,1.06,1.06,0,0,0-.69-.25,1.13,1.13,0,0,0-.71.26.55.55,0,0,1-.36.13H15.54V25Z"/>
    <rect class="cls-1" x="15.54" y="10.79" width="13.39" height="3.67"/>
    <rect class="cls-1" x="15.54" y="6.04" width="13.39" height="3.67"/>
    <rect class="cls-1" x="15.54" y="15.54" width="13.39" height="3.67"/>
    <rect class="cls-1" x="15.54" y="20.29" width="13.39" height="3.67"/>
    <path d="M28.33,0H20.87a1.87,1.87,0,0,0-1.08.38A1.72,1.72,0,0,0,18.73,0H11.27a1.93,1.93,0,0,0-1.1.38,1.66,1.66,0,0,0-1-.38H1.67A1.67,1.67,0,0,0,0,1.67V28.33A1.67,1.67,0,0,0,1.67,30H9.13a1.87,1.87,0,0,0,1.08-.38,1.72,1.72,0,0,0,1.06.38h7.46a1.93,1.93,0,0,0,1.1-.38,1.66,1.66,0,0,0,1,.38h7.46A1.67,1.67,0,0,0,30,28.33V1.67A1.67,1.67,0,0,0,28.33,0ZM19.1,1.21a1.13,1.13,0,0,0,.7.25,1.06,1.06,0,0,0,.69-.25.59.59,0,0,1,.38-.14h7.46a.6.6,0,0,1,.6.6V5H15.54V1.07h3.19A.55.55,0,0,1,19.1,1.21Zm9.83,8.5H15.54V6H28.93Zm0,4.75H15.54V10.79H28.93Zm0,4.75H15.54V15.54H28.93Zm0,4.75H15.54V20.29H28.93ZM1.07,20.29H14.46V24H1.07Zm0-4.75H14.46v3.67H1.07Zm0-4.75H14.46v3.67H1.07ZM1.07,6H14.46V9.71H1.07Zm0-4.37a.6.6,0,0,1,.6-.6H9.13a.59.59,0,0,1,.38.14,1.06,1.06,0,0,0,.69.25,1.13,1.13,0,0,0,.71-.26.55.55,0,0,1,.36-.13h3.19V5H1.07ZM10.9,28.79a1.13,1.13,0,0,0-.7-.25,1.06,1.06,0,0,0-.69.25.59.59,0,0,1-.38.14H1.67a.6.6,0,0,1-.6-.6V25H14.46v3.89H11.27A.55.55,0,0,1,10.9,28.79Zm18-.46a.6.6,0,0,1-.6.6H20.87a.59.59,0,0,1-.38-.14,1.06,1.06,0,0,0-.69-.25,1.13,1.13,0,0,0-.71.26.55.55,0,0,1-.36.13H15.54V25H28.93Z"/>
  </g>
</svg>
