<svg id="Слой_1" data-name="Слой 1" xmlns="http://www.w3.org/2000/svg" viewBox="0 0 30 30">
  <title>Icons</title>
  <path id="Bed_icon" d="M27.08,12.72V7.84a2.78,2.78,0,0,0-3-3H5.81a2.77,2.77,0,0,0-3,3v4.88A3.05,3.05,0,0,0,0,16.06v3.78A1.15,1.15,0,0,0,1.16,21h.38v3A1.15,1.15,0,0,0,2.7,25.14H3.79A1.15,1.15,0,0,0,4.94,24V21H25.06v3a1.15,1.15,0,0,0,1.15,1.16H27.3A1.15,1.15,0,0,0,28.46,24V21h.38A1.15,1.15,0,0,0,30,19.81V16.06A3.19,3.19,0,0,0,27.08,12.72ZM3.91,7.84H4A1.64,1.64,0,0,1,5.81,6H24.1a1.64,1.64,0,0,1,1.83,1.82v4.85h-.87V9.93A1.15,1.15,0,0,0,23.9,8.78H16.84a1.14,1.14,0,0,0-1.15,1.15v2.76H14.34V9.93a1.14,1.14,0,0,0-1.15-1.15H6.13A1.15,1.15,0,0,0,5,9.93v2.76H3.91Zm20,2.09v2.76H16.84V9.93Zm-10.65,0v2.76H6.19V9.93ZM3.75,24H2.66V21H3.75Zm23.49,0H26.15V21h1.09Zm1.51-4.14H1.12V16.06a2,2,0,0,1,2.22-2.22H26.53a2,2,0,0,1,2.22,2.22Z"/>
</svg>
