<?xml version="1.0" encoding="utf-8"?>
<!-- Generator: Adobe Illustrator 16.0.0, SVG Export Plug-In . SVG Version: 6.00 Build 0)  -->
<!DOCTYPE svg PUBLIC "-//W3C//DTD SVG 1.1//EN" "http://www.w3.org/Graphics/SVG/1.1/DTD/svg11.dtd">
<svg version="1.1" id="Layer_1" xmlns="http://www.w3.org/2000/svg" xmlns:xlink="http://www.w3.org/1999/xlink" x="0px" y="0px"
	 width="40.5px" height="75.5px" viewBox="0 0 40.5 75.5" enable-background="new 0 0 40.5 75.5" xml:space="preserve">
<path d="M9.477,30.565l0.067,0.109c0.372,0.369,0.791,0.681,1.196,0.983c0.259,0.194,0.52,0.387,0.766,0.596l1.215,0.784l0,0l0,0
	c1.451,0.552,2.806,0.745,4.003,0.579c0.598-0.083,1.156-0.256,1.667-0.518c2.288-1.15,4.422-2.969,6.341-5.406l0.403-0.502
	c1.208-1.503,2.458-3.058,3.464-4.756c1.914-2.936,3.773-6.106,3.595-9.635c-0.278-2.778-2.619-4.535-4.873-5.889
	c-0.449-0.284-1.046-0.151-1.353,0.307c-0.898,1.104-1.799,2.268-2.671,3.394c-0.753,0.974-1.507,1.948-2.278,2.909
	c-0.322,0.323-0.517,0.867-0.476,1.362c0.035,0.403,0.219,0.745,0.522,0.962c0.329,0.268,0.68,0.532,1.032,0.797
	c0.293,0.221,0.584,0.44,0.872,0.669c-0.248,1.085-0.907,2.028-1.546,2.941c-0.167,0.238-0.333,0.476-0.492,0.714l-0.258,0.319
	c-0.685,0.855-1.393,1.738-2.332,2.291c-0.432-0.209-0.814-0.5-1.219-0.806c-0.322-0.245-0.654-0.497-1.016-0.707
	c-0.659-0.381-1.448-0.031-1.799,0.511c-1.237,1.645-2.481,3.309-3.726,4.971l-0.977,1.306C9.276,29.229,9.229,29.81,9.477,30.565z
	 M15.813,31.977c-1.505,0.118-2.732-0.798-3.917-1.686c-0.224-0.167-0.446-0.333-0.669-0.492c0.764-1.107,1.578-2.205,2.365-3.269
	c0.665-0.897,1.35-1.822,2.005-2.752c0.179,0.136,0.354,0.286,0.535,0.441c0.495,0.424,1.008,0.863,1.662,1.045
	c0.898,0.25,1.788-0.45,2.264-0.827c1.926-1.555,3.438-3.739,4.376-6.318c0.286-0.757,0.273-1.428-0.039-1.886
	c-0.337-0.494-0.838-0.803-1.322-1.101c-0.257-0.158-0.503-0.31-0.72-0.484c0.576-0.769,1.149-1.542,1.721-2.314
	c0.918-1.238,1.835-2.476,2.768-3.701c1.073,0.72,2.001,1.504,2.761,2.333l0.011,0.011c0.51,0.496,0.674,1.25,0.833,1.981
	l0.016,0.074c0.101,2.096-0.838,4.169-1.772,5.914c-1.387,2.69-3.295,5.115-5.141,7.461c-0.346,0.439-0.692,0.88-1.035,1.321
	l-0.245,0.24C20.478,29.752,18.446,31.769,15.813,31.977z"/>
<path d="M24.071,37.245c-0.449-0.284-1.046-0.151-1.353,0.307c-0.898,1.104-1.799,2.268-2.671,3.394
	c-0.753,0.974-1.507,1.948-2.278,2.909c-0.322,0.323-0.517,0.867-0.476,1.362c0.035,0.403,0.219,0.745,0.522,0.962
	c0.329,0.268,0.68,0.532,1.032,0.797c0.293,0.221,0.584,0.44,0.872,0.669c-0.248,1.085-0.907,2.028-1.546,2.941
	c-0.167,0.238-0.333,0.476-0.492,0.714l-0.258,0.319c-0.685,0.855-1.393,1.738-2.332,2.291c-0.432-0.209-0.814-0.5-1.219-0.806
	c-0.322-0.245-0.654-0.497-1.016-0.707c-0.659-0.381-1.448-0.031-1.799,0.511c-1.237,1.645-2.481,3.309-3.726,4.971l-0.977,1.306
	c-0.329,0.378-0.376,0.959-0.128,1.715l0.067,0.109c0.372,0.369,0.791,0.681,1.196,0.983c0.259,0.194,0.52,0.387,0.766,0.596
	l1.215,0.784c1.451,0.552,2.806,0.745,4.003,0.579c0.598-0.083,1.156-0.256,1.667-0.518c2.288-1.15,4.422-2.969,6.341-5.406
	l0.403-0.502c1.208-1.503,2.458-3.058,3.464-4.756c1.914-2.936,3.773-6.106,3.595-9.635C28.666,40.355,26.325,38.599,24.071,37.245z
	"/>
</svg>
