<svg id="Capa_1" data-name="Capa 1" xmlns="http://www.w3.org/2000/svg" viewBox="0 0 486 491.2">
  <title>close</title>
  <path d="M488.55,475.33a15.68,15.68,0,0,1-4.64,11.15,15.83,15.83,0,0,1-11.1,4.66,15.5,15.5,0,0,1-11.12-4.69L245.56,270.34,29.4,486.48a15.44,15.44,0,0,1-11.09,4.67,15.84,15.84,0,0,1-11.11-4.67,15.69,15.69,0,0,1,0-22.29L225.84,245.52,7.2,26.87A15.77,15.77,0,0,1,29.51,4.55L245.56,220.61l216-216a15.77,15.77,0,1,1,22.3,22.3L265.27,245.52,483.91,464.18A15.64,15.64,0,0,1,488.55,475.33Z" transform="translate(-2.55 0.05)"/>
</svg>
