<?xml version="1.0" encoding="utf-8"?>
<!-- Generator: Adobe Illustrator 19.2.1, SVG Export Plug-In . SVG Version: 6.00 Build 0)  -->
<svg version="1.1" id="Слой_1" xmlns="http://www.w3.org/2000/svg" xmlns:xlink="http://www.w3.org/1999/xlink" x="0px" y="0px"
	 viewBox="0 0 24 24" style="enable-background:new 0 0 24 24;" xml:space="preserve">
<title>Icons_2</title>
<path d="M24,12.1L24,12.1l-3.5-8.6h1.6c0.3-0.1,0.5-0.3,0.4-0.6c0-0.2-0.2-0.4-0.4-0.4h-9.6V1c0-0.3-0.1-0.5-0.4-0.6
	c-0.3-0.1-0.6,0.2-0.6,0.5c0,0.1,0,0,0,0.1v1.5H1.9C1.6,2.6,1.4,2.8,1.5,3.1c0,0.2,0.2,0.4,0.4,0.4h1.6L0,12.1c0,0.1,0,0.1,0,0.2
	c0,2.3,1.9,4.2,4.2,4.2c2.3,0,4.2-1.9,4.2-4.2c0-0.1,0-0.1,0-0.2L5,3.5h6.4v15.8c-2.4,0.2-4.3,1.7-4.3,3.4c0,0.3,0.2,0.5,0.5,0.5
	l0,0h8.7c0.3,0,0.5-0.2,0.5-0.5l0,0c0-1.8-1.9-3.3-4.3-3.5V3.5H19l-3.4,8.6c0,0.1,0,0.1,0,0.2c0,2.3,1.9,4.2,4.2,4.2
	c2.3,0,4.2-1.9,4.2-4.2C24.1,12.2,24,12.1,24,12.1z M4.2,15.5c-1.6,0-2.9-1.1-3.2-2.7h6.3C7.2,14.3,5.8,15.5,4.2,15.5z M7.2,11.8h-6
	l3-7.4L7.2,11.8z M15.7,22.2H8.2c0.4-1.1,1.9-1.9,3.7-1.9S15.3,21.1,15.7,22.2L15.7,22.2z M19.7,4.4l3,7.4h-6L19.7,4.4z M19.7,15.5
	L19.7,15.5c-1.6,0-2.9-1.2-3.2-2.7h6.3C22.6,14.3,21.3,15.5,19.7,15.5L19.7,15.5z"/>
</svg>
