<?xml version="1.0" encoding="utf-8"?>
<!-- Generator: Adobe Illustrator 19.2.1, SVG Export Plug-In . SVG Version: 6.00 Build 0)  -->
<svg version="1.1" id="Слой_1" xmlns="http://www.w3.org/2000/svg" xmlns:xlink="http://www.w3.org/1999/xlink" x="0px" y="0px"
	 viewBox="0 0 24 24" style="enable-background:new 0 0 24 24;" xml:space="preserve">
<style type="text/css">
	.st0{fill:#4DA2C1;}
</style>
<title>Icons_2</title>
<path d="M22.1,3.4c-2.6-2.6-6.8-2.6-9.4,0L12,4.1l-0.7-0.7c-2.6-2.6-6.8-2.6-9.4,0c0,0,0,0,0,0c-2.6,2.6-2.6,6.8,0,9.4c0,0,0,0,0,0
	l9.6,9.6c0.3,0.3,0.7,0.3,1,0c0,0,0,0,0,0l9.6-9.5C24.7,10.2,24.7,6,22.1,3.4L22.1,3.4z M21.1,11.8L12,20.9l-9.1-9.1
	c-2.1-2-2.2-5.3-0.2-7.4S8,2.2,10.2,4.2c0.1,0.1,0.1,0.1,0.2,0.2l1.1,1.2c0.3,0.3,0.7,0.3,1,0c0,0,0,0,0,0l1.1-1.1
	c2.1-2,5.5-1.9,7.5,0.2C23,6.6,23,9.8,21.1,11.8L21.1,11.8z"/>
<path class="st0" d="M21.1,11.8L12,20.9l-9.1-9.1c-2.1-2-2.2-5.3-0.2-7.4S8,2.2,10.2,4.2c0.1,0.1,0.1,0.1,0.2,0.2l1.1,1.2
	c0.3,0.3,0.7,0.3,1,0c0,0,0,0,0,0l1.1-1.1c2.1-2,5.5-1.9,7.5,0.2C23,6.6,23,9.8,21.1,11.8L21.1,11.8z"/>
</svg>
