<svg id="Слой_1" data-name="Слой 1" xmlns="http://www.w3.org/2000/svg" viewBox="0 0 30 30">
  <title>Icons</title>
  <path id="Light_icon" d="M27.14,13.84,21.3,1.18A2,2,0,0,0,19.59.08H10.41A2,2,0,0,0,8.7,1.18L2.86,13.84a1.12,1.12,0,0,0,1.05,1.65H14.34v7.89a7.13,7.13,0,0,0-6.45,5.76.66.66,0,0,0,.65.78H21.46a.66.66,0,0,0,.65-.78,7.13,7.13,0,0,0-6.45-5.76V15.49h4.42v2.64a2,2,0,1,0,1.33,0V15.49h4.68a1.12,1.12,0,0,0,1.05-1.65ZM20.61,28.59H9.39a6,6,0,0,1,11.22,0Zm.14-7.94a.66.66,0,1,1,.64-.66A.65.65,0,0,1,20.74,20.65ZM4.17,14.16,9.91,1.73a.69.69,0,0,1,.5-.32h9.18a.69.69,0,0,1,.5.32l5.73,12.43Z"/>
</svg>
