<?xml version="1.0" encoding="utf-8"?>
<!-- Generator: Adobe Illustrator 16.0.0, SVG Export Plug-In . SVG Version: 6.00 Build 0)  -->
<!DOCTYPE svg PUBLIC "-//W3C//DTD SVG 1.1//EN" "http://www.w3.org/Graphics/SVG/1.1/DTD/svg11.dtd">
<svg version="1.1" id="Layer_1" xmlns="http://www.w3.org/2000/svg" xmlns:xlink="http://www.w3.org/1999/xlink" x="0px" y="0px"
	 width="1711px" height="40px" viewBox="0 0 1711 40" enable-background="new 0 0 1711 40" xml:space="preserve">
<circle fill="#020202" stroke="#000000" stroke-miterlimit="10" cx="1130" cy="11.5" r="10.5"/>
<g>
	<path fill="#020202" d="M873.5,7h-30c-2.935,0-4,2.392-4,4v11h2v2h3v-2h28v2h3v-2h2V11C877.5,8.065,875.108,7,873.5,7z M875.5,20
		h-34v-3h34V20z M846.5,15c0-1.84,0.857-1.989,1-2h5c0.94,0,0.999,1.962,1,2H846.5z M863.5,15c0-1.84,0.857-1.989,1-2h5
		c0.94,0,0.999,1.962,1,2H863.5z M875.5,15h-3c0-1.383-0.627-4-3-4h-5c-1.038,0-3,0.836-3,4h-6c0-1.383-0.627-4-3-4h-5
		c-1.038,0-3,0.836-3,4h-3v-4c0-0.334,0.096-2,2-2h30c0.334,0,2,0.096,2,2V15z"/>
</g>
<path fill="#EF8083" d="M71.959,4.905V2.027c0-1.12-0.901-2.027-2.012-2.027h-5.915h-4.785H21.651c-0.473,0-0.864,0.034-1.206,0.088
	c-1.309-0.271-2.722,0.107-3.737,1.142l-15.5,15.8c-1.609,1.64-1.609,4.3,0,5.939l15.5,15.8c0.903,0.92,2.118,1.306,3.297,1.193
	C20.125,39.984,20.247,40,20.373,40h1.277h9.422h28.174h4.785h5.915c1.111,0,2.011-0.907,2.011-2.027v-2.879
	C71.986,34.911,72,34.725,72,34.535V5.465C72,5.276,71.986,5.089,71.959,4.905z M7.5,23c-1.657,0-3-1.343-3-3s1.343-3,3-3
	s3,1.343,3,3S9.157,23,7.5,23z"/>
<path fill="#E0D260" d="M1113.469,3.679V1.52c0-0.839-0.675-1.52-1.509-1.52h-4.437h-3.589h-34.197
	c-0.355,0-0.648,0.025-0.905,0.066c-0.982-0.203-2.041,0.081-2.803,0.857l-11.625,11.85c-1.207,1.23-1.207,3.225,0,4.455
	l11.625,11.85c0.677,0.689,1.589,0.979,2.473,0.895c0.09,0.018,0.182,0.028,0.276,0.028h0.958h7.066h27.131h3.59h4.436
	c0.833,0,1.509-0.681,1.509-1.521v-2.158c0.021-0.139,0.031-0.278,0.031-0.42V4.099C1113.5,3.957,1113.49,3.817,1113.469,3.679z
	 M1059.125,17.25c-1.243,0-2.25-1.007-2.25-2.25s1.007-2.25,2.25-2.25s2.25,1.007,2.25,2.25S1060.368,17.25,1059.125,17.25z"/>
<path fill="#E0D260" d="M1517.811,2.698V1.115c0-0.616-0.494-1.115-1.105-1.115h-3.253h-2.632h-25.078
	c-0.26,0-0.475,0.018-0.663,0.048c-0.72-0.149-1.497,0.059-2.055,0.628l-8.525,8.69c-0.885,0.902-0.885,2.365,0,3.267l8.525,8.69
	c0.495,0.506,1.165,0.718,1.812,0.655c0.066,0.013,0.133,0.021,0.203,0.021h0.703h5.182h19.896h2.632h3.253
	c0.611,0,1.106-0.499,1.106-1.115v-1.583c0.015-0.101,0.022-0.204,0.022-0.308V3.006C1517.833,2.902,1517.826,2.799,1517.811,2.698z
	 M1477.958,12.65c-0.911,0-1.65-0.739-1.65-1.65s0.739-1.65,1.65-1.65s1.65,0.739,1.65,1.65S1478.87,12.65,1477.958,12.65z"/>
<path fill="#C7D8E8" d="M1566.477,2.698V1.115c0-0.616-0.494-1.115-1.105-1.115h-3.253h-2.632h-25.078
	c-0.26,0-0.475,0.018-0.663,0.048c-0.72-0.149-1.497,0.059-2.056,0.628l-8.525,8.69c-0.885,0.902-0.885,2.365,0,3.267l8.525,8.69
	c0.496,0.506,1.165,0.718,1.812,0.655c0.066,0.013,0.133,0.021,0.203,0.021h0.703h5.182h19.896h2.632h3.253
	c0.611,0,1.105-0.499,1.105-1.115v-1.583c0.016-0.101,0.023-0.204,0.023-0.308V3.006C1566.5,2.902,1566.492,2.799,1566.477,2.698z
	 M1526.625,12.65c-0.911,0-1.65-0.739-1.65-1.65s0.739-1.65,1.65-1.65s1.65,0.739,1.65,1.65S1527.536,12.65,1526.625,12.65z"/>
<path fill="#EF8083" d="M1615.477,2.698V1.115c0-0.616-0.494-1.115-1.105-1.115h-3.253h-2.632h-25.078
	c-0.26,0-0.475,0.018-0.663,0.048c-0.72-0.149-1.497,0.059-2.056,0.628l-8.525,8.69c-0.885,0.902-0.885,2.365,0,3.267l8.525,8.69
	c0.496,0.506,1.165,0.718,1.812,0.655c0.066,0.013,0.133,0.021,0.203,0.021h0.703h5.182h19.896h2.632h3.253
	c0.611,0,1.105-0.499,1.105-1.115v-1.583c0.016-0.101,0.023-0.204,0.023-0.308V3.006C1615.5,2.902,1615.492,2.799,1615.477,2.698z
	 M1575.625,12.65c-0.911,0-1.65-0.739-1.65-1.65s0.739-1.65,1.65-1.65s1.65,0.739,1.65,1.65S1576.536,12.65,1575.625,12.65z"/>
<polyline fill="none" stroke="#000000" stroke-width="1.5" stroke-linecap="round" stroke-linejoin="round" stroke-miterlimit="10" points="
	87.5,7 90.5,4 87.5,1 "/>
<polyline fill="none" stroke="#FFFFFF" stroke-width="1.5" stroke-linecap="round" stroke-linejoin="round" stroke-miterlimit="10" points="
	77.5,7 80.5,4 77.5,1 "/>
<g>
	<rect x="96.562" fill="#E0E2E2" width="20.917" height="21"/>
	<rect x="97.563" y="1" fill="#FFFFFF" width="19" height="19"/>
</g>
<g>
	<rect x="122.5" fill="#E0E2E2" width="20.917" height="21"/>
	<rect x="123.5" y="1" fill="#FFFFFF" width="19" height="19"/>
</g>
<polyline fill="none" stroke="#000000" stroke-width="1.5" stroke-linecap="round" stroke-linejoin="round" stroke-miterlimit="10" points="
	104.021,9.5 107.021,12.5 110.021,9.5 "/>
<polyline fill="none" stroke="#000000" stroke-width="1.5" stroke-linecap="round" stroke-linejoin="round" stroke-miterlimit="10" points="
	272.5,1 275.5,4 278.5,1 "/>
<polyline fill="none" stroke="#000000" stroke-width="1.5" stroke-linecap="round" stroke-linejoin="round" stroke-miterlimit="10" points="
	300.5,4 297.5,1 294.5,4 "/>
<polyline fill="none" stroke="#000000" stroke-width="1.5" stroke-linecap="round" stroke-linejoin="round" stroke-miterlimit="10" points="
	285.5,7 288.5,4 285.5,1 "/>
<polyline fill="none" stroke="#000000" stroke-width="1.5" stroke-linecap="round" stroke-linejoin="round" stroke-miterlimit="10" points="
	178.135,8 174.719,11.417 178.135,14.833 "/>
<g>
	
		<polyline fill="none" stroke="#000000" stroke-width="1.5" stroke-linecap="round" stroke-linejoin="round" stroke-miterlimit="10" points="
		150.5,1.292 155.208,6 159.917,1.292 	"/>
	
		<polyline fill="none" stroke="#000000" stroke-width="1.5" stroke-linecap="round" stroke-linejoin="round" stroke-miterlimit="10" points="
		159.917,10.708 155.208,6 150.5,10.708 	"/>
</g>
<polyline fill="none" stroke="#000000" stroke-width="2" stroke-linecap="round" stroke-linejoin="round" stroke-miterlimit="10" points="
	194.083,1 202.792,9.708 211.5,1 "/>
<polyline fill="none" stroke="#000000" stroke-width="2" stroke-linecap="round" stroke-linejoin="round" stroke-miterlimit="10" points="
	211.5,18.417 202.792,9.708 194.083,18.417 "/>
<circle fill="none" stroke="#000000" stroke-width="1.5" stroke-linecap="round" stroke-linejoin="round" stroke-miterlimit="10" cx="176.427" cy="11.146" r="10.146"/>
<polyline fill="none" stroke="#000000" stroke-width="1.5" stroke-linecap="round" stroke-linejoin="round" stroke-miterlimit="10" points="
	460.938,14.292 464.354,10.875 460.938,7.458 "/>
<circle fill="none" stroke="#000000" stroke-width="1.5" stroke-linecap="round" stroke-linejoin="round" stroke-miterlimit="10" cx="462.646" cy="11.146" r="10.146"/>
<polyline fill="none" stroke="#000000" stroke-width="1.5" stroke-linecap="round" stroke-linejoin="round" stroke-miterlimit="10" points="
	492.167,12.854 488.75,9.438 485.333,12.854 "/>
<polyline fill="none" stroke="#000000" stroke-width="2" stroke-linecap="round" stroke-linejoin="round" stroke-miterlimit="10" points="
	545.646,1 536.5,10.146 545.646,19.292 "/>
<circle fill="none" stroke="#000000" stroke-width="1.5" stroke-linecap="round" stroke-linejoin="round" stroke-miterlimit="10" cx="489.021" cy="11.146" r="10.146"/>
<polyline fill="none" stroke="#FFFFFF" stroke-width="1.5" stroke-linecap="round" stroke-linejoin="round" stroke-miterlimit="10" points="
	1130.058,14.922 1133.48,11.5 1130.058,8.078 "/>
<circle cx="340.677" cy="13.323" r="12.646"/>
<g>
	<path fill="#030303" d="M929.5,27.675h2V26.35h11v1.325h2v-22h5v5.184c-1.161,0.414-2,1.514-2,2.816c0,1.654,1.346,3,3,3
		s3-1.346,3-3c0-1.302-0.839-2.402-2-2.816V5.675h5v22h2v-24h-16V7h-11V3.675h-2V27.675z M950.5,14.675c-0.551,0-1-0.448-1-1
		c0-0.552,0.449-1,1-1s1,0.448,1,1C951.5,14.227,951.051,14.675,950.5,14.675z M931.5,8.35h11V10h-11V8.35z M931.5,11.35h11V13h-11
		V11.35z M931.5,14.35h11V16h-11V14.35z M931.5,17.35h11V19h-11V17.35z M931.5,20.35h11V22h-11V20.35z M931.5,23.35h11V25h-11V23.35
		z"/>
</g>
<polygon fill="#010101" points="631.5,5.6 636.5,23.6 638.5,23.6 642.5,9.2 646.5,23.6 648.5,23.6 653.5,5.6 651.5,5.6 647.5,20 
	643.5,5.6 641.5,5.6 637.5,20 633.5,5.6 "/>
<g>
	<path fill="#030303" d="M687,0c-7.72,0-14,6.28-14,14s6.28,14,14,14s14-6.28,14-14S694.72,0,687,0z M687,26
		c-6.617,0-12-5.383-12-12s5.383-12,12-12s12,5.383,12,12S693.617,26,687,26z"/>
	<path fill="#030303" d="M687,5c-4.962,0-9,4.037-9,9s4.038,9,9,9s9-4.037,9-9S691.962,5,687,5z M687,21c-3.86,0-7-3.141-7-7
		s3.14-7,7-7s7,3.141,7,7S690.86,21,687,21z"/>
	<circle fill="#030303" cx="687" cy="11" r="1"/>
	<rect x="686" y="13" fill="#030303" width="2" height="5"/>
</g>
<g>
	<path fill="#030303" d="M1002.693,14.395l1.527-4.18c0.169-0.46-0.062-0.969-0.517-1.142L999.573,7.5l-0.954-4.352
		c-0.105-0.478-0.573-0.783-1.047-0.679l-4.316,0.929l-3.134-3.14c-0.345-0.344-0.901-0.344-1.245,0l-3.133,3.14l-4.316-0.929
		c-0.474-0.104-0.942,0.201-1.047,0.679L979.426,7.5l-4.131,1.573c-0.454,0.173-0.685,0.683-0.517,1.142l1.527,4.18l-2.632,3.581
		c-0.289,0.393-0.21,0.949,0.177,1.243l3.525,2.687l-0.297,4.446c-0.032,0.488,0.331,0.914,0.815,0.949l4.4,0.333l2.13,3.904
		c0.234,0.43,0.766,0.585,1.195,0.354l3.88-2.121l3.88,2.121c0.135,0.072,0.278,0.107,0.421,0.107c0.312,0,0.614-0.167,0.775-0.462
		l2.13-3.904l4.399-0.333c0.483-0.035,0.848-0.46,0.815-0.949l-0.297-4.446l3.525-2.687c0.387-0.294,0.465-0.85,0.177-1.243
		L1002.693,14.395z M1000.178,20.771c-0.236,0.181-0.37,0.472-0.349,0.771l0.271,4.046l-4.002,0.305
		c-0.298,0.021-0.563,0.194-0.708,0.459l-1.938,3.549l-3.53-1.93c-0.264-0.144-0.579-0.144-0.842,0l-3.53,1.93l-1.938-3.549
		c-0.145-0.265-0.41-0.438-0.708-0.459l-4.003-0.305l0.271-4.046c0.02-0.3-0.111-0.59-0.349-0.771l-3.207-2.444l2.396-3.257
		c0.178-0.242,0.224-0.557,0.119-0.84l-1.389-3.802l3.757-1.431c0.279-0.106,0.486-0.347,0.55-0.641l0.868-3.96l3.927,0.846
		c0.292,0.067,0.595-0.026,0.808-0.238l2.85-2.856l2.85,2.856c0.212,0.212,0.518,0.308,0.808,0.238l3.927-0.846l0.867,3.96
		c0.064,0.293,0.271,0.534,0.55,0.641l3.757,1.431l-1.389,3.802c-0.104,0.282-0.06,0.598,0.119,0.84l2.396,3.257L1000.178,20.771z"
		/>
	<path fill="#030303" d="M989.47,7.005c-5.01,0-9.087,4.114-9.087,9.171s4.077,9.172,9.087,9.172s9.087-4.115,9.087-9.172
		S994.481,7.005,989.47,7.005z M989.47,23.311c-3.896,0-7.067-3.202-7.067-7.134c0-3.932,3.17-7.133,7.067-7.133
		c3.898,0,7.068,3.201,7.068,7.133C996.538,20.109,993.368,23.311,989.47,23.311z"/>
	<ellipse fill="#030303" cx="986.441" cy="19.234" rx="1.01" ry="1.019"/>
	<ellipse fill="#030303" cx="989.47" cy="19.234" rx="1.011" ry="1.019"/>
	<ellipse fill="#030303" cx="992.499" cy="19.234" rx="1.01" ry="1.019"/>
	<rect x="985.432" y="12.1" fill="#030303" width="2.02" height="5.095"/>
	<rect x="988.461" y="12.1" fill="#030303" width="2.02" height="5.095"/>
	<rect x="991.49" y="12.1" fill="#030303" width="2.019" height="5.095"/>
</g>
<g>
	<path fill="#030303" d="M617.5,11h-2V9c0-0.97-0.701-2-2-2h-11c-0.62,0-1.393,0.217-2,0.721C599.893,7.217,599.12,7,598.5,7h-11
		c-1.299,0-2,1.03-2,2v2h-2c-1.299,0-2,1.03-2,2v6c0,1.299,1.03,2,2,2v2h3v-2h28v2h3v-2c0.97,0,2-0.701,2-2v-6
		C619.5,12.03,618.799,11,617.5,11z M602.5,9h11v6h-12v-5C601.5,9.195,602.05,9.012,602.5,9z M598.488,9
		c0.462,0.012,1.012,0.195,1.012,1v5h-12V9H598.488z M583.5,13h2v2v2v2h-2V13z M587.5,19v-2h26v2H587.5z M617.5,19h-2v-6h2V19z"/>
</g>
<g>
	<path fill="#030303" d="M741.5,29v-2h3V2h-30v25h3v2h3v-2h18v2H741.5z M716.5,4h12v4h-12V4z M716.5,10h12v4h-12V10z M716.5,16h12v4
		h-12V16z M716.5,25v-3h12v3H716.5z M730.5,4h12v21h-12V4z"/>
	<circle fill="#030303" cx="734" cy="14.5" r="1.5"/>
</g>
<path fill="#010101" d="M526.984,20.468L521.5,15c1.214-1.559,1.943-3.518,1.943-5.65c0-5.056-4.074-9.17-9.083-9.17
	c-5.01,0-9.082,4.114-9.082,9.171s4.073,9.17,9.082,9.17c2.178,0,4.177-0.779,5.743-2.074l5.457,5.441
	c0.196,0.194,0.454,0.293,0.711,0.293c0.258,0,0.516-0.099,0.712-0.295C527.376,21.495,527.376,20.859,526.984,20.468z
	 M507.29,9.351c0-3.95,3.171-7.163,7.069-7.163c3.897,0,7.069,3.213,7.069,7.163c0,3.95-3.172,7.163-7.069,7.163
	C510.461,16.514,507.29,13.3,507.29,9.351z"/>
<g>
	
		<rect x="257.567" y="-1.238" transform="matrix(0.7071 0.7071 -0.7071 0.7071 80.2379 -180.7067)" fill="#010101" width="1.368" height="15.481"/>
	<path fill="#010101" d="M254.487,0c-1.509,0-2.737,1.227-2.737,2.737c0,1.51,1.227,2.737,2.737,2.737
		c1.51,0,2.737-1.227,2.737-2.737C257.224,1.227,255.996,0,254.487,0z M254.487,4.105c-0.755,0-1.368-0.614-1.368-1.368
		c0-0.754,0.614-1.368,1.368-1.368c0.754,0,1.368,0.614,1.368,1.368C255.855,3.491,255.242,4.105,254.487,4.105z"/>
	<path fill="#010101" d="M259.276,10.263c0,1.509,1.227,2.737,2.737,2.737c1.51,0,2.737-1.227,2.737-2.737
		c0-1.51-1.227-2.737-2.737-2.737C260.503,7.526,259.276,8.754,259.276,10.263z M263.382,10.263c0,0.755-0.614,1.368-1.368,1.368
		c-0.755,0-1.368-0.614-1.368-1.368c0-0.754,0.614-1.368,1.368-1.368C262.768,8.895,263.382,9.508,263.382,10.263z"/>
</g>
<g>
	<circle fill="#030303" cx="768.5" cy="19.5" r="1.5"/>
	<circle fill="#030303" cx="777.5" cy="19.5" r="1.5"/>
	<path fill="#030303" d="M758,27h3v2h3v-2h18v2h3v-2h3V13h-3V1h-23v12h-4V27z M786,15v10h-12V15h11H786z M769.297,13
		c-0.718-0.512-1.086-1.889-1.226-3H772h3h3.932c-0.138,1.11-0.505,2.486-1.228,3H769.297z M764,3h19v10h-2.829
		C780.964,11.343,781,9.32,781,9V8h-6V7h1V6h-1V5h-2v1v1v1h-1h-6v1c0,0.32,0.036,2.343,0.829,4H764V3z M760,15h2h10v10h-12V15z"/>
</g>
<g>
	<path fill="#030303" d="M887.5,26h2v2h3v-2h10h2h7v2h3v-2h2V2h-14v17h-15V26z M904.5,4h10v20h-10v-5V4z M902.5,21v3h-3v-3H902.5z
		 M897.5,21v3h-3v-3H897.5z M889.5,21h3v3h-3V21z"/>
	<path fill="#030303" d="M890.5,2v11h-1v2h1h9h1v-2h-1V2H890.5z M892.5,13V4h5v9H892.5z"/>
	<circle fill="#030303" cx="908" cy="13.5" r="1.5"/>
</g>
<g>
	<path fill="#030303" d="M827.5,27v-2h3v-8h-8v-1h-3v-2h8V2h-22v12h8v2h-3v1h-8v8h3v2h3v-2h16v2H827.5z M807.5,12V4h18v8H807.5z
		 M804.5,19h24v1h-24V19z M804.5,23v-1h24v1H804.5z"/>
</g>
<g>
	<g>
		<path fill="#030303" d="M239.463,20.871l-0.058-0.04l0,0l-0.047-0.083l0,0l-0.09-0.096l0,0l-0.105-0.121l0,0l-0.031-0.055l0,0
			l-0.075-0.067l0,0l-0.058-0.04l0,0l-0.047-0.083c-1.063-1.102-2.931-2.656-2.931-2.656l-2.166,1.307l-0.028,0.015
			c-0.91,0.446-2.491-1.308-3.648-3.338c-1.142-2.003-1.858-4.284-1.011-4.84l0.028-0.015l2.228-1.197c0,0-0.385-2.398-0.789-3.876
			l-0.047-0.083l0,0l-0.003-0.07l0,0l-0.019-0.098l0,0l-0.031-0.055l0,0l-0.05-0.153l0,0l-0.035-0.126l0,0l-0.031-0.055l0,0
			l-0.003-0.07l0,0l0,0c-0.015-0.028-0.015-0.028-0.015-0.028c-0.148-0.133-1.223-0.104-2.353,0.467L228.02,5.43l-0.11,0.062
			l-0.028,0.015l-0.083,0.047l-0.055,0.031l-0.067,0.075l-0.084,0.049l-0.028,0.015c-0.627,0.431-1.204,1.013-1.555,1.867
			l-0.028,0.015c-0.012,0.043-0.052,0.102-0.047,0.173L225.904,7.8c-0.012,0.043-0.035,0.13-0.047,0.173l-0.012,0.043
			c-0.012,0.043-0.052,0.102-0.062,0.145l-0.025,0.086l-0.035,0.13l-0.025,0.086l-0.035,0.13l-0.008,0.113l-0.025,0.087
			l-0.019,0.157l-0.025,0.086c-0.012,0.043-0.008,0.113-0.019,0.157l0.003,0.07l-0.032,0.2l0.003,0.07
			c0.003,0.07,0.008,0.141-0.016,0.228l0,0c0.019,0.098-0.004,0.185,0.015,0.282l0,0c0.002,0.835,0.142,1.845,0.485,2.958
			c0.245,0.879,0.577,1.78,0.991,2.635l0.031,0.055l0.031,0.055l0.031,0.055l0.003,0.07l0.062,0.11l0.031,0.055l0.047,0.083
			l0.047,0.083l0.015,0.028l0.031,0.055l0.031,0.055l0.098,0.235l0,0l0.031,0.055l0.047,0.083l0.015,0.028l0.047,0.083l0.031,0.055
			l0.031,0.055l0.031,0.055l0.031,0.055l0.031,0.055l0.047,0.083l0.015,0.028l0.047,0.083l0.031,0.055l0.031,0.055l0.031,0.055l0,0
			l0.153,0.204l0.047,0.083l0.015,0.028l0.015,0.028l0.062,0.11l0.031,0.055l0.031,0.055l0.062,0.11l0.058,0.04l0.031,0.055
			l0.047,0.083l0.015,0.028c0.524,0.793,1.13,1.537,1.76,2.195c0.798,0.89,1.581,1.499,2.297,1.927l0.015,0.027
			c0.058,0.041,0.145,0.062,0.22,0.131l0,0c0.102,0.05,0.16,0.09,0.22,0.13l0.043,0.012c0.058,0.04,0.13,0.035,0.188,0.075
			l0.058,0.04l0.145,0.062l0.102,0.051l0.13,0.035l0.102,0.049l0.086,0.023l0.13,0.035l0.086,0.023l0.13,0.035l0.086,0.022
			l0.173,0.047l0.028-0.015c0.058,0.04,0.13,0.035,0.173,0.047l0.043,0.012l0.157,0.02l0.028-0.016
			c0.913,0.135,1.709-0.063,2.399-0.386l0.028-0.015l0.098-0.02l0.083-0.047l0.055-0.031l0.083-0.047l0.028-0.015l0.11-0.062
			l0.028-0.016C238.929,21.977,239.502,21.068,239.463,20.871L239.463,20.871L239.463,20.871L239.463,20.871z"/>
	</g>
	<path fill="#030303" d="M232,29c-7.995,0-14.5-6.505-14.5-14.5S224.005,0,232,0s14.5,6.505,14.5,14.5S239.996,29,232,29z
		 M232,1.374c-7.238,0-13.126,5.888-13.126,13.126c0,7.238,5.888,13.126,13.126,13.126s13.126-5.888,13.126-13.126
		C245.126,7.262,239.238,1.374,232,1.374z"/>
	<g>
		<path fill="#030303" d="M239.463,20.871l-0.058-0.04l0,0l-0.047-0.083l0,0l-0.09-0.096l0,0l-0.105-0.121l0,0l-0.031-0.055l0,0
			l-0.075-0.067l0,0l-0.058-0.04l0,0l-0.047-0.083c-1.063-1.102-2.931-2.656-2.931-2.656l-2.166,1.307l-0.028,0.015
			c-0.91,0.446-2.491-1.308-3.648-3.338c-1.142-2.003-1.858-4.284-1.011-4.84l0.028-0.015l2.228-1.197c0,0-0.385-2.398-0.789-3.876
			l-0.047-0.083l0,0l-0.003-0.07l0,0l-0.019-0.098l0,0l-0.031-0.055l0,0l-0.05-0.153l0,0l-0.035-0.126l0,0l-0.031-0.055l0,0
			l-0.003-0.07l0,0l0,0c-0.015-0.028-0.015-0.028-0.015-0.028c-0.148-0.133-1.223-0.104-2.353,0.467L228.02,5.43l-0.11,0.062
			l-0.028,0.015l-0.083,0.047l-0.055,0.031l-0.067,0.075l-0.084,0.049l-0.028,0.015c-0.627,0.431-1.204,1.013-1.555,1.867
			l-0.028,0.015c-0.012,0.043-0.052,0.102-0.047,0.173L225.904,7.8c-0.012,0.043-0.035,0.13-0.047,0.173l-0.012,0.043
			c-0.012,0.043-0.052,0.102-0.062,0.145l-0.025,0.086l-0.035,0.13l-0.025,0.086l-0.035,0.13l-0.008,0.113l-0.025,0.087
			l-0.019,0.157l-0.025,0.086c-0.012,0.043-0.008,0.113-0.019,0.157l0.003,0.07l-0.032,0.2l0.003,0.07
			c0.003,0.07,0.008,0.141-0.016,0.228l0,0c0.019,0.098-0.004,0.185,0.015,0.282l0,0c0.002,0.835,0.142,1.845,0.485,2.958
			c0.245,0.879,0.577,1.78,0.991,2.635l0.031,0.055l0.031,0.055l0.031,0.055l0.003,0.07l0.062,0.11l0.031,0.055l0.047,0.083
			l0.047,0.083l0.015,0.028l0.031,0.055l0.031,0.055l0.098,0.235l0,0l0.031,0.055l0.047,0.083l0.015,0.028l0.047,0.083l0.031,0.055
			l0.031,0.055l0.031,0.055l0.031,0.055l0.031,0.055l0.047,0.083l0.015,0.028l0.047,0.083l0.031,0.055l0.031,0.055l0.031,0.055l0,0
			l0.153,0.204l0.047,0.083l0.015,0.028l0.015,0.028l0.062,0.11l0.031,0.055l0.031,0.055l0.062,0.11l0.058,0.04l0.031,0.055
			l0.047,0.083l0.015,0.028c0.524,0.793,1.13,1.537,1.76,2.195c0.798,0.89,1.581,1.499,2.297,1.927l0.015,0.027
			c0.058,0.041,0.145,0.062,0.22,0.131l0,0c0.102,0.05,0.16,0.09,0.22,0.13l0.043,0.012c0.058,0.04,0.13,0.035,0.188,0.075
			l0.058,0.04l0.145,0.062l0.102,0.051l0.13,0.035l0.102,0.049l0.086,0.023l0.13,0.035l0.086,0.023l0.13,0.035l0.086,0.022
			l0.173,0.047l0.028-0.015c0.058,0.04,0.13,0.035,0.173,0.047l0.043,0.012l0.157,0.02l0.028-0.016
			c0.913,0.135,1.709-0.063,2.399-0.386l0.028-0.015l0.098-0.02l0.083-0.047l0.055-0.031l0.083-0.047l0.028-0.015l0.11-0.062
			l0.028-0.016C238.929,21.977,239.502,21.068,239.463,20.871L239.463,20.871L239.463,20.871L239.463,20.871z"/>
	</g>
	<path fill="#030303" d="M232,29c-7.995,0-14.5-6.505-14.5-14.5S224.005,0,232,0s14.5,6.505,14.5,14.5S239.996,29,232,29z
		 M232,1.374c-7.238,0-13.126,5.888-13.126,13.126c0,7.238,5.888,13.126,13.126,13.126s13.126-5.888,13.126-13.126
		C245.126,7.262,239.238,1.374,232,1.374z"/>
</g>
<path fill="#010101" d="M526.984,20.468L521.5,15c1.214-1.559,1.943-3.518,1.943-5.65c0-5.056-4.074-9.17-9.083-9.17
	c-5.01,0-9.082,4.114-9.082,9.171s4.073,9.17,9.082,9.17c2.178,0,4.177-0.779,5.743-2.074l5.457,5.441
	c0.196,0.194,0.454,0.293,0.711,0.293c0.258,0,0.516-0.099,0.712-0.295C527.376,21.495,527.376,20.859,526.984,20.468z
	 M507.29,9.351c0-3.95,3.171-7.163,7.069-7.163c3.897,0,7.069,3.213,7.069,7.163c0,3.95-3.172,7.163-7.069,7.163
	C510.461,16.514,507.29,13.3,507.29,9.351z"/>
<g>
	
		<rect x="257.567" y="-1.238" transform="matrix(0.7071 0.7071 -0.7071 0.7071 80.2379 -180.7067)" fill="#010101" width="1.368" height="15.481"/>
	<path fill="#010101" d="M254.487,0c-1.509,0-2.737,1.227-2.737,2.737c0,1.51,1.227,2.737,2.737,2.737
		c1.51,0,2.737-1.227,2.737-2.737C257.224,1.227,255.996,0,254.487,0z M254.487,4.105c-0.755,0-1.368-0.614-1.368-1.368
		c0-0.754,0.614-1.368,1.368-1.368c0.754,0,1.368,0.614,1.368,1.368C255.855,3.491,255.242,4.105,254.487,4.105z"/>
	<path fill="#010101" d="M259.276,10.263c0,1.509,1.227,2.737,2.737,2.737c1.51,0,2.737-1.227,2.737-2.737
		c0-1.51-1.227-2.737-2.737-2.737C260.503,7.526,259.276,8.754,259.276,10.263z M263.382,10.263c0,0.755-0.614,1.368-1.368,1.368
		c-0.755,0-1.368-0.614-1.368-1.368c0-0.754,0.614-1.368,1.368-1.368C262.768,8.895,263.382,9.508,263.382,10.263z"/>
</g>
<g>
	
		<rect x="1029.007" y="5.194" transform="matrix(0.7074 0.7069 -0.7069 0.7074 313.0995 -723.2427)" fill="#010101" width="2" height="22.627"/>
	<path fill="#010101" d="M1024.5,7c-2.206,0-4,1.794-4,4s1.794,4,4,4s4-1.794,4-4S1026.706,7,1024.5,7z M1024.5,13
		c-1.104,0-2-0.897-2-2s0.896-2,2-2s2,0.897,2,2S1025.604,13,1024.5,13z"/>
	<path fill="#010101" d="M1031.5,22c0,2.206,1.794,4,4,4s4-1.794,4-4s-1.794-4-4-4S1031.5,19.794,1031.5,22z M1037.5,22
		c0,1.104-0.896,2-2,2s-2-0.896-2-2s0.896-2,2-2S1037.5,20.896,1037.5,22z"/>
</g>
<g>
	
		<polyline fill="none" stroke="#FFFFFF" stroke-width="1.5" stroke-linecap="round" stroke-linejoin="round" stroke-miterlimit="10" points="
		336.854,9.5 340.677,13.323 344.5,9.5 	"/>
	
		<polyline fill="none" stroke="#FFFFFF" stroke-width="1.5" stroke-linecap="round" stroke-linejoin="round" stroke-miterlimit="10" points="
		344.5,17.146 340.677,13.323 336.854,17.146 	"/>
</g>
<circle fill="#EDE274" cx="371.5" cy="13.323" r="12.646"/>
<g>
	
		<polyline fill="none" stroke="#020202" stroke-width="1.5" stroke-linecap="round" stroke-linejoin="round" stroke-miterlimit="10" points="
		366.094,13.323 371.5,13.323 371.5,7.916 	"/>
	
		<polyline fill="none" stroke="#020202" stroke-width="1.5" stroke-linecap="round" stroke-linejoin="round" stroke-miterlimit="10" points="
		376.906,13.323 371.5,13.323 371.5,18.729 	"/>
</g>
<g>
	<polyline fill="none" stroke="#020202" stroke-linecap="round" stroke-linejoin="round" stroke-miterlimit="10" points="
		563.229,0.979 566.229,3.979 569.229,0.979 	"/>
	<polyline fill="none" stroke="#020202" stroke-linecap="round" stroke-linejoin="round" stroke-miterlimit="10" points="
		569.229,6.979 566.229,3.979 563.229,6.979 	"/>
</g>
<rect x="419.5" fill="#020202" width="26" height="3"/>
<rect x="419.5" y="9" fill="#020202" width="26" height="3"/>
<rect x="419.5" y="18" fill="#020202" width="26" height="3"/>
<line fill="none" stroke="#FFFFFF" stroke-width="1.5" stroke-linecap="round" stroke-linejoin="round" stroke-miterlimit="10" x1="1125.844" y1="11.5" x2="1132.526" y2="11.5"/>
<polyline fill="none" stroke="#000000" stroke-width="1.5" stroke-linecap="round" stroke-linejoin="round" stroke-miterlimit="10" points="
	1156.949,14.922 1160.371,11.5 1156.949,8.078 "/>
<circle fill="none" stroke="#000000" stroke-linecap="round" stroke-linejoin="round" stroke-miterlimit="10" cx="1156.891" cy="11.5" r="10.5"/>
<line fill="none" stroke="#000000" stroke-width="1.5" stroke-linecap="round" stroke-linejoin="round" stroke-miterlimit="10" x1="1152.735" y1="11.5" x2="1159.417" y2="11.5"/>
<circle fill="#020202" stroke="#000000" stroke-miterlimit="10" cx="1184" cy="11.5" r="10.5"/>
<polyline fill="none" stroke="#FFFFFF" stroke-width="1.5" stroke-linecap="round" stroke-linejoin="round" stroke-miterlimit="10" points="
	1183.942,8.078 1180.52,11.5 1183.942,14.922 "/>
<line fill="none" stroke="#FFFFFF" stroke-width="1.5" stroke-linecap="round" stroke-linejoin="round" stroke-miterlimit="10" x1="1188.156" y1="11.5" x2="1181.474" y2="11.5"/>
<polyline fill="none" stroke="#000000" stroke-width="1.5" stroke-linecap="round" stroke-linejoin="round" stroke-miterlimit="10" points="
	1210.833,8.078 1207.411,11.5 1210.833,14.922 "/>
<circle fill="none" stroke="#000000" stroke-linecap="round" stroke-linejoin="round" stroke-miterlimit="10" cx="1210.891" cy="11.5" r="10.5"/>
<line fill="none" stroke="#000000" stroke-width="1.5" stroke-linecap="round" stroke-linejoin="round" stroke-miterlimit="10" x1="1215.047" y1="11.5" x2="1208.365" y2="11.5"/>
<circle fill="#070909" cx="1696.5" cy="13" r="9"/>
<polygon fill="#070909" points="1697.417,0 1696.5,0 1695.583,0 1691,9 1696.5,10 1702,9 "/>
<circle fill="#FFFFFF" cx="1696.5" cy="13" r="4"/>
<rect x="1636.5" y="1" fill="#161717" width="12" height="12"/>
<polygon fill="#161717" points="1676.007,0 1678.747,1.632 1681.528,3.262 1681.528,6.477 1681.528,9.74 1678.747,11.37 
	1676.007,13 1673.268,11.37 1670.528,9.74 1670.528,6.477 1670.528,3.262 1673.268,1.632 "/>
<polygon fill="#161717" points="1660.059,0.65 1667.199,13 1652.969,13 "/>
<path fill="#161717" d="M1626.218,0c3.734,0,6.817,3.029,6.817,6.765c0,3.786-3.082,6.817-6.817,6.817
	c-3.734,0-6.765-3.031-6.765-6.817C1619.453,3.029,1622.484,0,1626.218,0L1626.218,0z"/>
<g>
	<path fill="#020202" d="M1331.501,7.598c0,0-3.284,1.949-4,3c-0.716,1.051-1-1-6-2s-7,2-7,2l-1,3l-1,3l4,5.333l9,8.666l13-12v-8
		l-3-2L1331.501,7.598z"/>
	<g>
		<path fill="#020202" d="M1326.001,29.539c-3.382-3.032-10.406-9.501-11.787-11.572c-0.771-1.156-1.069-3.435-0.151-5.556
			c0.55-1.266,1.723-2.861,4.197-3.274c0.549-0.091,1.082-0.138,1.585-0.138c3.589,0,4.853,2.336,4.899,2.427
			c0.048,0.096,0.111,0.184,0.188,0.26l0.285,0.285c0.206,0.206,0.499,0.288,0.784,0.267l0.5-2.307
			c-0.026,0.03-0.562-0.331-0.587-0.302C1325.04,8.581,1323.169,7,1319.846,7c-0.613,0-1.257,0.056-1.913,0.165
			c-2.624,0.437-4.648,2.018-5.704,4.452c-1.077,2.49-0.945,5.558,0.322,7.46c1.937,2.903,12.399,12.207,12.844,12.603
			c0.175,0.154,0.39,0.229,0.607,0.241L1326.001,29.539L1326.001,29.539z"/>
		<path fill="#020202" d="M1326.001,29.539c3.382-3.032,10.406-9.501,11.787-11.572c0.771-1.156,1.069-3.435,0.151-5.556
			c-0.55-1.266-1.723-2.861-4.197-3.274c-0.549-0.091-1.082-0.138-1.585-0.138c-3.589,0-4.853,2.336-4.899,2.427
			c-0.048,0.096-0.111,0.184-0.188,0.26l-0.285,0.285c-0.206,0.206-0.499,0.288-0.784,0.267l-0.5-2.307
			c0.026,0.03,0.562-0.331,0.587-0.302c0.874-1.048,2.745-2.629,6.068-2.629c0.612,0,1.257,0.056,1.912,0.165
			c2.625,0.437,4.649,2.018,5.704,4.452c1.078,2.49,0.946,5.558-0.321,7.46c-1.937,2.903-12.399,12.207-12.845,12.603
			c-0.174,0.154-0.389,0.229-0.606,0.241L1326.001,29.539L1326.001,29.539z"/>
	</g>
</g>
<g>
	<path fill="#FFFFFF" d="M1373.499,7.677c0,0-3.284,1.949-4,3c-0.716,1.051-1-1-6-2s-7,2-7,2l-1,3l-1,3l4,5.333l9,8.667l13-12v-8
		l-3-2L1373.499,7.677z"/>
	<g>
		<path fill="#020202" d="M1367.999,29.618c-3.382-3.032-10.406-9.501-11.787-11.572c-0.771-1.156-1.069-3.435-0.151-5.556
			c0.55-1.266,1.723-2.861,4.197-3.274c0.549-0.091,1.082-0.138,1.585-0.138c3.589,0,4.853,2.336,4.899,2.427
			c0.048,0.096,0.111,0.184,0.188,0.26l0.285,0.285c0.206,0.206,0.499,0.288,0.784,0.267l0.5-2.307
			c-0.026,0.03-0.562-0.331-0.587-0.302c-0.874-1.048-2.745-2.629-6.068-2.629c-0.612,0-1.257,0.056-1.912,0.165
			c-2.625,0.437-4.649,2.018-5.704,4.452c-1.078,2.49-0.946,5.558,0.321,7.46c1.937,2.902,12.399,12.207,12.845,12.602
			c0.174,0.155,0.389,0.229,0.606,0.242L1367.999,29.618L1367.999,29.618z"/>
		<path fill="#020202" d="M1367.999,29.618c3.382-3.032,10.406-9.501,11.787-11.572c0.771-1.156,1.069-3.435,0.151-5.556
			c-0.55-1.266-1.723-2.861-4.197-3.274c-0.549-0.091-1.082-0.138-1.585-0.138c-3.589,0-4.853,2.336-4.899,2.427
			c-0.048,0.096-0.111,0.184-0.188,0.26l-0.285,0.285c-0.206,0.206-0.499,0.288-0.784,0.267l-0.5-2.307
			c0.026,0.03,0.562-0.331,0.587-0.302c0.874-1.048,2.745-2.629,6.068-2.629c0.612,0,1.257,0.056,1.912,0.165
			c2.625,0.437,4.649,2.018,5.704,4.452c1.078,2.49,0.946,5.558-0.321,7.46c-1.937,2.902-12.399,12.207-12.845,12.602
			c-0.174,0.155-0.389,0.229-0.606,0.242L1367.999,29.618L1367.999,29.618z"/>
	</g>
</g>
<g>
	<rect x="1440.5" y="7.542" fill="#FFFFFF" width="20" height="20.5"/>
	<path fill="#020202" d="M1439.5,29h5v5l3-1l3,1v-5h11V6.042h-22V29z M1441.5,8.042h18v18.743h-18V8.042z"/>
</g>
<g>
	<path fill="#020202" d="M1398.5,29h5v5l3-1l3,1v-5h11V6.042h-22V29z M1400.5,8.042h18v18.743h-18V8.042z"/>
	<rect x="1399.5" y="7" fill="#020202" width="20" height="21"/>
</g>
<g>
	<polygon fill="#020202" points="1234.445,7.488 1255.445,7.488 1256.445,28.488 1233.445,28.488 	"/>
	<g>
		<path fill="#020202" d="M1256.412,6.984h-5.967V5.809c0-1.663-0.842-4.809-5.36-4.809c-4.521,0-5.64,3.146-5.64,4.809v1.175
			h-5.912L1232.5,30h24.945L1256.412,6.984z M1241.445,5.809c0-0.114-0.033-2.793,3.64-2.793c3.483,0,3.353,2.335,3.36,2.793v1.175
			h-7V5.809z M1234.594,27.984L1235.445,9h4v1.843c0,0.557,0.446,1.008,1,1.008c0.553,0,1-0.451,1-1.008V9h7v1.843
			c0,0.557,0.446,1.008,1,1.008c0.553,0,1-0.451,1-1.008V9h4.055l0.852,18.984H1234.594z"/>
	</g>
</g>
<g>
	<polygon fill="#FFFFFF" points="1275.25,7 1296.25,7 1297.25,28 1274.25,28 	"/>
	<g>
		<path fill="#020202" d="M1297.217,5.984h-5.967V4.809c0-1.664-0.841-4.809-5.36-4.809c-4.521,0-5.64,3.146-5.64,4.809v1.175
			h-5.912L1273.305,29h24.945L1297.217,5.984z M1282.25,4.809c0-0.114-0.033-2.793,3.64-2.793c3.483,0,3.353,2.335,3.36,2.793v1.175
			h-7V4.809z M1275.399,26.984L1276.25,8h4v1.843c0,0.557,0.447,1.008,1,1.008s1-0.451,1-1.008V8h7v1.843
			c0,0.557,0.447,1.008,1,1.008s1-0.451,1-1.008V8h4.055l0.853,18.984H1275.399z"/>
	</g>
</g>
<g>
	<g>
		<path fill="#020202" d="M315.195,12.504c-1.847-1.656-5.684-5.189-6.438-6.32c-0.42-0.631-0.584-1.876-0.083-3.035
			c0.3-0.692,0.941-1.563,2.292-1.789c0.3-0.05,0.591-0.075,0.866-0.075c1.96,0,2.651,1.276,2.676,1.325
			c0.026,0.053,0.061,0.101,0.103,0.143l0.155,0.155c0.113,0.112,0.273,0.157,0.429,0.146l0.273-1.26
			c-0.015,0.016-0.307-0.18-0.321-0.165c-0.478-0.572-1.5-1.436-3.315-1.436c-0.334,0-0.686,0.031-1.044,0.09
			c-1.433,0.238-2.539,1.102-3.115,2.432c-0.589,1.36-0.517,3.036,0.175,4.075c1.058,1.585,6.773,6.668,7.016,6.884
			c0.095,0.084,0.212,0.125,0.331,0.132L315.195,12.504L315.195,12.504z"/>
		<path fill="#020202" d="M315.195,12.504c1.848-1.656,5.685-5.189,6.439-6.32c0.42-0.631,0.583-1.876,0.082-3.035
			c-0.3-0.692-0.94-1.563-2.293-1.789c-0.299-0.05-0.591-0.075-0.865-0.075c-1.96,0-2.65,1.276-2.676,1.325
			c-0.027,0.053-0.061,0.101-0.103,0.143l-0.156,0.155c-0.112,0.112-0.272,0.157-0.428,0.146l-0.273-1.26
			c0.015,0.016,0.307-0.18,0.321-0.165c0.477-0.572,1.499-1.436,3.314-1.436c0.334,0,0.688,0.031,1.044,0.09
			c1.434,0.238,2.54,1.102,3.116,2.432c0.589,1.36,0.517,3.036-0.176,4.075c-1.058,1.585-6.772,6.668-7.016,6.884
			c-0.095,0.084-0.212,0.125-0.332,0.132L315.195,12.504L315.195,12.504z"/>
	</g>
</g>
</svg>
