<svg id="Слой_1" data-name="Слой 1" xmlns="http://www.w3.org/2000/svg" viewBox="0 0 30 30">
  <title>Icons</title>
  <g id="Onmattress_icon">
    <g>
      <path d="M7.54,23.36a.49.49,0,0,1,.16.38.5.5,0,0,1-.16.38.52.52,0,0,1-.38.15.53.53,0,0,1-.38-.15l-.22-.23-.23.23a.55.55,0,0,1-.75,0,.54.54,0,0,1-.16-.38.53.53,0,0,1,.16-.38l.22-.23-.22-.23a.53.53,0,0,1-.16-.38.53.53,0,0,1,.91-.38l.23.23.22-.23A.54.54,0,0,1,7.16,22a.57.57,0,0,1,.39.16.52.52,0,0,1,0,.75l-.22.23Z"/>
      <path d="M16,14.93a.53.53,0,0,1,0,.75.5.5,0,0,1-.38.16.49.49,0,0,1-.38-.16L15,15.47l-.23.22a.49.49,0,0,1-.38.16.54.54,0,0,1-.38-.16.53.53,0,0,1-.16-.38.54.54,0,0,1,.16-.38l.23-.22L14,14.48a.54.54,0,0,1-.16-.38.53.53,0,0,1,.16-.38.54.54,0,0,1,.38-.16.53.53,0,0,1,.38.16l.23.22.23-.22a.53.53,0,0,1,.38-.16.54.54,0,0,1,.38.16.53.53,0,0,1,0,.75l-.23.23Z"/>
      <path d="M28.33,0H20.87a1.88,1.88,0,0,0-1.08.38A1.72,1.72,0,0,0,18.73,0H11.27a1.92,1.92,0,0,0-1.1.38,1.68,1.68,0,0,0-1-.38H1.67A1.67,1.67,0,0,0,0,1.67V28.33A1.67,1.67,0,0,0,1.67,30H9.13a1.88,1.88,0,0,0,1.08-.38,1.72,1.72,0,0,0,1.06.38h7.45a1.92,1.92,0,0,0,1.1-.38,1.68,1.68,0,0,0,1,.38h7.46A1.67,1.67,0,0,0,30,28.33V1.67A1.67,1.67,0,0,0,28.33,0Zm.6,28.33a.6.6,0,0,1-.6.6H20.87a.59.59,0,0,1-.38-.14,1.08,1.08,0,0,0-.7-.25,1.12,1.12,0,0,0-.71.26.55.55,0,0,1-.37.13H11.27a.55.55,0,0,1-.38-.14,1.12,1.12,0,0,0-.7-.25,1.08,1.08,0,0,0-.7.25.59.59,0,0,1-.38.14H1.67a.6.6,0,0,1-.6-.6V1.67a.6.6,0,0,1,.6-.6H9.13a.59.59,0,0,1,.38.14,1.08,1.08,0,0,0,.7.25,1.12,1.12,0,0,0,.71-.26.55.55,0,0,1,.37-.13h7.45a.55.55,0,0,1,.38.14,1.12,1.12,0,0,0,.7.25,1.08,1.08,0,0,0,.7-.25.59.59,0,0,1,.38-.14h7.46a.6.6,0,0,1,.6.6Z"/>
      <path d="M7.54,6.53a.49.49,0,0,1,.16.38.5.5,0,0,1-.16.38.53.53,0,0,1-.38.16.54.54,0,0,1-.38-.16l-.22-.23-.23.23a.54.54,0,0,1-.91-.38.53.53,0,0,1,.16-.38L5.8,6.3l-.22-.22a.57.57,0,0,1-.16-.39.54.54,0,0,1,.16-.38.55.55,0,0,1,.75,0l.23.23.22-.23a.53.53,0,0,1,.38-.15.56.56,0,0,1,.39.15.53.53,0,0,1,.15.38.52.52,0,0,1-.16.39l-.22.22Z"/>
      <path d="M7.54,14.93a.5.5,0,0,1,.16.38.49.49,0,0,1-.16.38.53.53,0,0,1-.38.16.5.5,0,0,1-.38-.16l-.22-.22-.23.22a.5.5,0,0,1-.38.16.54.54,0,0,1-.38-.16.53.53,0,0,1-.16-.38.54.54,0,0,1,.16-.38l.22-.22-.22-.23a.53.53,0,0,1,0-.75.53.53,0,0,1,.75,0l.23.22.22-.22a.54.54,0,0,1,.38-.16.57.57,0,0,1,.39.16.52.52,0,0,1,.15.38.5.5,0,0,1-.16.38l-.22.23Z"/>
      <path d="M16,6.53a.53.53,0,0,1,0,.75.54.54,0,0,1-.38.16.53.53,0,0,1-.38-.16L15,7.05l-.23.23a.53.53,0,0,1-.38.16.54.54,0,0,1-.54-.54A.53.53,0,0,1,14,6.53l.23-.23L14,6.08a.57.57,0,0,1-.16-.39A.54.54,0,0,1,14,5.31a.53.53,0,0,1,.38-.15.52.52,0,0,1,.38.15l.23.23.23-.23a.52.52,0,0,1,.38-.15.53.53,0,0,1,.38.15.55.55,0,0,1,0,.76l-.23.22Z"/>
      <path d="M24.42,14.93a.53.53,0,0,1,0,.75.53.53,0,0,1-.75,0l-.23-.22-.22.22a.5.5,0,0,1-.38.16.54.54,0,0,1-.54-.54.5.5,0,0,1,.16-.38l.22-.22-.22-.23a.52.52,0,0,1,0-.75.53.53,0,0,1,.38-.16.54.54,0,0,1,.38.16l.22.22.23-.22a.53.53,0,0,1,.75,0,.53.53,0,0,1,0,.75l-.22.23Z"/>
      <path d="M24.42,23.35a.55.55,0,0,1,0,.76.52.52,0,0,1-.38.15.53.53,0,0,1-.38-.15l-.23-.23-.22.23a.53.53,0,0,1-.38.15.52.52,0,0,1-.38-.15.5.5,0,0,1-.16-.38.49.49,0,0,1,.16-.38l.22-.23-.22-.23a.49.49,0,0,1-.16-.38.5.5,0,0,1,.16-.38.53.53,0,0,1,.38-.16.54.54,0,0,1,.38.16l.22.23.23-.23a.53.53,0,0,1,.75,0,.53.53,0,0,1,0,.75l-.22.23Z"/>
      <path d="M16,23.36a.53.53,0,0,1-.38.9.52.52,0,0,1-.38-.15L15,23.89l-.22.23a.56.56,0,0,1-.39.15.53.53,0,0,1-.38-.15.54.54,0,0,1-.16-.38.53.53,0,0,1,.16-.38l.23-.23L14,22.91a.53.53,0,0,1,0-.75.54.54,0,0,1,.38-.16.53.53,0,0,1,.38.16l.23.23.23-.23a.53.53,0,0,1,.38-.16.54.54,0,0,1,.38.16.53.53,0,0,1,0,.75l-.23.23Z"/>
      <path d="M24.42,6.53a.53.53,0,0,1,0,.75.53.53,0,0,1-.75,0l-.23-.23-.22.23a.54.54,0,0,1-.38.16.53.53,0,0,1-.38-.16.5.5,0,0,1-.16-.38.49.49,0,0,1,.16-.38l.22-.23-.22-.22a.52.52,0,0,1-.16-.39.5.5,0,0,1,.16-.38.52.52,0,0,1,.38-.15.53.53,0,0,1,.38.15l.22.23.23-.23a.55.55,0,0,1,.75,0,.55.55,0,0,1,0,.76l-.22.22Z"/>
    </g>
  </g>
</svg>
