<svg id="Capa_1" data-name="Capa 1" xmlns="http://www.w3.org/2000/svg" viewBox="0 0 487.22 465.2">
  <title>star_fill</title>
  <path d="M483,200.71l-109.6,107.5,26.3,150.5a10.55,10.55,0,0,1,.4,3.1,13.55,13.55,0,0,1-13.5,13.5,13.81,13.81,0,0,1-6.2-1.5l-136.1-71.1-135.7,71.9a12.83,12.83,0,0,1-6.3,1.6A13.57,13.57,0,0,1,89,460.41L114.45,309,4.15,202.11a13.35,13.35,0,0,1-3.5-13.8,13.59,13.59,0,0,1,10.9-9.2l152-22.6L231,18.61A13.56,13.56,0,0,1,236,13a13.41,13.41,0,0,1,7.1-2,13.55,13.55,0,0,1,12.1,7.5L323.65,156l152,21.6a13.59,13.59,0,0,1,10.9,9.2A13.22,13.22,0,0,1,483,200.71Z" transform="translate(0 -11.01)"/>
</svg>
