<?xml version="1.0" encoding="utf-8"?>
<!-- Generator: Adobe Illustrator 19.2.1, SVG Export Plug-In . SVG Version: 6.00 Build 0)  -->
<svg version="1.1" id="Слой_1" xmlns="http://www.w3.org/2000/svg" xmlns:xlink="http://www.w3.org/1999/xlink" x="0px" y="0px"
	 viewBox="0 0 24 24" style="enable-background:new 0 0 24 24;" xml:space="preserve">
<style type="text/css">
	.st0{fill:#4DA2C1;}
</style>
<title>Icons_2</title>
<path d="M22.2,19v-0.1c0-1-0.1-3.3-2.3-4l0,0c-1.8-0.7-3.5-1.6-5-2.8c0.3-0.2,0.5-0.4,0.7-0.6c1.9-2.1,1.6-5.8,1.6-6.2
	c0-1.8-0.9-3.5-2.5-4.5C13.9,0.3,13,0,12,0l0,0c-0.9,0-1.9,0.2-2.7,0.7c-1.6,1-2.5,2.7-2.4,4.5c0,0.4-0.3,4,1.6,6.2
	c0.2,0.2,0.5,0.5,0.7,0.6c-1.5,1.2-3.2,2.2-5,2.8l0,0c-2.2,0.7-2.2,3-2.3,4V19c0,0.8,0.1,1.5,0.3,2.3c0,0.1,0.1,0.2,0.3,0.3
	c2.9,1.7,6.2,2.5,9.6,2.4c3.4,0.1,6.7-0.7,9.7-2.4c0.1-0.1,0.2-0.2,0.3-0.3C22.1,20.6,22.2,19.8,22.2,19z M8.2,5.3L8.2,5.3
	c0.2-3.6,2.7-3.9,3.8-3.9l0,0c1.3,0,3.6,0.6,3.8,3.9l0,0c0,0,0.4,3.4-1.2,5.2c-0.6,0.7-1.6,1.1-2.5,1.1l0,0c-1,0-1.9-0.3-2.6-1.1
	C7.8,8.8,8.2,5.4,8.2,5.3L8.2,5.3z M20.8,20.6C18,22,15,22.7,12,22.6c-3,0.1-6-0.6-8.8-2c-0.1-0.5-0.1-1-0.1-1.5c0,0,0-0.1,0-0.1
	c0-1.1,0.2-2.4,1.3-2.8c2-0.7,3.9-1.8,5.5-3.1c0.2-0.1,0.3-0.3,0.3-0.4c0.5,0.2,1.1,0.3,1.6,0.3h0.2c0.6,0,1.1-0.1,1.6-0.3
	c0,0.2,0.1,0.4,0.3,0.5c1.7,1.3,3.5,2.4,5.5,3.1c1.1,0.4,1.3,1.6,1.3,2.8c0,0,0,0.1,0,0.1C20.8,19.6,20.8,20.1,20.8,20.6z"/>
<path class="st0" d="M8.2,5.3L8.2,5.3c0.2-3.6,2.7-3.9,3.8-3.9l0,0c1.3,0,3.6,0.6,3.8,3.9l0,0c0,0,0.4,3.4-1.2,5.2
	c-0.6,0.7-1.6,1.1-2.5,1.1l0,0c-1,0-1.9-0.3-2.6-1.1C7.8,8.8,8.2,5.4,8.2,5.3L8.2,5.3z"/>
<path class="st0" d="M20.8,20.6C18,22,15,22.7,12,22.6c-3,0.1-6-0.6-8.8-2c-0.1-0.5-0.1-1-0.1-1.5c0,0,0-0.1,0-0.1
	c0-1.1,0.2-2.4,1.3-2.8c2-0.7,3.9-1.8,5.5-3.1c0.2-0.1,0.3-0.3,0.3-0.4c0.5,0.2,1.1,0.3,1.6,0.3h0.2c0.6,0,1.1-0.1,1.6-0.3
	c0,0.2,0.1,0.4,0.3,0.5c1.7,1.3,3.5,2.4,5.5,3.1c1.1,0.4,1.3,1.6,1.3,2.8c0,0,0,0.1,0,0.1C20.8,19.6,20.8,20.1,20.8,20.6z"/>
</svg>
